<?xml version="1.0" encoding="UTF-8"?>
<svg width="371px" height="40px" viewBox="0 0 371 40" version="1.1" xmlns="http://www.w3.org/2000/svg" xmlns:xlink="http://www.w3.org/1999/xlink">
    <title>Deploy_to_kube_Secured</title>
    <g id="Deploy_to_kube_Secured" stroke="none" stroke-width="1" fill="none" fill-rule="evenodd">
        <g id="button-/-01-primary-/-field-/-02-text-and-icon-/-01-enabled">
            <g id="button-/-01-primary-/-field-/-01-text-/-01-enabled">
                <rect id="Background" fill="#0F62FE" fill-rule="evenodd" x="0" y="0" width="371" height="40"></rect>
                <g id="utilities-/-spacer-/-component-/-horizontal-/-spacing-10-(64px)-/-off" transform="translate(307.000000, 0.000000)">
                    <rect id="spacer" x="0" y="0" width="64" height="40"></rect>
                </g>
                <text id="Label" font-family="IBMPlexSans, IBM Plex Sans" font-size="14" font-weight="normal" line-spacing="18" letter-spacing="0.159999996" fill="#FFFFFF">
                    <tspan x="16" y="25">Deploy to Kubernetes on IBM Cloud (Secured)</tspan>
                </text>
            </g>
            <g id="Brand-/-IBM-/-ibm-cloud-/-16" transform="translate(339.000000, 12.000000)" fill="#FFFFFF" fill-rule="evenodd">
                <path d="M12.0376471,6.825 C11.0765969,4.91250462 9.0407351,3.90613097 7.04484502,4.35694231 C5.04895494,4.80775364 3.57444033,6.60701537 3.42870588,8.7695 C1.75142134,8.96188611 0.508267605,10.513817 0.59762563,12.3037699 C0.686983655,14.0937229 2.07767812,15.4972173 3.76470588,15.5000032 L11.2941176,15.5000032 C13.4244367,15.5026957 15.2046224,13.7777329 15.3978234,11.5235949 C15.5910243,9.26945683 14.1333813,7.23120843 12.0376471,6.825 L12.0376471,6.825 Z M11.2941176,14.7500256 L3.76470588,14.7500256 C2.46352403,14.7560584 1.3820998,13.6862848 1.29496734,12.3068689 C1.20783487,10.9274531 2.14501959,9.71373507 3.43529412,9.535 C3.48505032,10.1969036 3.66185911,10.8409685 3.95482353,11.4275 C4.0145079,11.5455763 4.12894601,11.620852 4.25503013,11.6249714 C4.38111425,11.6290909 4.49968921,11.5614282 4.56608896,11.4474714 C4.63248871,11.3335146 4.63662555,11.1905763 4.57694118,11.0725 C3.60971133,9.14924098 4.21841616,6.75835055 5.96627244,5.61543996 C7.71412871,4.47252938 9.99727442,4.97245965 11.1774118,6.7565 C10.0373658,6.78989759 8.9613643,7.32395811 8.20564706,8.2315 C8.11711789,8.33109534 8.08674814,8.47405711 8.12643096,8.60439981 C8.16611379,8.73474251 8.26953347,8.83172147 8.39618965,8.85735859 C8.52284584,8.8829957 8.65258058,8.83321071 8.73458824,8.7275 C9.77341064,7.47576968 11.4823238,7.13933797 12.8742696,7.91252582 C14.2662154,8.68571367 14.9814794,10.3687095 14.6069293,11.9894249 C14.2323792,13.6101403 12.8648084,14.7497408 11.2941176,14.7500256 L11.2941176,14.7500256 Z M15.4814118,5.1275 C15.4341523,5.04032776 15.3562129,4.97669543 15.2647657,4.95062282 C15.1733185,4.92455021 15.075867,4.93817669 14.9938824,4.9885 L13.5727059,5.8605 C13.4570927,5.92541793 13.38411,6.05227332 13.3824468,6.19120006 C13.3807837,6.33012681 13.450706,6.45891349 13.5647278,6.52693483 C13.6787495,6.59495617 13.818641,6.591337 13.9294118,6.5175 L15.3505882,5.6455 C15.5212255,5.54074729 15.5797682,5.30894577 15.4814118,5.1275 L15.4814118,5.1275 Z M11.1416471,3.935 C11.223674,3.98548226 11.3212394,3.9991977 11.4128003,3.97311787 C11.5043611,3.94703804 11.5823862,3.88330809 11.6296471,3.796 L12.4503529,2.286 C12.5401165,2.10553174 12.4794482,1.88195072 12.3130386,1.77995516 C12.1466289,1.6779596 11.9340962,1.73409063 11.832,1.907 L11.0112941,3.417 C10.9128586,3.59831496 10.9711806,3.83007618 11.1416471,3.935 L11.1416471,3.935 Z M8,3.0405 C8.09472909,3.0405 8.18557832,3.00051708 8.2525619,2.92934702 C8.31954549,2.85817697 8.35717647,2.76164966 8.35717647,2.661 L8.35717647,0.9175 C8.35717647,0.707907937 8.19726312,0.538 8,0.538 C7.80273688,0.538 7.64282322,0.707907937 7.64282322,0.9175 L7.64282322,2.661 C7.64269861,2.76173626 7.68027445,2.85839207 7.74727157,2.92967031 C7.8142687,3.00094854 7.90518932,3.041 8,3.041 L8,3.0405 Z M4.37035294,3.796 C4.47160541,3.97125499 4.68581143,4.02893888 4.8534053,3.92608198 C5.02099916,3.82322507 5.08099721,3.59725468 4.98870588,3.4165 L4.168,1.9065 C4.10462232,1.78804648 3.98634151,1.71478482 3.85810058,1.71455161 C3.72985965,1.71431951 3.61134406,1.78715158 3.54758604,1.90537446 C3.48382802,2.02359733 3.48461466,2.16906336 3.54964706,2.2865 L4.37035294,3.796 Z M2.42776471,5.8605 L1.00658824,4.9885 C0.896059637,4.91940307 0.759150431,4.91856727 0.647881841,4.98631017 C0.53661325,5.05405306 0.468065422,5.17997588 0.468283866,5.31623187 C0.468503356,5.45248786 0.537455506,5.57816122 0.648941176,5.6455 L2.07058824,6.5175 C2.18128083,6.58969576 2.3201347,6.5923563 2.43320526,6.52444802 C2.54627582,6.45653973 2.61573887,6.32876752 2.61462169,6.19077077 C2.61347732,6.05277402 2.54193096,5.92630622 2.42776471,5.8605 Z" id="Fill"></path>
            </g>
        </g>
    </g>
</svg>