<?xml version="1.0" encoding="utf-8"?>
<!-- Generator: Adobe Illustrator 25.0.0, SVG Export Plug-In . SVG Version: 6.00 Build 0)  -->
<svg version="1.1" id="Layer_1" xmlns="http://www.w3.org/2000/svg" xmlns:xlink="http://www.w3.org/1999/xlink" x="0px" y="0px"
	 viewBox="0 0 470 419" style="enable-background:new 0 0 470 419;" xml:space="preserve">
<style type="text/css">
	.st0{fill:#4589FF;}
	.st1{fill:#FFFFFF;}
	.st2{fill:#DDE1E6;}
	.st3{fill:#FD783D;}
	.st4{fill:#FDA578;}
	.st5{fill:#1CB3A0;}
	.st6{fill:#4AD5C3;}
	.st7{fill:#2E3737;}
	.st8{fill:#586565;}
	.st9{fill:#FCE77F;}
	.st10{fill:#FCD432;}
	.st11{fill:#030506;}
	.st12{fill:#3D4747;}
	.st13{fill:#975AD1;}
	.st14{fill:#FC42A0;}
	.st15{fill:#64BC46;}
	.st16{fill:#FFFFFF;stroke:#DDE1E6;stroke-miterlimit:10;}
	.st17{clip-path:url(#SVGID_2_);}
	.st18{clip-path:url(#SVGID_4_);fill:#243238;}
	.st19{clip-path:url(#SVGID_6_);fill:#3B4B54;}
	.st20{clip-path:url(#SVGID_8_);fill:#0883A5;}
	.st21{clip-path:url(#SVGID_10_);fill:#00AED1;}
	.st22{clip-path:url(#SVGID_12_);fill:#027C68;}
	.st23{clip-path:url(#SVGID_14_);fill:#00B199;}
	.st24{clip-path:url(#SVGID_16_);}
	.st25{clip-path:url(#SVGID_18_);fill:#243238;}
	.st26{clip-path:url(#SVGID_20_);fill:#3B4B54;}
	.st27{clip-path:url(#SVGID_22_);fill:#0883A5;}
	.st28{clip-path:url(#SVGID_24_);fill:#00AED1;}
	.st29{clip-path:url(#SVGID_26_);fill:#027C68;}
	.st30{clip-path:url(#SVGID_28_);fill:#00B199;}
</style>
<rect x="97.6" y="51" class="st0" width="32.4" height="2"/>
<rect x="97.6" y="330" class="st0" width="32.4" height="2"/>
<rect x="96" y="189" class="st0" width="108" height="2"/>
<rect x="65.3" y="107" class="st0" width="1" height="50"/>
<rect x="65.3" y="83" class="st0" width="1" height="5"/>
<rect x="65.3" y="247" class="st0" width="1" height="52"/>
<rect x="65.3" y="223" class="st0" width="1" height="5"/>
<rect x="238" y="222" class="st0" width="1" height="5"/>
<rect x="238" y="52" class="st0" width="1" height="107"/>
<rect x="238" y="246" class="st0" width="1" height="85"/>
<rect x="226" y="51" class="st0" width="24" height="1"/>
<rect x="226" y="330" class="st0" width="25" height="1"/>
<circle class="st1" cx="238" cy="190" r="32"/>
<path class="st2" d="M238,222.5c-17.9,0-32.5-14.6-32.5-32.5s14.6-32.5,32.5-32.5s32.5,14.6,32.5,32.5S255.9,222.5,238,222.5z
	 M238,158.5c-17.4,0-31.5,14.1-31.5,31.5s14.1,31.5,31.5,31.5s31.5-14.1,31.5-31.5S255.4,158.5,238,158.5z"/>
<path class="st3" d="M254.9,193.2c-1.9,7.9-8.5,13.6-16.7,13.6c-5.6,0-10.1-2.5-13-6.5l9-9.3l1.1,1.1l-1.1-1.1l1.3,1.6l2.1-7.4
	l-7.2,2.2l1.3,1.4l-2.1,2.5l-6.1,6.3c-1.1-1.9-1.9-4.1-2.1-6.8l-2.6-3.8c-0.3,0.8-0.3,1.6-0.3,2.7c0,11.2,9,20.4,19.9,20.4
	c8.8,0,16.2-5.7,18.8-13.6L254.9,193.2z"/>
<polyline class="st4" points="223.4,197.5 231.8,188.8 230.5,187.4 237.7,185.3 225.2,197.8 "/>
<path class="st4" d="M238.2,209.8c8.8,0,16.2-5.7,18.8-13.6l-1.3-1.6c-2.1,7.9-9.3,13.9-17.5,13.9c-10.1,0-18.3-8.4-18.3-18.8
	c0-0.3,0-0.5,0-0.8l-1.1-1.9c-0.3,0.8-0.3,1.6-0.3,2.7C218.6,200.8,227.3,209.8,238.2,209.8z"/>
<path class="st5" d="M222,186.6c1.9-7.9,8.5-13.6,16.7-13.6c5.6,0,10.1,2.5,13,6.5l-9,9.3l-0.8-1.1l1.1,1.1l-1.6-1.6l-2.1,7.4
	l7.2-2.2l-1.3-1.4l2.4-2.5l6.1-6.3c1.1,1.9,1.6,4.4,1.9,6.8l2.6,3.8c0.3-0.8,0.3-1.6,0.3-2.5c0-11.2-9-20.4-19.9-20.4
	c-8.5,0-15.9,5.7-18.5,13.6L222,186.6z"/>
<polyline class="st6" points="251.7,179.5 242.7,188.8 241.4,187.2 239.3,194.5 251.4,182 "/>
<path class="st6" d="M238.7,170c-8.8,0-16.2,5.7-18.8,13.6l1.3,1.6c2.1-7.9,9.3-13.9,17.5-13.9c10.1,0,18.3,8.4,18.3,18.8
	c0,0.3,0,0.5,0,0.8l1.3,1.9c0.3-0.8,0.3-1.6,0.3-2.5C258.3,179,249.6,170,238.7,170z"/>
<circle class="st1" cx="194" cy="51" r="32"/>
<path class="st2" d="M194,83.5c-17.9,0-32.5-14.6-32.5-32.5s14.6-32.5,32.5-32.5s32.5,14.6,32.5,32.5S211.9,83.5,194,83.5z
	 M194,19.5c-17.4,0-31.5,14.1-31.5,31.5s14.1,31.5,31.5,31.5s31.5-14.1,31.5-31.5S211.4,19.5,194,19.5z"/>
<path class="st7" d="M197.9,62.1l-7.6,0.5c-0.7,0-1.3-0.4-1.3-1.1c0-0.7,0.5-1.2,1.2-1.3l7.6-0.5c0.7,0,1.3,0.4,1.4,1.1
	C199.1,61.4,198.6,62,197.9,62.1z"/>
<path class="st7" d="M197.9,65.6l-7.6,0.5c-0.7,0-1.3-0.4-1.3-1.1s0.5-1.2,1.2-1.3l7.6-0.4c0.7,0,1.3,0.4,1.3,1.1
	C199.1,65,198.6,65.6,197.9,65.6z"/>
<path class="st8" d="M190.1,67.4H190c0.2,2.1,2,3.6,4,3.6c2.2,0,4-1.8,4-4.1v-0.1L190.1,67.4z"/>
<path class="st9" d="M206,42.6c0-6.4-5.4-11.6-12-11.6s-12,5.2-12,11.6c0,3,1.2,5.7,3,7.7c1.9,2.3,2.8,3,2.8,6.8v0.3
	c0,0.5,0.5,1,1,1H199c0.6,0,1-0.4,1-1v-0.2c0-4,1-4.6,3.1-7.2l0,0C205,48,206,45.4,206,42.6z"/>
<path class="st9" d="M203.3,50l0.1-0.2C203.4,49.9,203.4,50,203.3,50z"/>
<path class="st10" d="M206,42.6c0-6.4-5.4-11.6-12-11.6v27.4h5.1c0.6,0,1-0.4,1-1v-0.2c0-4,1-4.6,3.1-7.2C205,48,206,45.4,206,42.6z
	"/>
<path class="st11" d="M199,64.6v-0.4c0-0.5-0.6-1-1.1-0.9l-3.9,0.3V66l4.1-0.3C198.7,65.6,199.1,65.1,199,64.6z"/>
<path class="st11" d="M199,61v-0.4c0-0.5-0.6-1-1.1-0.9L194,60v2.4l4.1-0.3C198.7,62,199.1,61.5,199,61z"/>
<path class="st12" d="M198,66.8l-4,0.3V71C196.2,71,198,69.2,198,66.8z"/>
<path class="st13" d="M194,35.6c4.1,0,7.4,3.2,7.4,7.2S198.1,50,194,50s-7.4-3.2-7.4-7.2S189.9,35.6,194,35.6z"/>
<path class="st14" d="M194,35.6V50c4.1,0,7.4-3.2,7.4-7.2S198.1,35.6,194,35.6z"/>
<path class="st15" d="M199.7,47.4c1.5-1.7,2-3.9,1.6-5.9l-7.3,1.3l-4.8,5.5C192.4,50.9,197.1,50.5,199.7,47.4z"/>
<circle class="st1" cx="282" cy="51" r="32"/>
<path class="st2" d="M282,83.5c-17.9,0-32.5-14.6-32.5-32.5s14.6-32.5,32.5-32.5s32.5,14.6,32.5,32.5S299.9,83.5,282,83.5z
	 M282,19.5c-17.4,0-31.5,14.1-31.5,31.5s14.1,31.5,31.5,31.5s31.5-14.1,31.5-31.5S299.4,19.5,282,19.5z"/>
<polygon points="38.6,101 38.6,91.2 44.6,91.2 44.6,92.3 39.8,92.3 39.8,95.5 44.3,95.5 44.3,96.6 39.8,96.6 39.8,100 44.6,100 
	44.6,101 "/>
<polygon points="48.2,101 45.7,93.8 46.8,93.8 48.1,97.4 48.9,99.8 48.9,99.8 49.7,97.4 51,93.8 52.1,93.8 49.5,101 "/>
<path d="M54.1,92.1c-0.2,0-0.4-0.1-0.5-0.2s-0.2-0.3-0.2-0.5v-0.2c0-0.2,0.1-0.3,0.2-0.5c0.1-0.1,0.3-0.2,0.5-0.2s0.4,0.1,0.5,0.2
	s0.2,0.3,0.2,0.5v0.2c0,0.2-0.1,0.3-0.2,0.5S54.3,92.1,54.1,92.1z M53.5,93.8h1.1v7.2h-1.1V93.8z"/>
<path d="M61.7,99.8L61.7,99.8c-0.5,0.9-1.2,1.3-2.2,1.3c-0.4,0-0.9-0.1-1.2-0.3c-0.4-0.2-0.7-0.4-0.9-0.8s-0.5-0.7-0.6-1.2
	s-0.2-1-0.2-1.6s0.1-1.1,0.2-1.6c0.1-0.5,0.3-0.9,0.6-1.2c0.3-0.3,0.6-0.6,0.9-0.8c0.4-0.2,0.8-0.3,1.2-0.3c0.5,0,0.9,0.1,1.3,0.3
	c0.4,0.2,0.6,0.6,0.8,1h0.1v-4.3h1.1V101h-1.1C61.7,101,61.7,99.8,61.7,99.8z M59.8,100.2c0.3,0,0.5,0,0.7-0.1s0.4-0.2,0.6-0.3
	s0.3-0.3,0.4-0.5c0.1-0.2,0.1-0.4,0.1-0.6V96c0-0.2,0-0.4-0.1-0.6s-0.2-0.3-0.4-0.4s-0.4-0.2-0.6-0.3c-0.2-0.1-0.5-0.1-0.7-0.1
	c-0.6,0-1.1,0.2-1.5,0.6s-0.5,0.9-0.5,1.6V98c0,0.6,0.2,1.2,0.5,1.6S59.2,100.2,59.8,100.2z"/>
<path d="M67.9,101.2c-0.5,0-0.9-0.1-1.3-0.3c-0.4-0.2-0.7-0.4-1-0.8c-0.3-0.3-0.5-0.7-0.7-1.2s-0.2-1-0.2-1.6s0.1-1.1,0.2-1.6
	s0.4-0.9,0.7-1.2c0.3-0.3,0.6-0.6,1-0.8c0.4-0.2,0.8-0.3,1.3-0.3s0.9,0.1,1.3,0.3s0.7,0.4,1,0.7c0.3,0.3,0.5,0.7,0.6,1.1
	s0.2,0.9,0.2,1.4v0.5h-5.2V98c0,0.3,0,0.6,0.1,0.9s0.2,0.5,0.4,0.7c0.2,0.2,0.4,0.4,0.7,0.5c0.3,0.1,0.6,0.2,0.9,0.2
	c0.5,0,0.9-0.1,1.2-0.3s0.6-0.5,0.8-0.9l0.8,0.6c-0.2,0.5-0.6,0.9-1.1,1.2C69.1,101,68.6,101.2,67.9,101.2z M67.9,94.5
	c-0.3,0-0.6,0.1-0.8,0.2c-0.3,0.1-0.5,0.3-0.7,0.5s-0.3,0.4-0.4,0.7c-0.1,0.3-0.2,0.6-0.2,0.9v0.1h4v-0.2c0-0.6-0.2-1.2-0.5-1.5
	C68.9,94.7,68.5,94.5,67.9,94.5z"/>
<path d="M72.8,101v-7.2H74V95l0,0c0.2-0.4,0.4-0.7,0.7-1c0.3-0.2,0.8-0.4,1.3-0.4c0.7,0,1.3,0.2,1.8,0.7c0.4,0.5,0.7,1.2,0.7,2v4.6
	h-1.1v-4.4c0-1.3-0.5-2-1.6-2c-0.2,0-0.4,0-0.7,0.1c-0.2,0.1-0.4,0.1-0.6,0.3s-0.3,0.3-0.4,0.4C74,95.5,74,95.7,74,96v5H72.8z"/>
<path d="M83.5,101.2c-0.5,0-1-0.1-1.4-0.3s-0.7-0.4-1-0.8s-0.5-0.7-0.6-1.2s-0.2-1-0.2-1.6s0.1-1.1,0.2-1.6s0.4-0.9,0.6-1.2
	c0.3-0.3,0.6-0.6,1-0.8s0.9-0.3,1.4-0.3c0.7,0,1.3,0.2,1.7,0.5c0.4,0.3,0.8,0.7,1,1.2l-0.9,0.5c-0.1-0.4-0.3-0.7-0.6-0.9
	c-0.3-0.2-0.7-0.3-1.1-0.3c-0.3,0-0.6,0.1-0.9,0.2S82.1,95,82,95.2c-0.2,0.2-0.3,0.4-0.4,0.7s-0.1,0.6-0.1,0.9V98
	c0,0.6,0.2,1.2,0.5,1.6s0.8,0.6,1.5,0.6c0.9,0,1.6-0.4,2-1.3l0.8,0.5c-0.2,0.5-0.6,0.9-1,1.2S84.2,101.2,83.5,101.2z"/>
<path d="M90.5,101.2c-0.5,0-0.9-0.1-1.3-0.3c-0.4-0.2-0.7-0.4-1-0.8c-0.3-0.3-0.5-0.7-0.7-1.2s-0.2-1-0.2-1.6s0.1-1.1,0.2-1.6
	s0.4-0.9,0.7-1.2c0.3-0.3,0.6-0.6,1-0.8c0.4-0.2,0.8-0.3,1.3-0.3s0.9,0.1,1.3,0.3s0.7,0.4,1,0.7c0.3,0.3,0.5,0.7,0.6,1.1
	s0.2,0.9,0.2,1.4v0.5h-5.2V98c0,0.3,0,0.6,0.1,0.9s0.2,0.5,0.4,0.7c0.2,0.2,0.4,0.4,0.7,0.5c0.3,0.1,0.6,0.2,0.9,0.2
	c0.5,0,0.9-0.1,1.2-0.3s0.6-0.5,0.8-0.9l0.8,0.6c-0.2,0.5-0.6,0.9-1.1,1.2C91.7,101,91.1,101.2,90.5,101.2z M90.5,94.5
	c-0.3,0-0.6,0.1-0.8,0.2c-0.3,0.1-0.5,0.3-0.7,0.5s-0.3,0.4-0.4,0.7c-0.1,0.3-0.2,0.6-0.2,0.9v0.1h4v-0.2c0-0.6-0.2-1.2-0.5-1.5
	C91.5,94.7,91,94.5,90.5,94.5z"/>
<path d="M208.6,240.2c-1.2,0-2.2-0.4-2.9-1.3c-0.7-0.8-1-2.1-1-3.7c0-1.6,0.3-2.9,1-3.8c0.7-0.9,1.7-1.3,2.9-1.3
	c0.8,0,1.5,0.2,2.1,0.6c0.6,0.4,1,0.9,1.3,1.6l-1,0.6c-0.2-0.5-0.5-0.9-0.9-1.2s-0.9-0.5-1.5-0.5c-0.4,0-0.8,0.1-1.1,0.2
	c-0.3,0.2-0.6,0.4-0.8,0.7s-0.4,0.6-0.5,1.1c-0.1,0.4-0.2,0.9-0.2,1.4v1.5c0,1,0.2,1.8,0.7,2.4c0.5,0.6,1.1,0.9,2,0.9
	c0.6,0,1.1-0.2,1.6-0.5c0.4-0.3,0.7-0.7,0.9-1.3l0.9,0.6c-0.3,0.7-0.8,1.2-1.3,1.6C210.1,240,209.4,240.2,208.6,240.2z"/>
<path d="M213.8,230.2h3.3c0.6,0,1.2,0.1,1.7,0.3s0.9,0.5,1.3,0.9c0.4,0.4,0.6,0.9,0.8,1.5s0.3,1.3,0.3,2.1s-0.1,1.5-0.3,2.1
	s-0.5,1.1-0.8,1.5c-0.4,0.4-0.8,0.7-1.3,0.9s-1,0.3-1.7,0.3h-3.3V230.2z M217.1,239c0.4,0,0.8-0.1,1.1-0.2s0.6-0.3,0.9-0.6
	s0.4-0.6,0.6-1c0.1-0.4,0.2-0.8,0.2-1.3v-1.6c0-0.5-0.1-0.9-0.2-1.3c-0.1-0.4-0.3-0.7-0.6-1s-0.5-0.5-0.9-0.6
	c-0.3-0.1-0.7-0.2-1.1-0.2H215v7.7h2.1V239z"/>
<path d="M226.5,240v-9.8h3.9c0.9,0,1.6,0.2,2,0.7c0.5,0.5,0.7,1.2,0.7,2.1c0,0.9-0.2,1.6-0.7,2.1s-1.1,0.7-2,0.7h-2.7v4.2H226.5z
	 M227.7,234.8h2.7c0.5,0,0.8-0.1,1.1-0.4s0.4-0.6,0.4-1v-0.7c0-0.4-0.1-0.8-0.4-1s-0.6-0.4-1.1-0.4h-2.7V234.8z"/>
<path d="M235.5,231.1c-0.2,0-0.4-0.1-0.5-0.2s-0.2-0.3-0.2-0.5v-0.2c0-0.2,0.1-0.3,0.2-0.5s0.3-0.2,0.5-0.2s0.4,0.1,0.5,0.2
	s0.2,0.3,0.2,0.5v0.2c0,0.2-0.1,0.3-0.2,0.5S235.7,231.1,235.5,231.1z M234.9,232.8h1.1v7.2h-1.1V232.8z"/>
<path d="M238.4,232.8h1.1v1.2h0.1c0.2-0.5,0.5-0.8,0.8-1c0.4-0.2,0.8-0.3,1.3-0.3c0.4,0,0.9,0.1,1.2,0.3s0.7,0.4,0.9,0.8
	c0.3,0.3,0.5,0.7,0.6,1.2s0.2,1,0.2,1.6s-0.1,1.1-0.2,1.6s-0.3,0.9-0.6,1.2s-0.6,0.6-0.9,0.8s-0.8,0.3-1.2,0.3c-1,0-1.7-0.4-2.1-1.3
	h-0.1v4h-1.1V232.8z M241.4,239.2c0.6,0,1.1-0.2,1.5-0.6c0.4-0.4,0.5-0.9,0.5-1.6v-1.2c0-0.6-0.2-1.2-0.5-1.6
	c-0.4-0.4-0.9-0.6-1.5-0.6c-0.3,0-0.5,0-0.7,0.1s-0.4,0.2-0.6,0.3s-0.3,0.3-0.4,0.4c-0.1,0.2-0.1,0.4-0.1,0.6v2.7
	c0,0.2,0,0.4,0.1,0.6c0.1,0.2,0.2,0.3,0.4,0.5s0.4,0.2,0.6,0.3C240.9,239.1,241.1,239.2,241.4,239.2z"/>
<path d="M249.2,240.2c-0.5,0-0.9-0.1-1.3-0.3c-0.4-0.2-0.7-0.4-1-0.8c-0.3-0.3-0.5-0.7-0.7-1.2s-0.2-1-0.2-1.6s0.1-1.1,0.2-1.6
	c0.2-0.5,0.4-0.9,0.7-1.2s0.6-0.6,1-0.8s0.8-0.3,1.3-0.3s0.9,0.1,1.3,0.3s0.7,0.4,1,0.7s0.5,0.7,0.6,1.1c0.1,0.4,0.2,0.9,0.2,1.4
	v0.5h-5.2v0.3c0,0.3,0,0.6,0.1,0.9s0.2,0.5,0.4,0.7s0.4,0.4,0.7,0.5s0.6,0.2,0.9,0.2c0.5,0,0.9-0.1,1.2-0.3s0.6-0.5,0.8-0.9l0.8,0.6
	c-0.2,0.5-0.6,0.9-1.1,1.2C250.5,240,249.9,240.2,249.2,240.2z M249.2,233.5c-0.3,0-0.6,0.1-0.8,0.2c-0.3,0.1-0.5,0.3-0.7,0.5
	s-0.3,0.4-0.4,0.7c-0.1,0.3-0.2,0.6-0.2,0.9v0.1h4v-0.2c0-0.6-0.2-1.2-0.5-1.5C250.3,233.7,249.8,233.5,249.2,233.5z"/>
<path d="M255.4,240c-0.4,0-0.7-0.1-0.9-0.3s-0.3-0.5-0.3-0.8v-9.2h1.1v9.4h1.1v1L255.4,240L255.4,240z"/>
<path d="M258.6,231.1c-0.2,0-0.4-0.1-0.5-0.2s-0.2-0.3-0.2-0.5v-0.2c0-0.2,0.1-0.3,0.2-0.5s0.3-0.2,0.5-0.2s0.4,0.1,0.5,0.2
	s0.2,0.3,0.2,0.5v0.2c0,0.2-0.1,0.3-0.2,0.5S258.8,231.1,258.6,231.1z M258,232.8h1.1v7.2H258V232.8z"/>
<path d="M261.5,240v-7.2h1.1v1.2h0.1c0.2-0.4,0.4-0.7,0.7-1c0.3-0.2,0.8-0.4,1.3-0.4c0.7,0,1.3,0.2,1.8,0.7c0.4,0.5,0.7,1.2,0.7,2
	v4.6H266v-4.4c0-1.3-0.5-2-1.6-2c-0.2,0-0.4,0-0.7,0.1c-0.2,0.1-0.4,0.1-0.6,0.3s-0.3,0.3-0.4,0.4s-0.1,0.4-0.1,0.6v5L261.5,240
	L261.5,240z"/>
<path d="M272.2,240.2c-0.5,0-0.9-0.1-1.3-0.3s-0.7-0.4-1-0.8c-0.3-0.3-0.5-0.7-0.7-1.2s-0.2-1-0.2-1.6s0.1-1.1,0.2-1.6
	c0.2-0.5,0.4-0.9,0.7-1.2c0.3-0.3,0.6-0.6,1-0.8s0.8-0.3,1.3-0.3s0.9,0.1,1.3,0.3s0.7,0.4,1,0.7s0.5,0.7,0.6,1.1
	c0.1,0.4,0.2,0.9,0.2,1.4v0.5h-5.2v0.3c0,0.3,0,0.6,0.1,0.9c0.1,0.3,0.2,0.5,0.4,0.7c0.2,0.2,0.4,0.4,0.7,0.5
	c0.3,0.1,0.6,0.2,0.9,0.2c0.5,0,0.9-0.1,1.2-0.3s0.6-0.5,0.8-0.9l0.8,0.6c-0.2,0.5-0.6,0.9-1.1,1.2S272.9,240.2,272.2,240.2z
	 M272.2,233.5c-0.3,0-0.6,0.1-0.8,0.2c-0.3,0.1-0.5,0.3-0.7,0.5s-0.3,0.4-0.4,0.7s-0.2,0.6-0.2,0.9v0.1h4v-0.2
	c0-0.6-0.2-1.2-0.5-1.5C273.2,233.7,272.8,233.5,272.2,233.5z"/>
<polygon points="18.4,240.5 18.4,239.5 19.7,239.5 19.7,231.7 18.4,231.7 18.4,230.7 22.3,230.7 22.3,231.7 20.9,231.7 20.9,239.5 
	22.3,239.5 22.3,240.5 "/>
<path d="M24.3,240.5v-7.2h1.1v1.2h0.1c0.2-0.4,0.4-0.7,0.7-1c0.3-0.2,0.8-0.4,1.3-0.4c0.7,0,1.3,0.2,1.8,0.7c0.4,0.5,0.7,1.2,0.7,2
	v4.6h-1.1V236c0-1.3-0.5-2-1.6-2c-0.2,0-0.4,0-0.7,0.1c-0.2,0.1-0.4,0.1-0.6,0.3s-0.3,0.3-0.4,0.4c-0.1,0.2-0.1,0.4-0.1,0.6v5
	L24.3,240.5L24.3,240.5z"/>
<polygon points="33.7,240.5 31.2,233.3 32.3,233.3 33.6,236.9 34.4,239.3 34.4,239.3 35.2,236.9 36.5,233.3 37.6,233.3 35,240.5 "/>
<path d="M41.6,240.7c-0.5,0-0.9-0.1-1.3-0.3s-0.7-0.4-1-0.8c-0.3-0.3-0.5-0.7-0.7-1.2s-0.2-1-0.2-1.6s0.1-1.1,0.2-1.6
	c0.2-0.5,0.4-0.9,0.7-1.2s0.6-0.6,1-0.8s0.8-0.3,1.3-0.3s0.9,0.1,1.3,0.3s0.7,0.4,1,0.7s0.5,0.7,0.6,1.1c0.1,0.4,0.2,0.9,0.2,1.4
	v0.5h-5.2v0.3c0,0.3,0,0.6,0.1,0.9c0.1,0.3,0.2,0.5,0.4,0.7s0.4,0.4,0.7,0.5s0.6,0.2,0.9,0.2c0.5,0,0.9-0.1,1.2-0.3s0.6-0.5,0.8-0.9
	l0.8,0.6c-0.2,0.5-0.6,0.9-1.1,1.2C42.9,240.5,42.3,240.7,41.6,240.7z M41.6,234.1c-0.3,0-0.6,0.1-0.8,0.2c-0.3,0.1-0.5,0.3-0.7,0.5
	s-0.3,0.4-0.4,0.7c-0.1,0.3-0.2,0.6-0.2,0.9v0.1h4v-0.2c0-0.6-0.2-1.2-0.5-1.5C42.7,234.3,42.2,234.1,41.6,234.1z"/>
<path d="M46.6,240.5v-7.2h1.1v1.2h0.1c0.2-0.4,0.4-0.7,0.7-1c0.3-0.2,0.8-0.4,1.3-0.4c0.7,0,1.3,0.2,1.8,0.7c0.4,0.5,0.7,1.2,0.7,2
	v4.6h-1.1V236c0-1.3-0.5-2-1.6-2c-0.2,0-0.4,0-0.7,0.1c-0.2,0.1-0.4,0.1-0.6,0.3s-0.3,0.3-0.4,0.4c-0.1,0.2-0.1,0.4-0.1,0.6v5
	L46.6,240.5L46.6,240.5z"/>
<path d="M56.2,240.5c-0.4,0-0.7-0.1-0.9-0.3s-0.3-0.5-0.3-0.9v-5h-1.2v-1h0.7c0.2,0,0.4,0,0.5-0.1s0.1-0.3,0.1-0.5v-1.3h1v2h1.6v1
	h-1.6v5.2h1.5v1L56.2,240.5L56.2,240.5z"/>
<path d="M62.1,240.7c-0.5,0-0.9-0.1-1.3-0.3s-0.7-0.4-1-0.8c-0.3-0.3-0.5-0.7-0.7-1.2s-0.2-1-0.2-1.6s0.1-1.1,0.2-1.6
	c0.2-0.5,0.4-0.9,0.7-1.2s0.6-0.6,1-0.8s0.8-0.3,1.3-0.3s0.9,0.1,1.3,0.3c0.4,0.2,0.7,0.4,1,0.8c0.3,0.3,0.5,0.7,0.7,1.2
	s0.2,1,0.2,1.6s-0.1,1.1-0.2,1.6c-0.2,0.5-0.4,0.9-0.7,1.2c-0.3,0.3-0.6,0.6-1,0.8C63.1,240.6,62.6,240.7,62.1,240.7z M62.1,239.7
	c0.6,0,1.1-0.2,1.5-0.6c0.4-0.4,0.6-0.9,0.6-1.7v-1c0-0.8-0.2-1.3-0.6-1.7s-0.9-0.6-1.5-0.6s-1.1,0.2-1.5,0.6s-0.6,0.9-0.6,1.7v1
	c0,0.8,0.2,1.3,0.6,1.7C61,239.5,61.5,239.7,62.1,239.7z"/>
<path d="M67.3,240.5v-7.2h1.1v1.3h0.1c0.1-0.3,0.4-0.7,0.7-0.9s0.8-0.4,1.4-0.4H71v1.1h-0.7c-0.6,0-1.1,0.1-1.4,0.3
	s-0.5,0.5-0.5,0.9v4.9L67.3,240.5L67.3,240.5z"/>
<path d="M77,233.3h1.1l-3.2,8.9c-0.1,0.2-0.2,0.4-0.3,0.5c-0.1,0.1-0.2,0.3-0.3,0.3c-0.1,0.1-0.3,0.1-0.5,0.2
	c-0.2,0-0.4,0.1-0.7,0.1h-0.6v-1h1.1l0.5-1.5l-2.7-7.5h1.1l1.7,4.9l0.3,1.2h0.1l0.4-1.2L77,233.3z"/>
<path d="M84.1,240.5h-1.2v-9.8h3.9c0.9,0,1.5,0.2,2,0.7s0.7,1.2,0.7,2.1c0,0.7-0.2,1.3-0.5,1.8s-0.8,0.8-1.5,0.9l2.2,4.3h-1.3
	l-2.1-4.2H84v4.2H84.1z M86.8,235.3c0.5,0,0.8-0.1,1.1-0.4s0.4-0.6,0.4-1v-0.7c0-0.4-0.1-0.8-0.4-1s-0.6-0.4-1.1-0.4h-2.7v3.5
	L86.8,235.3L86.8,235.3z"/>
<path d="M94.3,240.7c-0.5,0-0.9-0.1-1.3-0.3s-0.7-0.4-1-0.8c-0.3-0.3-0.5-0.7-0.7-1.2s-0.2-1-0.2-1.6s0.1-1.1,0.2-1.6
	c0.2-0.5,0.4-0.9,0.7-1.2c0.3-0.3,0.6-0.6,1-0.8s0.8-0.3,1.3-0.3s0.9,0.1,1.3,0.3s0.7,0.4,1,0.7s0.5,0.7,0.6,1.1
	c0.1,0.4,0.2,0.9,0.2,1.4v0.5h-5.2v0.3c0,0.3,0,0.6,0.1,0.9c0.1,0.3,0.2,0.5,0.4,0.7c0.2,0.2,0.4,0.4,0.7,0.5
	c0.3,0.1,0.6,0.2,0.9,0.2c0.5,0,0.9-0.1,1.2-0.3s0.6-0.5,0.8-0.9l0.8,0.6c-0.2,0.5-0.6,0.9-1.1,1.2C95.6,240.5,95,240.7,94.3,240.7z
	 M94.3,234.1c-0.3,0-0.6,0.1-0.8,0.2c-0.3,0.1-0.5,0.3-0.7,0.5s-0.3,0.4-0.4,0.7s-0.2,0.6-0.2,0.9v0.1h4v-0.2c0-0.6-0.2-1.2-0.5-1.5
	C95.3,234.3,94.9,234.1,94.3,234.1z"/>
<path d="M99.3,233.3h1.1v1.2h0.1c0.2-0.5,0.5-0.8,0.8-1c0.4-0.2,0.8-0.3,1.3-0.3c0.4,0,0.9,0.1,1.2,0.3c0.4,0.2,0.7,0.4,0.9,0.8
	c0.3,0.3,0.5,0.7,0.6,1.2s0.2,1,0.2,1.6s-0.1,1.1-0.2,1.6s-0.3,0.9-0.6,1.2s-0.6,0.6-0.9,0.8c-0.4,0.2-0.8,0.3-1.2,0.3
	c-1,0-1.7-0.4-2.1-1.3h-0.1v4h-1.1C99.3,243.7,99.3,233.3,99.3,233.3z M102.2,239.7c0.6,0,1.1-0.2,1.5-0.6s0.5-0.9,0.5-1.6v-1.2
	c0-0.6-0.2-1.2-0.5-1.6c-0.4-0.4-0.9-0.6-1.5-0.6c-0.3,0-0.5,0-0.7,0.1s-0.4,0.2-0.6,0.3s-0.3,0.3-0.4,0.4c-0.1,0.2-0.1,0.4-0.1,0.6
	v2.7c0,0.2,0,0.4,0.1,0.6c0.1,0.2,0.2,0.3,0.4,0.5s0.4,0.2,0.6,0.3C101.8,239.7,102,239.7,102.2,239.7z"/>
<path d="M110.1,240.7c-0.5,0-0.9-0.1-1.3-0.3s-0.7-0.4-1-0.8c-0.3-0.3-0.5-0.7-0.7-1.2s-0.2-1-0.2-1.6s0.1-1.1,0.2-1.6
	c0.2-0.5,0.4-0.9,0.7-1.2c0.3-0.3,0.6-0.6,1-0.8s0.8-0.3,1.3-0.3s0.9,0.1,1.3,0.3s0.7,0.4,1,0.8c0.3,0.3,0.5,0.7,0.7,1.2
	s0.2,1,0.2,1.6s-0.1,1.1-0.2,1.6c-0.2,0.5-0.4,0.9-0.7,1.2c-0.3,0.3-0.6,0.6-1,0.8S110.6,240.7,110.1,240.7z M110.1,239.7
	c0.6,0,1.1-0.2,1.5-0.6c0.4-0.4,0.6-0.9,0.6-1.7v-1c0-0.8-0.2-1.3-0.6-1.7s-0.9-0.6-1.5-0.6s-1.1,0.2-1.5,0.6
	c-0.4,0.4-0.6,0.9-0.6,1.7v1c0,0.8,0.2,1.3,0.6,1.7C109,239.5,109.5,239.7,110.1,239.7z"/>
<path d="M260.7,101.2c-1.2,0-2.2-0.4-2.9-1.3c-0.7-0.8-1-2.1-1-3.7s0.3-2.9,1-3.8s1.7-1.3,2.9-1.3c0.8,0,1.5,0.2,2.1,0.6
	s1,0.9,1.3,1.6l-1,0.6c-0.2-0.5-0.5-0.9-0.9-1.2c-0.4-0.3-0.9-0.5-1.5-0.5c-0.4,0-0.8,0.1-1.1,0.2s-0.6,0.4-0.8,0.7
	c-0.2,0.3-0.4,0.6-0.5,1.1c-0.1,0.4-0.2,0.9-0.2,1.4v1.5c0,1,0.2,1.8,0.7,2.4s1.1,0.9,2,0.9c0.6,0,1.1-0.2,1.6-0.5
	c0.4-0.3,0.7-0.7,0.9-1.3l0.9,0.6c-0.3,0.7-0.8,1.2-1.3,1.6C262.3,101,261.6,101.2,260.7,101.2z"/>
<path d="M265.9,90.6h1.1v4.3h0.1c0.2-0.4,0.4-0.7,0.7-1c0.3-0.2,0.8-0.4,1.3-0.4c0.7,0,1.3,0.2,1.8,0.7c0.4,0.5,0.7,1.2,0.7,2v4.6
	h-1.1v-4.4c0-1.3-0.5-2-1.6-2c-0.2,0-0.4,0-0.7,0.1c-0.2,0.1-0.4,0.1-0.6,0.3s-0.3,0.3-0.4,0.4c-0.1,0.2-0.1,0.4-0.1,0.6v5H266
	L265.9,90.6L265.9,90.6z"/>
<path d="M279.1,101c-0.4,0-0.7-0.1-0.9-0.3c-0.2-0.2-0.3-0.5-0.3-0.8h-0.1c-0.2,0.4-0.4,0.8-0.8,1s-0.8,0.3-1.3,0.3
	c-0.8,0-1.4-0.2-1.8-0.6s-0.6-0.9-0.6-1.6s0.2-1.2,0.7-1.6s1.3-0.5,2.3-0.5h1.4v-0.7c0-0.5-0.1-0.9-0.4-1.2
	c-0.3-0.3-0.7-0.4-1.3-0.4c-0.4,0-0.8,0.1-1.1,0.3c-0.3,0.2-0.5,0.5-0.7,0.8l-0.7-0.6c0.2-0.4,0.5-0.7,0.9-1s1-0.4,1.6-0.4
	c0.9,0,1.6,0.2,2,0.6c0.5,0.4,0.7,1,0.7,1.8v4h0.8v1h-0.4V101z M275.9,100.2c0.3,0,0.5,0,0.8-0.1s0.4-0.2,0.6-0.3
	c0.2-0.1,0.3-0.3,0.4-0.4c0.1-0.2,0.1-0.3,0.1-0.5v-1.2h-1.5c-0.6,0-1.1,0.1-1.4,0.3c-0.3,0.2-0.4,0.5-0.4,0.8v0.3
	c0,0.4,0.1,0.6,0.4,0.8C275.1,100.1,275.4,100.2,275.9,100.2z"/>
<path d="M281.3,101v-7.2h1.1V95h0.1c0.2-0.4,0.4-0.7,0.7-1c0.3-0.2,0.8-0.4,1.3-0.4c0.7,0,1.3,0.2,1.8,0.7c0.4,0.5,0.7,1.2,0.7,2
	v4.6h-1.1v-4.4c0-1.3-0.5-2-1.6-2c-0.2,0-0.4,0-0.7,0.1c-0.2,0.1-0.4,0.1-0.6,0.3s-0.3,0.3-0.4,0.4c-0.1,0.2-0.1,0.4-0.1,0.6v5h-1.2
	V101z"/>
<path d="M295.3,101.8c0,0.7-0.3,1.3-0.9,1.6c-0.6,0.3-1.5,0.5-2.6,0.5s-1.9-0.2-2.4-0.5s-0.7-0.7-0.7-1.3c0-0.4,0.1-0.7,0.3-0.9
	c0.2-0.2,0.5-0.4,0.8-0.5v-0.2c-0.4-0.2-0.6-0.5-0.6-1c0-0.4,0.1-0.6,0.4-0.8c0.2-0.2,0.5-0.3,0.9-0.4v-0.1c-0.4-0.2-0.8-0.5-1-0.9
	s-0.4-0.8-0.4-1.3c0-0.4,0.1-0.7,0.2-1s0.3-0.6,0.6-0.8c0.2-0.2,0.5-0.4,0.9-0.5s0.7-0.2,1.1-0.2c0.5,0,1,0.1,1.4,0.3v-0.1
	c0-0.3,0.1-0.5,0.2-0.7s0.3-0.3,0.6-0.3h1.1v1h-1.4v0.5c0.3,0.2,0.5,0.5,0.6,0.8s0.2,0.7,0.2,1.1s-0.1,0.7-0.2,1s-0.3,0.6-0.6,0.8
	c-0.2,0.2-0.5,0.4-0.9,0.5c-0.3,0.1-0.7,0.2-1.1,0.2c-0.2,0-0.5,0-0.7-0.1c-0.2,0.1-0.5,0.2-0.7,0.3c-0.2,0.1-0.3,0.3-0.3,0.5
	s0.1,0.4,0.3,0.4s0.5,0.1,0.8,0.1h1.5c0.9,0,1.5,0.2,2,0.5S295.3,101.2,295.3,101.8z M294.3,101.9c0-0.3-0.1-0.5-0.3-0.7
	c-0.2-0.2-0.6-0.3-1.2-0.3h-2.4c-0.4,0.2-0.7,0.5-0.7,1c0,0.3,0.1,0.6,0.4,0.8c0.2,0.2,0.6,0.3,1.2,0.3h1c0.6,0,1.1-0.1,1.5-0.3
	C294.1,102.6,294.3,102.3,294.3,101.9z M291.8,97.7c0.5,0,0.9-0.1,1.1-0.3c0.3-0.2,0.4-0.6,0.4-1.1v-0.4c0-0.5-0.1-0.8-0.4-1.1
	c-0.3-0.2-0.7-0.3-1.1-0.3c-0.5,0-0.9,0.1-1.1,0.3c-0.3,0.2-0.4,0.6-0.4,1.1v0.4c0,0.5,0.1,0.8,0.4,1.1
	C290.9,97.6,291.3,97.7,291.8,97.7z"/>
<path d="M299.3,101.2c-0.5,0-0.9-0.1-1.3-0.3s-0.7-0.4-1-0.8c-0.3-0.3-0.5-0.7-0.7-1.2s-0.2-1-0.2-1.6s0.1-1.1,0.2-1.6
	c0.2-0.5,0.4-0.9,0.7-1.2c0.3-0.3,0.6-0.6,1-0.8s0.8-0.3,1.3-0.3s0.9,0.1,1.3,0.3s0.7,0.4,1,0.7c0.3,0.3,0.5,0.7,0.6,1.1
	s0.2,0.9,0.2,1.4v0.5h-5.2V98c0,0.3,0,0.6,0.1,0.9s0.2,0.5,0.4,0.7c0.2,0.2,0.4,0.4,0.7,0.5c0.3,0.1,0.6,0.2,0.9,0.2
	c0.5,0,0.9-0.1,1.2-0.3s0.6-0.5,0.8-0.9l0.8,0.6c-0.2,0.5-0.6,0.9-1.1,1.2C300.6,101,300,101.2,299.3,101.2z M299.3,94.5
	c-0.3,0-0.6,0.1-0.8,0.2c-0.3,0.1-0.5,0.3-0.7,0.5s-0.3,0.4-0.4,0.7c-0.1,0.3-0.2,0.6-0.2,0.9v0.1h4v-0.2c0-0.6-0.2-1.2-0.5-1.5
	C300.3,94.7,299.9,94.5,299.3,94.5z"/>
<path d="M258.5,117.8h-1.2V108h3.9c0.9,0,1.5,0.2,2,0.7s0.7,1.2,0.7,2.1c0,0.7-0.2,1.3-0.5,1.8s-0.8,0.8-1.5,0.9l2.2,4.3h-1.3
	l-2.1-4.2h-2.3L258.5,117.8L258.5,117.8z M261.2,112.6c0.5,0,0.8-0.1,1.1-0.4s0.4-0.6,0.4-1v-0.7c0-0.4-0.1-0.8-0.4-1
	s-0.6-0.4-1.1-0.4h-2.7v3.5H261.2z"/>
<path d="M268.7,118c-0.5,0-0.9-0.1-1.3-0.3s-0.7-0.4-1-0.8c-0.3-0.3-0.5-0.7-0.7-1.2s-0.2-1-0.2-1.6s0.1-1.1,0.2-1.6
	c0.2-0.5,0.4-0.9,0.7-1.2c0.3-0.3,0.6-0.6,1-0.8s0.8-0.3,1.3-0.3s0.9,0.1,1.3,0.3s0.7,0.4,1,0.7c0.3,0.3,0.5,0.7,0.6,1.1
	s0.2,0.9,0.2,1.4v0.5h-5.2v0.3c0,0.3,0,0.6,0.1,0.9s0.2,0.5,0.4,0.7c0.2,0.2,0.4,0.4,0.7,0.5c0.3,0.1,0.6,0.2,0.9,0.2
	c0.5,0,0.9-0.1,1.2-0.3s0.6-0.5,0.8-0.9l0.8,0.6c-0.2,0.5-0.6,0.9-1.1,1.2C269.9,117.8,269.3,118,268.7,118z M268.7,111.3
	c-0.3,0-0.6,0.1-0.8,0.2c-0.3,0.1-0.5,0.3-0.7,0.5s-0.3,0.4-0.4,0.7c-0.1,0.3-0.2,0.6-0.2,0.9v0.1h4v-0.2c0-0.6-0.2-1.2-0.5-1.5
	C269.7,111.5,269.2,111.3,268.7,111.3z"/>
<path d="M278.2,116.6L278.2,116.6c-0.5,0.9-1.2,1.3-2.2,1.3c-0.4,0-0.9-0.1-1.2-0.3s-0.7-0.4-0.9-0.8c-0.3-0.3-0.5-0.7-0.6-1.2
	s-0.2-1-0.2-1.6s0.1-1.1,0.2-1.6s0.3-0.9,0.6-1.2c0.3-0.3,0.6-0.6,0.9-0.8s0.8-0.3,1.2-0.3c0.5,0,0.9,0.1,1.3,0.3
	c0.4,0.2,0.6,0.6,0.8,1h0.1v-1.2h1.1v10h-1.1L278.2,116.6L278.2,116.6z M276.4,117c0.3,0,0.5,0,0.7-0.1s0.4-0.2,0.6-0.3
	s0.3-0.3,0.4-0.5s0.1-0.4,0.1-0.6v-2.7c0-0.2,0-0.4-0.1-0.6s-0.2-0.3-0.4-0.4s-0.4-0.2-0.6-0.3c-0.2-0.1-0.5-0.1-0.7-0.1
	c-0.6,0-1.1,0.2-1.5,0.6s-0.5,0.9-0.5,1.6v1.2c0,0.6,0.2,1.2,0.5,1.6C275.2,116.8,275.7,117,276.4,117z"/>
<path d="M286.2,116.6L286.2,116.6c-0.1,0.2-0.2,0.3-0.3,0.5s-0.2,0.3-0.4,0.4c-0.2,0.1-0.3,0.2-0.6,0.3c-0.2,0.1-0.5,0.1-0.8,0.1
	c-0.7,0-1.3-0.2-1.8-0.7c-0.4-0.5-0.7-1.2-0.7-2v-4.6h1.1v4.4c0,1.3,0.6,2,1.7,2c0.2,0,0.4,0,0.7-0.1s0.4-0.1,0.6-0.3
	c0.2-0.1,0.3-0.3,0.4-0.4c0.1-0.2,0.1-0.4,0.1-0.6v-5h1.1v7.2h-1.1L286.2,116.6L286.2,116.6z"/>
<path d="M292.4,118c-0.5,0-0.9-0.1-1.3-0.3s-0.7-0.4-1-0.8c-0.3-0.3-0.5-0.7-0.7-1.2s-0.2-1-0.2-1.6s0.1-1.1,0.2-1.6
	c0.2-0.5,0.4-0.9,0.7-1.2c0.3-0.3,0.6-0.6,1-0.8s0.8-0.3,1.3-0.3s0.9,0.1,1.3,0.3s0.7,0.4,1,0.7c0.3,0.3,0.5,0.7,0.6,1.1
	s0.2,0.9,0.2,1.4v0.5h-5.2v0.3c0,0.3,0,0.6,0.1,0.9s0.2,0.5,0.4,0.7c0.2,0.2,0.4,0.4,0.7,0.5c0.3,0.1,0.6,0.2,0.9,0.2
	c0.5,0,0.9-0.1,1.2-0.3s0.6-0.5,0.8-0.9l0.8,0.6c-0.2,0.5-0.6,0.9-1.1,1.2C293.7,117.8,293.1,118,292.4,118z M292.4,111.3
	c-0.3,0-0.6,0.1-0.8,0.2c-0.3,0.1-0.5,0.3-0.7,0.5s-0.3,0.4-0.4,0.7c-0.1,0.3-0.2,0.6-0.2,0.9v0.1h4v-0.2c0-0.6-0.2-1.2-0.5-1.5
	C293.5,111.5,293,111.3,292.4,111.3z"/>
<path d="M299.5,118c-0.7,0-1.2-0.1-1.7-0.4s-0.8-0.6-1.2-1l0.8-0.6c0.3,0.4,0.6,0.6,0.9,0.8c0.3,0.2,0.7,0.3,1.2,0.3
	s0.8-0.1,1.1-0.3c0.3-0.2,0.4-0.5,0.4-0.9c0-0.3-0.1-0.5-0.3-0.7c-0.2-0.2-0.5-0.3-1-0.4l-0.6-0.1c-0.3,0-0.6-0.1-0.9-0.2
	s-0.5-0.2-0.7-0.4c-0.2-0.2-0.4-0.4-0.5-0.6s-0.2-0.5-0.2-0.9s0.1-0.7,0.2-0.9c0.1-0.3,0.3-0.5,0.5-0.7s0.5-0.3,0.8-0.4
	s0.7-0.1,1-0.1c0.6,0,1.1,0.1,1.5,0.3c0.4,0.2,0.7,0.5,1,0.9l-0.7,0.7c-0.2-0.2-0.4-0.4-0.7-0.6s-0.7-0.3-1.2-0.3s-0.8,0.1-1.1,0.3
	c-0.2,0.2-0.4,0.5-0.4,0.8c0,0.4,0.1,0.6,0.4,0.8s0.6,0.3,1,0.3l0.6,0.1c0.8,0.1,1.4,0.4,1.7,0.7s0.5,0.8,0.5,1.3
	c0,0.7-0.2,1.3-0.7,1.7C301,117.8,300.4,118,299.5,118z"/>
<path d="M305.7,117.8c-0.4,0-0.7-0.1-0.9-0.3c-0.2-0.2-0.3-0.5-0.3-0.9v-5h-1.2v-1h0.7c0.2,0,0.4,0,0.5-0.1s0.1-0.3,0.1-0.5v-1.3h1
	v2h1.6v1h-1.6v5.2h1.5v1L305.7,117.8L305.7,117.8z"/>
<polygon points="260.6,125.9 260.6,134.6 259.4,134.6 259.4,125.9 256.3,125.9 256.3,124.8 263.7,124.8 263.7,125.9 "/>
<path d="M267,134.8c-0.5,0-0.9-0.1-1.3-0.3s-0.7-0.4-1-0.8c-0.3-0.3-0.5-0.7-0.7-1.2s-0.2-1-0.2-1.6s0.1-1.1,0.2-1.6
	c0.2-0.5,0.4-0.9,0.7-1.2c0.3-0.3,0.6-0.6,1-0.8s0.8-0.3,1.3-0.3s0.9,0.1,1.3,0.3c0.4,0.2,0.7,0.4,1,0.8c0.3,0.3,0.5,0.7,0.7,1.2
	s0.2,1,0.2,1.6s-0.1,1.1-0.2,1.6c-0.2,0.5-0.4,0.9-0.7,1.2c-0.3,0.3-0.6,0.6-1,0.8S267.5,134.8,267,134.8z M267,133.8
	c0.6,0,1.1-0.2,1.5-0.6c0.4-0.4,0.6-0.9,0.6-1.7v-1c0-0.8-0.2-1.3-0.6-1.7s-0.9-0.6-1.5-0.6s-1.1,0.2-1.5,0.6s-0.6,0.9-0.6,1.7v1
	c0,0.8,0.2,1.3,0.6,1.7C265.9,133.6,266.4,133.8,267,133.8z"/>
<path d="M274.9,134.8c-0.5,0-0.9-0.1-1.3-0.3s-0.7-0.4-1-0.8c-0.3-0.3-0.5-0.7-0.7-1.2s-0.2-1-0.2-1.6s0.1-1.1,0.2-1.6
	c0.2-0.5,0.4-0.9,0.7-1.2c0.3-0.3,0.6-0.6,1-0.8s0.8-0.3,1.3-0.3s0.9,0.1,1.3,0.3c0.4,0.2,0.7,0.4,1,0.8c0.3,0.3,0.5,0.7,0.7,1.2
	s0.2,1,0.2,1.6s-0.1,1.1-0.2,1.6c-0.2,0.5-0.4,0.9-0.7,1.2c-0.3,0.3-0.6,0.6-1,0.8S275.3,134.8,274.9,134.8z M274.9,133.8
	c0.6,0,1.1-0.2,1.5-0.6c0.4-0.4,0.6-0.9,0.6-1.7v-1c0-0.8-0.2-1.3-0.6-1.7s-0.9-0.6-1.5-0.6s-1.1,0.2-1.5,0.6s-0.6,0.9-0.6,1.7v1
	c0,0.8,0.2,1.3,0.6,1.7C273.8,133.6,274.2,133.8,274.9,133.8z"/>
<path d="M281.2,134.6c-0.4,0-0.7-0.1-0.9-0.3c-0.2-0.2-0.3-0.5-0.3-0.8v-9.2h1.1v9.4h1.1v1L281.2,134.6L281.2,134.6z"/>
<circle class="st1" cx="283" cy="331" r="32"/>
<path class="st2" d="M283,363.5c-17.9,0-32.5-14.6-32.5-32.5s14.6-32.5,32.5-32.5s32.5,14.6,32.5,32.5S300.9,363.5,283,363.5z
	 M283,299.5c-17.4,0-31.5,14.1-31.5,31.5s14.1,31.5,31.5,31.5s31.5-14.1,31.5-31.5S300.4,299.5,283,299.5z"/>
<path d="M259.8,381.2c-0.8,0-1.5-0.2-2-0.5c-0.6-0.3-1-0.7-1.4-1.3l0.9-0.7c0.3,0.5,0.7,0.8,1.1,1s0.9,0.4,1.5,0.4
	c0.7,0,1.2-0.2,1.6-0.5s0.6-0.8,0.6-1.3s-0.1-0.8-0.4-1.1s-0.7-0.5-1.4-0.6l-0.8-0.2c-0.9-0.2-1.6-0.5-2.1-0.9s-0.7-1-0.7-1.8
	c0-0.4,0.1-0.8,0.2-1.1c0.2-0.3,0.4-0.6,0.7-0.8s0.6-0.4,1-0.5s0.8-0.2,1.3-0.2c0.7,0,1.4,0.1,1.9,0.4s1,0.7,1.3,1.2l-0.9,0.6
	c-0.3-0.4-0.6-0.7-1-0.9c-0.4-0.2-0.9-0.3-1.4-0.3c-0.6,0-1.1,0.1-1.5,0.4s-0.5,0.7-0.5,1.2s0.2,0.8,0.5,1.1
	c0.3,0.2,0.8,0.4,1.4,0.6l0.8,0.2c1,0.2,1.7,0.5,2.1,1c0.4,0.4,0.6,1,0.6,1.8c0,0.4-0.1,0.9-0.2,1.2c-0.2,0.4-0.4,0.7-0.7,0.9
	c-0.3,0.3-0.6,0.4-1.1,0.6S260.4,381.2,259.8,381.2z"/>
<path d="M267.8,381.2c-0.5,0-0.9-0.1-1.3-0.3s-0.7-0.4-1-0.8c-0.3-0.3-0.5-0.7-0.7-1.2s-0.2-1-0.2-1.6s0.1-1.1,0.2-1.6
	c0.2-0.5,0.4-0.9,0.7-1.2c0.3-0.3,0.6-0.6,1-0.8s0.8-0.3,1.3-0.3s0.9,0.1,1.3,0.3s0.7,0.4,1,0.7c0.3,0.3,0.5,0.7,0.6,1.1
	s0.2,0.9,0.2,1.4v0.5h-5.2v0.3c0,0.3,0,0.6,0.1,0.9s0.2,0.5,0.4,0.7c0.2,0.2,0.4,0.4,0.7,0.5c0.3,0.1,0.6,0.2,0.9,0.2
	c0.5,0,0.9-0.1,1.2-0.3s0.6-0.5,0.8-0.9l0.8,0.6c-0.2,0.5-0.6,0.9-1.1,1.2C269.1,381,268.5,381.2,267.8,381.2z M267.8,374.5
	c-0.3,0-0.6,0.1-0.8,0.2c-0.3,0.1-0.5,0.3-0.7,0.5s-0.3,0.4-0.4,0.7c-0.1,0.3-0.2,0.6-0.2,0.9v0.1h4v-0.2c0-0.6-0.2-1.2-0.5-1.5
	C268.9,374.7,268.4,374.5,267.8,374.5z"/>
<path d="M275.5,381.2c-0.5,0-1-0.1-1.4-0.3s-0.7-0.4-1-0.8s-0.5-0.7-0.6-1.2s-0.2-1-0.2-1.6s0.1-1.1,0.2-1.6s0.4-0.9,0.6-1.2
	c0.3-0.3,0.6-0.6,1-0.8s0.9-0.3,1.4-0.3c0.7,0,1.3,0.2,1.7,0.5c0.4,0.3,0.8,0.7,1,1.2l-0.9,0.5c-0.1-0.4-0.3-0.7-0.6-0.9
	c-0.3-0.2-0.7-0.3-1.1-0.3c-0.3,0-0.6,0.1-0.9,0.2s-0.5,0.3-0.6,0.4c-0.2,0.2-0.3,0.4-0.4,0.7s-0.1,0.6-0.1,0.9v1.2
	c0,0.6,0.2,1.2,0.5,1.6s0.8,0.6,1.5,0.6c0.9,0,1.6-0.4,2-1.3l0.8,0.5c-0.2,0.5-0.6,0.9-1,1.2S276.2,381.2,275.5,381.2z"/>
<path d="M279.8,381v-7.2h1.1v1.3h0.1c0.1-0.3,0.4-0.7,0.7-0.9s0.8-0.4,1.4-0.4h0.4v1.1h-0.7c-0.6,0-1.1,0.1-1.4,0.3
	c-0.3,0.2-0.5,0.5-0.5,0.9v4.9L279.8,381L279.8,381z"/>
<path d="M287.6,381.2c-0.5,0-0.9-0.1-1.3-0.3s-0.7-0.4-1-0.8c-0.3-0.3-0.5-0.7-0.7-1.2s-0.2-1-0.2-1.6s0.1-1.1,0.2-1.6
	c0.2-0.5,0.4-0.9,0.7-1.2c0.3-0.3,0.6-0.6,1-0.8s0.8-0.3,1.3-0.3s0.9,0.1,1.3,0.3s0.7,0.4,1,0.7c0.3,0.3,0.5,0.7,0.6,1.1
	s0.2,0.9,0.2,1.4v0.5h-5.2v0.3c0,0.3,0,0.6,0.1,0.9s0.2,0.5,0.4,0.7c0.2,0.2,0.4,0.4,0.7,0.5c0.3,0.1,0.6,0.2,0.9,0.2
	c0.5,0,0.9-0.1,1.2-0.3s0.6-0.5,0.8-0.9l0.8,0.6c-0.2,0.5-0.6,0.9-1.1,1.2C288.9,381,288.3,381.2,287.6,381.2z M287.6,374.5
	c-0.3,0-0.6,0.1-0.8,0.2c-0.3,0.1-0.5,0.3-0.7,0.5s-0.3,0.4-0.4,0.7c-0.1,0.3-0.2,0.6-0.2,0.9v0.1h4v-0.2c0-0.6-0.2-1.2-0.5-1.5
	C288.7,374.7,288.2,374.5,287.6,374.5z"/>
<path d="M294.2,381c-0.4,0-0.7-0.1-0.9-0.3c-0.2-0.2-0.3-0.5-0.3-0.9v-5h-1.2v-1h0.7c0.2,0,0.4,0,0.5-0.1s0.1-0.3,0.1-0.5v-1.3h1v2
	h1.6v1h-1.6v5.2h1.5v1h-1.4V381z"/>
<path d="M299.7,381.2c-0.7,0-1.2-0.1-1.7-0.4s-0.8-0.6-1.2-1l0.8-0.6c0.3,0.4,0.6,0.6,0.9,0.8c0.3,0.2,0.7,0.3,1.2,0.3
	s0.8-0.1,1.1-0.3c0.3-0.2,0.4-0.5,0.4-0.9c0-0.3-0.1-0.5-0.3-0.7c-0.2-0.2-0.5-0.3-1-0.4l-0.6-0.1c-0.3,0-0.6-0.1-0.9-0.2
	s-0.5-0.2-0.7-0.4c-0.2-0.2-0.4-0.4-0.5-0.6s-0.2-0.5-0.2-0.9s0.1-0.7,0.2-0.9c0.1-0.3,0.3-0.5,0.5-0.7s0.5-0.3,0.8-0.4
	s0.7-0.1,1-0.1c0.6,0,1.1,0.1,1.5,0.3c0.4,0.2,0.7,0.5,1,0.9l-0.7,0.7c-0.2-0.2-0.4-0.4-0.7-0.6c-0.3-0.2-0.7-0.3-1.2-0.3
	s-0.8,0.1-1.1,0.3c-0.2,0.2-0.4,0.5-0.4,0.8c0,0.4,0.1,0.6,0.4,0.8c0.2,0.2,0.6,0.3,1,0.3l0.6,0.1c0.8,0.1,1.4,0.4,1.7,0.7
	c0.3,0.3,0.5,0.8,0.5,1.3c0,0.7-0.2,1.3-0.7,1.7C301.2,381,300.5,381.2,299.7,381.2z"/>
<polygon points="264.7,389.6 264.6,389.6 263.8,391.2 261.5,395.5 259.1,391.2 258.3,389.6 258.2,389.6 258.2,397.8 257.1,397.8 
	257.1,388 258.7,388 261.5,393.3 261.5,393.3 264.4,388 265.9,388 265.9,397.8 264.7,397.8 "/>
<path d="M273.6,397.8c-0.4,0-0.7-0.1-0.9-0.3c-0.2-0.2-0.3-0.5-0.3-0.8h-0.1c-0.2,0.4-0.4,0.8-0.8,1s-0.8,0.3-1.3,0.3
	c-0.8,0-1.4-0.2-1.8-0.6s-0.6-0.9-0.6-1.6s0.2-1.2,0.7-1.6s1.3-0.5,2.3-0.5h1.4V393c0-0.5-0.1-0.9-0.4-1.2c-0.3-0.3-0.7-0.4-1.3-0.4
	c-0.4,0-0.8,0.1-1.1,0.3c-0.3,0.2-0.5,0.5-0.7,0.8l-0.7-0.6c0.2-0.4,0.5-0.7,0.9-1s1-0.4,1.6-0.4c0.9,0,1.6,0.2,2,0.6
	c0.5,0.4,0.7,1,0.7,1.8v4h0.8v1L273.6,397.8L273.6,397.8z M270.4,397c0.3,0,0.5,0,0.8-0.1s0.4-0.2,0.6-0.3c0.2-0.1,0.3-0.3,0.4-0.4
	c0.1-0.2,0.1-0.3,0.1-0.5v-1.2h-1.5c-0.6,0-1.1,0.1-1.4,0.3c-0.3,0.2-0.4,0.5-0.4,0.8v0.3c0,0.4,0.1,0.6,0.4,0.8
	C269.6,396.9,269.9,397,270.4,397z"/>
<path d="M275.8,397.8v-7.2h1.1v1.2h0.1c0.2-0.4,0.4-0.7,0.7-1c0.3-0.2,0.8-0.4,1.3-0.4c0.7,0,1.3,0.2,1.8,0.7c0.4,0.5,0.7,1.2,0.7,2
	v4.6h-1.1v-4.4c0-1.3-0.5-2-1.6-2c-0.2,0-0.4,0-0.7,0.1c-0.2,0.1-0.4,0.1-0.6,0.3s-0.3,0.3-0.4,0.4c-0.1,0.2-0.1,0.4-0.1,0.6v5
	L275.8,397.8L275.8,397.8z"/>
<path d="M289,397.8c-0.4,0-0.7-0.1-0.9-0.3c-0.2-0.2-0.3-0.5-0.3-0.8h-0.1c-0.2,0.4-0.4,0.8-0.8,1s-0.8,0.3-1.3,0.3
	c-0.8,0-1.4-0.2-1.8-0.6s-0.6-0.9-0.6-1.6s0.2-1.2,0.7-1.6s1.3-0.5,2.3-0.5h1.4V393c0-0.5-0.1-0.9-0.4-1.2c-0.3-0.3-0.7-0.4-1.3-0.4
	c-0.4,0-0.8,0.1-1.1,0.3c-0.3,0.2-0.5,0.5-0.7,0.8l-0.7-0.6c0.2-0.4,0.5-0.7,0.9-1s1-0.4,1.6-0.4c0.9,0,1.6,0.2,2,0.6
	c0.5,0.4,0.7,1,0.7,1.8v4h0.8v1L289,397.8L289,397.8z M285.8,397c0.3,0,0.5,0,0.8-0.1s0.4-0.2,0.6-0.3c0.2-0.1,0.3-0.3,0.4-0.4
	c0.1-0.2,0.1-0.3,0.1-0.5v-1.2h-1.5c-0.6,0-1.1,0.1-1.4,0.3c-0.3,0.2-0.4,0.5-0.4,0.8v0.3c0,0.4,0.1,0.6,0.4,0.8
	C285,396.9,285.4,397,285.8,397z"/>
<path d="M297.3,398.6c0,0.7-0.3,1.3-0.9,1.6c-0.6,0.3-1.5,0.5-2.6,0.5s-1.9-0.2-2.4-0.5s-0.7-0.7-0.7-1.3c0-0.4,0.1-0.7,0.3-0.9
	c0.2-0.2,0.5-0.4,0.8-0.5v-0.2c-0.4-0.2-0.6-0.5-0.6-1c0-0.4,0.1-0.6,0.4-0.8c0.2-0.2,0.5-0.3,0.9-0.4V395c-0.4-0.2-0.8-0.5-1-0.9
	s-0.4-0.8-0.4-1.3c0-0.4,0.1-0.7,0.2-1s0.3-0.6,0.6-0.8c0.2-0.2,0.5-0.4,0.9-0.5s0.7-0.2,1.1-0.2c0.5,0,1,0.1,1.4,0.3v-0.1
	c0-0.3,0.1-0.5,0.2-0.7s0.3-0.3,0.6-0.3h1.1v1h-1.4v0.5c0.3,0.2,0.5,0.5,0.6,0.8s0.2,0.7,0.2,1.1s-0.1,0.7-0.2,1s-0.3,0.6-0.6,0.8
	c-0.2,0.2-0.5,0.4-0.9,0.5c-0.3,0.1-0.7,0.2-1.1,0.2c-0.2,0-0.5,0-0.7-0.1c-0.2,0.1-0.5,0.2-0.7,0.3c-0.2,0.1-0.3,0.3-0.3,0.5
	s0.1,0.4,0.3,0.4s0.5,0.1,0.8,0.1h1.5c0.9,0,1.5,0.2,2,0.5S297.3,398,297.3,398.6z M296.3,398.7c0-0.3-0.1-0.5-0.3-0.7
	c-0.2-0.2-0.6-0.3-1.2-0.3h-2.4c-0.4,0.2-0.7,0.5-0.7,1c0,0.3,0.1,0.6,0.4,0.8c0.2,0.2,0.6,0.3,1.2,0.3h1c0.6,0,1.1-0.1,1.5-0.3
	C296.1,399.4,296.3,399.1,296.3,398.7z M293.8,394.5c0.5,0,0.9-0.1,1.1-0.3c0.3-0.2,0.4-0.6,0.4-1.1v-0.4c0-0.5-0.1-0.8-0.4-1.1
	c-0.3-0.2-0.7-0.3-1.1-0.3c-0.5,0-0.9,0.1-1.1,0.3c-0.3,0.2-0.4,0.6-0.4,1.1v0.4c0,0.5,0.1,0.8,0.4,1.1
	C292.9,394.4,293.3,394.5,293.8,394.5z"/>
<path d="M301.3,398c-0.5,0-0.9-0.1-1.3-0.3c-0.4-0.2-0.7-0.4-1-0.8c-0.3-0.3-0.5-0.7-0.7-1.2s-0.2-1-0.2-1.6s0.1-1.1,0.2-1.6
	s0.4-0.9,0.7-1.2c0.3-0.3,0.6-0.6,1-0.8c0.4-0.2,0.8-0.3,1.3-0.3s0.9,0.1,1.3,0.3s0.7,0.4,1,0.7c0.3,0.3,0.5,0.7,0.6,1.1
	s0.2,0.9,0.2,1.4v0.5h-5.2v0.3c0,0.3,0,0.6,0.1,0.9s0.2,0.5,0.4,0.7c0.2,0.2,0.4,0.4,0.7,0.5c0.3,0.1,0.6,0.2,0.9,0.2
	c0.5,0,0.9-0.1,1.2-0.3s0.6-0.5,0.8-0.9l0.8,0.6c-0.2,0.5-0.6,0.9-1.1,1.2C302.6,397.8,302,398,301.3,398z M301.3,391.3
	c-0.3,0-0.6,0.1-0.8,0.2c-0.3,0.1-0.5,0.3-0.7,0.5s-0.3,0.4-0.4,0.7c-0.1,0.3-0.2,0.6-0.2,0.9v0.1h4v-0.2c0-0.6-0.2-1.2-0.5-1.5
	C302.3,391.5,301.9,391.3,301.3,391.3z"/>
<path d="M306.3,397.8v-7.2h1.1v1.3h0.1c0.1-0.3,0.4-0.7,0.7-0.9s0.8-0.4,1.4-0.4h0.4v1.1h-0.7c-0.6,0-1.1,0.1-1.4,0.3
	c-0.3,0.2-0.5,0.5-0.5,0.9v4.9L306.3,397.8L306.3,397.8z"/>
<circle class="st1" cx="65.8" cy="331" r="32"/>
<path class="st2" d="M65.8,363.5c-17.9,0-32.5-14.6-32.5-32.5s14.6-32.5,32.5-32.5s32.5,14.6,32.5,32.5S83.7,363.5,65.8,363.5z
	 M65.8,299.5c-17.4,0-31.5,14.1-31.5,31.5s14.1,31.5,31.5,31.5s31.5-14.1,31.5-31.5S83.1,299.5,65.8,299.5z"/>
<path d="M46.5,380l-1-2.9h-3.9l-1,2.9h-1.2l3.4-9.8h1.5l3.4,9.8H46.5z M43.6,371.3L43.6,371.3l-1.7,4.8h3.4L43.6,371.3z"/>
<path d="M49.3,380v-7.2h1.1v1.3h0.1c0.1-0.3,0.4-0.7,0.7-0.9s0.8-0.4,1.4-0.4H53v1.1h-0.7c-0.6,0-1.1,0.1-1.4,0.3
	c-0.3,0.2-0.5,0.5-0.5,0.9v4.9L49.3,380L49.3,380z"/>
<path d="M56,380c-0.4,0-0.7-0.1-0.9-0.3c-0.2-0.2-0.3-0.5-0.3-0.9v-5h-1.2v-1h0.7c0.2,0,0.4,0,0.5-0.1s0.1-0.3,0.1-0.5v-1.3h1v2h1.6
	v1H56v5.2h1.5v1H56V380z"/>
<path d="M59.9,371.1c-0.2,0-0.4-0.1-0.5-0.2s-0.2-0.3-0.2-0.5v-0.2c0-0.2,0.1-0.3,0.2-0.5c0.1-0.1,0.3-0.2,0.5-0.2s0.4,0.1,0.5,0.2
	s0.2,0.3,0.2,0.5v0.2c0,0.2-0.1,0.3-0.2,0.5S60.2,371.1,59.9,371.1z M59.4,372.8h1.1v7.2h-1.1V372.8z"/>
<path d="M63.3,373.8h-1.2v-1h1.2v-1.5c0-0.5,0.1-0.9,0.4-1.2c0.3-0.3,0.7-0.5,1.2-0.5H66v1h-1.6v2.1H66v1h-1.6v6.2h-1.1
	C63.3,379.9,63.3,373.8,63.3,373.8z"/>
<path d="M72.6,380c-0.4,0-0.7-0.1-0.9-0.3c-0.2-0.2-0.3-0.5-0.3-0.8h-0.1c-0.2,0.4-0.4,0.8-0.8,1s-0.8,0.3-1.3,0.3
	c-0.8,0-1.4-0.2-1.8-0.6s-0.6-0.9-0.6-1.6s0.2-1.2,0.7-1.6s1.3-0.5,2.3-0.5h1.4v-0.7c0-0.5-0.1-0.9-0.4-1.2
	c-0.3-0.3-0.7-0.4-1.3-0.4c-0.4,0-0.8,0.1-1.1,0.3c-0.3,0.2-0.5,0.5-0.7,0.8l-0.7-0.6c0.2-0.4,0.5-0.7,0.9-1s1-0.4,1.6-0.4
	c0.9,0,1.6,0.2,2,0.6c0.5,0.4,0.7,1,0.7,1.8v4H73v1L72.6,380L72.6,380z M69.4,379.2c0.3,0,0.5,0,0.8-0.1s0.4-0.2,0.6-0.3
	c0.2-0.1,0.3-0.3,0.4-0.4c0.1-0.2,0.1-0.3,0.1-0.5v-1.2h-1.5c-0.6,0-1.1,0.1-1.4,0.3c-0.3,0.2-0.4,0.5-0.4,0.8v0.3
	c0,0.4,0.1,0.6,0.4,0.8C68.6,379.1,69,379.2,69.4,379.2z"/>
<path d="M77.6,380.2c-0.5,0-1-0.1-1.4-0.3s-0.7-0.4-1-0.8s-0.5-0.7-0.6-1.2s-0.2-1-0.2-1.6s0.1-1.1,0.2-1.6s0.4-0.9,0.6-1.2
	c0.3-0.3,0.6-0.6,1-0.8s0.9-0.3,1.4-0.3c0.7,0,1.3,0.2,1.7,0.5c0.4,0.3,0.8,0.7,1,1.2l-0.9,0.5c-0.1-0.4-0.3-0.7-0.6-0.9
	c-0.3-0.2-0.7-0.3-1.1-0.3c-0.3,0-0.6,0.1-0.9,0.2s-0.5,0.3-0.6,0.4c-0.2,0.2-0.3,0.4-0.4,0.7s-0.1,0.6-0.1,0.9v1.2
	c0,0.6,0.2,1.2,0.5,1.6s0.8,0.6,1.5,0.6c0.9,0,1.6-0.4,2-1.3l0.8,0.5c-0.2,0.5-0.6,0.9-1,1.2S78.2,380.2,77.6,380.2z"/>
<path d="M83.5,380c-0.4,0-0.7-0.1-0.9-0.3c-0.2-0.2-0.3-0.5-0.3-0.9v-5h-1.2v-1h0.7c0.2,0,0.4,0,0.5-0.1s0.1-0.3,0.1-0.5v-1.3h1v2
	H85v1h-1.6v5.2h1.5v1h-1.4V380z"/>
<path d="M89,380.2c-0.7,0-1.2-0.1-1.7-0.4s-0.8-0.6-1.2-1l0.8-0.6c0.3,0.4,0.6,0.6,0.9,0.8c0.3,0.2,0.7,0.3,1.2,0.3s0.8-0.1,1.1-0.3
	c0.3-0.2,0.4-0.5,0.4-0.9c0-0.3-0.1-0.5-0.3-0.7c-0.2-0.2-0.5-0.3-1-0.4l-0.6-0.1c-0.3,0-0.6-0.1-0.9-0.2s-0.5-0.2-0.7-0.4
	c-0.2-0.2-0.4-0.4-0.5-0.6s-0.2-0.5-0.2-0.9s0.1-0.7,0.2-0.9c0.1-0.3,0.3-0.5,0.5-0.7s0.5-0.3,0.8-0.4s0.7-0.1,1-0.1
	c0.6,0,1.1,0.1,1.5,0.3c0.4,0.2,0.7,0.5,1,0.9l-0.7,0.7c-0.2-0.2-0.4-0.4-0.7-0.6s-0.7-0.3-1.2-0.3s-0.8,0.1-1.1,0.3
	c-0.2,0.2-0.4,0.5-0.4,0.8c0,0.4,0.1,0.6,0.4,0.8s0.6,0.3,1,0.3l0.6,0.1c0.8,0.1,1.4,0.4,1.7,0.7s0.5,0.8,0.5,1.3
	c0,0.7-0.2,1.3-0.7,1.7C90.5,380,89.8,380.2,89,380.2z"/>
<path d="M169.8,91.2h3.3c0.6,0,1.2,0.1,1.7,0.3c0.5,0.2,0.9,0.5,1.3,0.9c0.3,0.4,0.6,0.9,0.8,1.5s0.3,1.3,0.3,2.1
	c0,0.8-0.1,1.5-0.3,2.1s-0.5,1.1-0.8,1.5c-0.4,0.4-0.8,0.7-1.3,0.9c-0.5,0.2-1,0.3-1.7,0.3h-3.3V91.2z M173.1,100
	c0.4,0,0.8-0.1,1.1-0.2s0.6-0.3,0.9-0.6c0.2-0.3,0.4-0.6,0.6-1c0.1-0.4,0.2-0.8,0.2-1.3v-1.6c0-0.5-0.1-0.9-0.2-1.3
	c-0.1-0.4-0.3-0.7-0.6-1c-0.2-0.3-0.5-0.5-0.9-0.6c-0.3-0.1-0.7-0.2-1.1-0.2H171v7.7L173.1,100L173.1,100z"/>
<path d="M181.8,101.2c-0.5,0-0.9-0.1-1.3-0.3c-0.4-0.2-0.7-0.4-1-0.8c-0.3-0.3-0.5-0.7-0.7-1.2s-0.2-1-0.2-1.6s0.1-1.1,0.2-1.6
	c0.2-0.5,0.4-0.9,0.7-1.2c0.3-0.3,0.6-0.6,1-0.8c0.4-0.2,0.8-0.3,1.3-0.3s0.9,0.1,1.3,0.3s0.7,0.4,1,0.7c0.3,0.3,0.5,0.7,0.6,1.1
	s0.2,0.9,0.2,1.4v0.5h-5.2V98c0,0.3,0,0.6,0.1,0.9s0.2,0.5,0.4,0.7s0.4,0.3,0.7,0.5s0.6,0.2,0.9,0.2c0.5,0,0.9-0.1,1.2-0.3
	s0.6-0.5,0.8-0.9l0.8,0.6c-0.2,0.5-0.6,0.9-1.1,1.2C183.1,101,182.5,101.2,181.8,101.2z M181.8,94.5c-0.3,0-0.6,0.1-0.8,0.2
	s-0.5,0.3-0.7,0.5s-0.3,0.4-0.4,0.7s-0.2,0.6-0.2,0.9v0.1h4v-0.2c0-0.6-0.2-1.2-0.5-1.5C182.9,94.7,182.4,94.5,181.8,94.5z"/>
<polygon points="188.3,101 185.7,93.8 186.9,93.8 188.1,97.4 188.9,99.8 189,99.8 189.8,97.4 191.1,93.8 192.1,93.8 189.6,101 "/>
<path d="M197.3,101.2c-0.6,0-1.2-0.1-1.7-0.3c-0.5-0.2-0.9-0.5-1.3-1s-0.6-1-0.8-1.6s-0.3-1.4-0.3-2.2c0-0.8,0.1-1.5,0.3-2.2
	c0.2-0.6,0.5-1.2,0.8-1.6c0.4-0.4,0.8-0.8,1.3-1s1.1-0.3,1.7-0.3c0.6,0,1.2,0.1,1.7,0.3c0.5,0.2,0.9,0.5,1.3,1
	c0.4,0.4,0.6,1,0.8,1.6s0.3,1.3,0.3,2.2c0,0.8-0.1,1.5-0.3,2.2s-0.5,1.2-0.8,1.6s-0.8,0.7-1.3,1C198.5,101.1,198,101.2,197.3,101.2z
	 M197.3,100.1c0.4,0,0.8-0.1,1.2-0.2c0.4-0.2,0.7-0.4,0.9-0.6c0.3-0.3,0.5-0.6,0.6-1s0.2-0.8,0.2-1.3v-1.6c0-0.5-0.1-0.9-0.2-1.3
	s-0.3-0.7-0.6-1s-0.6-0.5-0.9-0.6c-0.4-0.1-0.7-0.2-1.2-0.2s-0.8,0.1-1.2,0.2c-0.4,0.2-0.7,0.4-0.9,0.6s-0.5,0.6-0.6,1
	s-0.2,0.8-0.2,1.3V97c0,0.5,0.1,0.9,0.2,1.3c0.1,0.4,0.3,0.7,0.6,1s0.6,0.5,0.9,0.6C196.5,100.1,196.9,100.1,197.3,100.1z"/>
<path d="M203.5,93.8h1.1V95h0.1c0.2-0.5,0.5-0.8,0.8-1s0.8-0.3,1.3-0.3c0.4,0,0.9,0.1,1.2,0.3c0.4,0.2,0.7,0.4,0.9,0.8
	s0.5,0.7,0.6,1.2s0.2,1,0.2,1.6s-0.1,1.1-0.2,1.6c-0.1,0.5-0.3,0.9-0.6,1.2c-0.3,0.3-0.6,0.6-0.9,0.8c-0.4,0.2-0.8,0.3-1.2,0.3
	c-1,0-1.7-0.4-2.1-1.3h-0.1v4h-1.1V93.8z M206.5,100.2c0.6,0,1.1-0.2,1.5-0.6s0.5-0.9,0.5-1.6v-1.2c0-0.6-0.2-1.2-0.5-1.6
	c-0.4-0.4-0.9-0.6-1.5-0.6c-0.3,0-0.5,0-0.7,0.1s-0.4,0.2-0.6,0.3s-0.3,0.3-0.4,0.4c-0.1,0.2-0.1,0.4-0.1,0.6v2.7
	c0,0.2,0,0.4,0.1,0.6s0.2,0.3,0.4,0.5c0.2,0.1,0.4,0.2,0.6,0.3C206,100.1,206.2,100.2,206.5,100.2z"/>
<path d="M213.8,101.2c-0.7,0-1.2-0.1-1.7-0.4s-0.8-0.6-1.2-1l0.8-0.6c0.3,0.4,0.6,0.6,0.9,0.8c0.3,0.2,0.7,0.3,1.2,0.3
	s0.8-0.1,1.1-0.3c0.3-0.2,0.4-0.5,0.4-0.9c0-0.3-0.1-0.5-0.3-0.7s-0.5-0.3-1-0.4l-0.6-0.1c-0.3,0-0.6-0.1-0.9-0.2
	c-0.3-0.1-0.5-0.2-0.7-0.4s-0.4-0.4-0.5-0.6s-0.2-0.5-0.2-0.9s0.1-0.7,0.2-0.9s0.3-0.5,0.5-0.7s0.5-0.3,0.8-0.4s0.7-0.1,1-0.1
	c0.6,0,1.1,0.1,1.5,0.3c0.4,0.2,0.7,0.5,1,0.9l-0.7,0.7c-0.2-0.2-0.4-0.4-0.7-0.6s-0.7-0.3-1.2-0.3s-0.8,0.1-1.1,0.3
	c-0.2,0.2-0.4,0.5-0.4,0.8c0,0.4,0.1,0.6,0.4,0.8c0.2,0.2,0.6,0.3,1,0.3L214,97c0.8,0.1,1.4,0.4,1.7,0.7s0.5,0.8,0.5,1.3
	c0,0.7-0.2,1.3-0.7,1.7C215.3,101,214.6,101.2,213.8,101.2z"/>
<polygon points="169.4,117.8 169.4,116.8 170.7,116.8 170.7,109 169.4,109 169.4,108 173.3,108 173.3,109 171.9,109 171.9,116.8 
	173.3,116.8 173.3,117.8 "/>
<path d="M175.3,117.8v-7.2h1.1v1.2h0.1c0.2-0.4,0.4-0.7,0.7-1c0.3-0.2,0.8-0.4,1.3-0.4c0.7,0,1.3,0.2,1.8,0.7c0.4,0.5,0.7,1.2,0.7,2
	v4.6h-1.1v-4.4c0-1.3-0.5-2-1.6-2c-0.2,0-0.4,0-0.7,0.1c-0.2,0.1-0.4,0.1-0.6,0.3s-0.3,0.3-0.4,0.4c-0.1,0.2-0.1,0.4-0.1,0.6v5h-1.2
	V117.8z"/>
<path d="M185.4,118c-0.7,0-1.2-0.1-1.7-0.4s-0.8-0.6-1.2-1l0.8-0.6c0.3,0.4,0.6,0.6,0.9,0.8c0.3,0.2,0.7,0.3,1.2,0.3
	s0.8-0.1,1.1-0.3c0.3-0.2,0.4-0.5,0.4-0.9c0-0.3-0.1-0.5-0.3-0.7s-0.5-0.3-1-0.4l-0.6-0.1c-0.3,0-0.6-0.1-0.9-0.2
	c-0.3-0.1-0.5-0.2-0.7-0.4s-0.4-0.4-0.5-0.6s-0.2-0.5-0.2-0.9s0.1-0.7,0.2-0.9c0.1-0.3,0.3-0.5,0.5-0.7s0.5-0.3,0.8-0.4
	s0.7-0.1,1-0.1c0.6,0,1.1,0.1,1.5,0.3s0.7,0.5,1,0.9l-0.7,0.7c-0.2-0.2-0.4-0.4-0.7-0.6s-0.7-0.3-1.2-0.3s-0.8,0.1-1.1,0.3
	c-0.2,0.2-0.4,0.5-0.4,0.8c0,0.4,0.1,0.6,0.4,0.8c0.2,0.2,0.6,0.3,1,0.3l0.6,0.1c0.8,0.1,1.4,0.4,1.7,0.7c0.3,0.3,0.5,0.8,0.5,1.3
	c0,0.7-0.2,1.3-0.7,1.7C186.9,117.8,186.3,118,185.4,118z"/>
<path d="M190.6,108.9c-0.2,0-0.4-0.1-0.5-0.2s-0.2-0.3-0.2-0.5V108c0-0.2,0.1-0.3,0.2-0.5c0.1-0.1,0.3-0.2,0.5-0.2s0.4,0.1,0.5,0.2
	s0.2,0.3,0.2,0.5v0.2c0,0.2-0.1,0.3-0.2,0.5C191.1,108.8,190.9,108.9,190.6,108.9z M190.1,110.6h1.1v7.2h-1.1V110.6z"/>
<path d="M199.7,118.6c0,0.7-0.3,1.3-0.9,1.6s-1.5,0.5-2.6,0.5s-1.9-0.2-2.4-0.5s-0.7-0.7-0.7-1.3c0-0.4,0.1-0.7,0.3-0.9
	c0.2-0.2,0.5-0.4,0.8-0.5v-0.2c-0.4-0.2-0.6-0.5-0.6-1c0-0.4,0.1-0.6,0.3-0.8s0.5-0.3,0.9-0.4V115c-0.4-0.2-0.8-0.5-1-0.9
	s-0.4-0.8-0.4-1.3c0-0.4,0.1-0.7,0.2-1c0.1-0.3,0.3-0.6,0.6-0.8c0.2-0.2,0.5-0.4,0.9-0.5c0.3-0.1,0.7-0.2,1.1-0.2
	c0.5,0,1,0.1,1.4,0.3v-0.1c0-0.3,0.1-0.5,0.2-0.7s0.3-0.3,0.6-0.3h1.1v1H198v0.5c0.3,0.2,0.5,0.5,0.6,0.8s0.2,0.7,0.2,1.1
	s-0.1,0.7-0.2,1s-0.3,0.6-0.6,0.8c-0.2,0.2-0.5,0.4-0.9,0.5c-0.3,0.1-0.7,0.2-1.1,0.2c-0.2,0-0.5,0-0.7-0.1
	c-0.2,0.1-0.5,0.2-0.7,0.3c-0.2,0.1-0.3,0.3-0.3,0.5s0.1,0.4,0.3,0.4c0.2,0.1,0.5,0.1,0.8,0.1h1.5c0.9,0,1.5,0.2,2,0.5
	C199.5,117.5,199.7,118,199.7,118.6z M198.6,118.7c0-0.3-0.1-0.5-0.3-0.7s-0.6-0.3-1.2-0.3h-2.4c-0.4,0.2-0.7,0.5-0.7,1
	c0,0.3,0.1,0.6,0.4,0.8c0.2,0.2,0.6,0.3,1.2,0.3h1c0.6,0,1.1-0.1,1.5-0.3C198.5,119.4,198.6,119.1,198.6,118.7z M196.1,114.5
	c0.5,0,0.9-0.1,1.1-0.3s0.4-0.6,0.4-1.1v-0.4c0-0.5-0.1-0.8-0.4-1.1c-0.3-0.2-0.7-0.3-1.1-0.3c-0.5,0-0.9,0.1-1.1,0.3
	c-0.3,0.2-0.4,0.6-0.4,1.1v0.4c0,0.5,0.1,0.8,0.4,1.1C195.3,114.4,195.6,114.5,196.1,114.5z"/>
<path d="M201,107.4h1.1v4.3h0.1c0.2-0.4,0.4-0.7,0.7-1c0.3-0.2,0.8-0.4,1.3-0.4c0.7,0,1.3,0.2,1.8,0.7c0.4,0.5,0.7,1.2,0.7,2v4.6
	h-1.1v-4.4c0-1.3-0.5-2-1.6-2c-0.2,0-0.4,0-0.7,0.1c-0.2,0.1-0.4,0.1-0.6,0.3s-0.3,0.3-0.4,0.4c-0.1,0.2-0.1,0.4-0.1,0.6v5H201
	V107.4z"/>
<path d="M210.5,117.8c-0.4,0-0.7-0.1-0.9-0.3c-0.2-0.2-0.3-0.5-0.3-0.9v-5h-1.2v-1h0.7c0.2,0,0.4,0,0.5-0.1s0.1-0.3,0.1-0.5v-1.3h1
	v2h1.6v1h-1.6v5.2h1.5v1L210.5,117.8L210.5,117.8z"/>
<path d="M216,118c-0.7,0-1.2-0.1-1.7-0.4s-0.8-0.6-1.2-1l0.8-0.6c0.3,0.4,0.6,0.6,0.9,0.8c0.3,0.2,0.7,0.3,1.2,0.3s0.8-0.1,1.1-0.3
	c0.3-0.2,0.4-0.5,0.4-0.9c0-0.3-0.1-0.5-0.3-0.7s-0.5-0.3-1-0.4l-0.6-0.1c-0.3,0-0.6-0.1-0.9-0.2c-0.3-0.1-0.5-0.2-0.7-0.4
	s-0.4-0.4-0.5-0.6s-0.2-0.5-0.2-0.9s0.1-0.7,0.2-0.9c0.1-0.3,0.3-0.5,0.5-0.7s0.5-0.3,0.8-0.4s0.7-0.1,1-0.1c0.6,0,1.1,0.1,1.5,0.3
	s0.7,0.5,1,0.9l-0.7,0.7c-0.2-0.2-0.4-0.4-0.7-0.6s-0.7-0.3-1.2-0.3s-0.8,0.1-1.1,0.3c-0.2,0.2-0.4,0.5-0.4,0.8
	c0,0.4,0.1,0.6,0.4,0.8c0.2,0.2,0.6,0.3,1,0.3l0.6,0.1c0.8,0.1,1.4,0.4,1.7,0.7c0.3,0.3,0.5,0.8,0.5,1.3c0,0.7-0.2,1.3-0.7,1.7
	C217.5,117.8,216.8,118,216,118z"/>
<ellipse class="st1" cx="412.3" cy="190.5" rx="32" ry="31.5"/>
<path class="st2" d="M412.3,222.5c-17.9,0-32.5-14.4-32.5-32s14.6-32,32.5-32s32.5,14.4,32.5,32S430.2,222.5,412.3,222.5z
	 M412.3,159.5c-17.4,0-31.5,13.9-31.5,31s14.1,31,31.5,31s31.5-13.9,31.5-31S429.6,159.5,412.3,159.5z"/>
<polygon points="376.8,231.3 376.8,240 375.7,240 375.7,231.3 372.6,231.3 372.6,230.2 379.9,230.2 379.9,231.3 "/>
<path d="M385.7,240c-0.4,0-0.7-0.1-0.9-0.3c-0.2-0.2-0.3-0.5-0.3-0.8h-0.1c-0.2,0.4-0.4,0.8-0.8,1s-0.8,0.3-1.3,0.3
	c-0.8,0-1.4-0.2-1.8-0.6s-0.6-0.9-0.6-1.6c0-0.7,0.2-1.2,0.7-1.6c0.5-0.4,1.3-0.5,2.3-0.5h1.4v-0.7c0-0.5-0.1-0.9-0.4-1.2
	s-0.7-0.4-1.3-0.4c-0.4,0-0.8,0.1-1.1,0.3c-0.3,0.2-0.5,0.5-0.7,0.8l-0.7-0.6c0.2-0.4,0.5-0.7,0.9-1s1-0.4,1.6-0.4
	c0.9,0,1.6,0.2,2,0.6c0.5,0.4,0.7,1,0.7,1.8v4h0.8v1h-0.4V240z M382.5,239.2c0.3,0,0.5,0,0.8-0.1s0.4-0.2,0.6-0.3s0.3-0.3,0.4-0.4
	c0.1-0.2,0.1-0.3,0.1-0.5v-1.2h-1.5c-0.6,0-1.1,0.1-1.4,0.3s-0.4,0.5-0.4,0.8v0.3c0,0.4,0.1,0.6,0.4,0.8
	C381.7,239.1,382.1,239.2,382.5,239.2z"/>
<path d="M387.9,240v-7.2h1.1v1.3h0.1c0.1-0.3,0.4-0.7,0.7-0.9s0.8-0.4,1.4-0.4h0.4v1.1H391c-0.6,0-1.1,0.1-1.4,0.3s-0.5,0.5-0.5,0.9
	v4.9L387.9,240L387.9,240z"/>
<path d="M398.8,240.8c0,0.7-0.3,1.3-0.9,1.6s-1.5,0.5-2.6,0.5s-1.9-0.2-2.4-0.5s-0.7-0.7-0.7-1.3c0-0.4,0.1-0.7,0.3-0.9
	c0.2-0.2,0.5-0.4,0.8-0.5v-0.2c-0.4-0.2-0.6-0.5-0.6-1c0-0.4,0.1-0.6,0.3-0.8s0.5-0.3,0.9-0.4v-0.1c-0.4-0.2-0.8-0.5-1-0.9
	s-0.4-0.8-0.4-1.3c0-0.4,0.1-0.7,0.2-1s0.3-0.6,0.6-0.8s0.5-0.4,0.9-0.5c0.3-0.1,0.7-0.2,1.1-0.2c0.5,0,1,0.1,1.4,0.3v-0.1
	c0-0.3,0.1-0.5,0.2-0.7s0.3-0.3,0.6-0.3h1.1v1h-1.4v0.5c0.3,0.2,0.5,0.5,0.6,0.8s0.2,0.7,0.2,1.1c0,0.4-0.1,0.7-0.2,1
	s-0.3,0.6-0.6,0.8c-0.2,0.2-0.5,0.4-0.9,0.5c-0.3,0.1-0.7,0.2-1.1,0.2c-0.2,0-0.5,0-0.7-0.1c-0.2,0.1-0.5,0.2-0.7,0.3
	s-0.3,0.3-0.3,0.5s0.1,0.4,0.3,0.4s0.5,0.1,0.8,0.1h1.5c0.9,0,1.5,0.2,2,0.5C398.6,239.7,398.8,240.2,398.8,240.8z M397.8,240.9
	c0-0.3-0.1-0.5-0.3-0.7c-0.2-0.2-0.6-0.3-1.2-0.3h-2.4c-0.4,0.2-0.7,0.5-0.7,1c0,0.3,0.1,0.6,0.4,0.8c0.2,0.2,0.6,0.3,1.2,0.3h1
	c0.6,0,1.1-0.1,1.5-0.3C397.6,241.6,397.8,241.3,397.8,240.9z M395.3,236.7c0.5,0,0.9-0.1,1.1-0.3c0.3-0.2,0.4-0.6,0.4-1.1v-0.4
	c0-0.5-0.1-0.8-0.4-1.1c-0.3-0.2-0.7-0.3-1.1-0.3c-0.5,0-0.9,0.1-1.1,0.3c-0.3,0.2-0.4,0.6-0.4,1.1v0.4c0,0.5,0.1,0.8,0.4,1.1
	C394.4,236.6,394.8,236.7,395.3,236.7z"/>
<path d="M402.8,240.2c-0.5,0-0.9-0.1-1.3-0.3s-0.7-0.4-1-0.8c-0.3-0.3-0.5-0.7-0.7-1.2s-0.2-1-0.2-1.6s0.1-1.1,0.2-1.6
	s0.4-0.9,0.7-1.2c0.3-0.3,0.6-0.6,1-0.8s0.8-0.3,1.3-0.3s0.9,0.1,1.3,0.3s0.7,0.4,1,0.7s0.5,0.7,0.6,1.1s0.2,0.9,0.2,1.4v0.5h-5.2
	v0.3c0,0.3,0,0.6,0.1,0.9c0.1,0.3,0.2,0.5,0.4,0.7c0.2,0.2,0.4,0.4,0.7,0.5c0.3,0.1,0.6,0.2,0.9,0.2c0.5,0,0.9-0.1,1.2-0.3
	s0.6-0.5,0.8-0.9l0.8,0.6c-0.2,0.5-0.6,0.9-1.1,1.2C404,240,403.5,240.2,402.8,240.2z M402.8,233.5c-0.3,0-0.6,0.1-0.8,0.2
	c-0.3,0.1-0.5,0.3-0.7,0.5s-0.3,0.4-0.4,0.7s-0.2,0.6-0.2,0.9v0.1h4v-0.2c0-0.6-0.2-1.2-0.5-1.5
	C403.8,233.7,403.4,233.5,402.8,233.5z"/>
<path d="M409.3,240c-0.4,0-0.7-0.1-0.9-0.3c-0.2-0.2-0.3-0.5-0.3-0.9v-5H407v-1h0.7c0.2,0,0.4,0,0.5-0.1s0.1-0.3,0.1-0.5v-1.3h1v2
	h1.6v1h-1.6v5.2h1.5v1L409.3,240L409.3,240z"/>
<polygon points="373.5,256.8 373.5,247 379.5,247 379.5,248.1 374.7,248.1 374.7,251.3 379.2,251.3 379.2,252.4 374.7,252.4 
	374.7,255.8 379.5,255.8 379.5,256.8 "/>
<path d="M381.6,256.8v-7.2h1.1v1.2h0.1c0.2-0.4,0.4-0.7,0.7-1c0.3-0.2,0.8-0.4,1.3-0.4c0.7,0,1.3,0.2,1.8,0.7c0.4,0.5,0.7,1.2,0.7,2
	v4.6h-1.1v-4.4c0-1.3-0.5-2-1.6-2c-0.2,0-0.4,0-0.7,0.1c-0.2,0.1-0.4,0.1-0.6,0.3s-0.3,0.3-0.4,0.4c-0.1,0.2-0.1,0.4-0.1,0.6v5
	L381.6,256.8L381.6,256.8z"/>
<polygon points="391,256.8 388.5,249.6 389.6,249.6 390.9,253.2 391.7,255.6 391.7,255.6 392.5,253.2 393.8,249.6 394.9,249.6 
	392.3,256.8 "/>
<path d="M396.9,247.9c-0.2,0-0.4-0.1-0.5-0.2s-0.2-0.3-0.2-0.5V247c0-0.2,0.1-0.3,0.2-0.5s0.3-0.2,0.5-0.2s0.4,0.1,0.5,0.2
	s0.2,0.3,0.2,0.5v0.2c0,0.2-0.1,0.3-0.2,0.5S397.1,247.9,396.9,247.9z M396.3,249.6h1.1v7.2h-1.1V249.6z"/>
<path d="M399.8,256.8v-7.2h1.1v1.3h0.1c0.1-0.3,0.4-0.7,0.7-0.9s0.8-0.4,1.4-0.4h0.4v1.1h-0.7c-0.6,0-1.1,0.1-1.4,0.3
	s-0.5,0.5-0.5,0.9v4.9L399.8,256.8L399.8,256.8z"/>
<path d="M407.6,257c-0.5,0-0.9-0.1-1.3-0.3s-0.7-0.4-1-0.8c-0.3-0.3-0.5-0.7-0.7-1.2s-0.2-1-0.2-1.6s0.1-1.1,0.2-1.6
	c0.2-0.5,0.4-0.9,0.7-1.2c0.3-0.3,0.6-0.6,1-0.8s0.8-0.3,1.3-0.3s0.9,0.1,1.3,0.3s0.7,0.4,1,0.8c0.3,0.3,0.5,0.7,0.7,1.2
	s0.2,1,0.2,1.6s-0.1,1.1-0.2,1.6c-0.2,0.5-0.4,0.9-0.7,1.2c-0.3,0.3-0.6,0.6-1,0.8S408.1,257,407.6,257z M407.6,256
	c0.6,0,1.1-0.2,1.5-0.6c0.4-0.4,0.6-0.9,0.6-1.7v-1c0-0.8-0.2-1.3-0.6-1.7s-0.9-0.6-1.5-0.6s-1.1,0.2-1.5,0.6
	c-0.4,0.4-0.6,0.9-0.6,1.7v1c0,0.8,0.2,1.3,0.6,1.7C406.5,255.8,407,256,407.6,256z"/>
<path d="M412.7,256.8v-7.2h1.1v1.2h0.1c0.2-0.4,0.4-0.7,0.7-1c0.3-0.2,0.8-0.4,1.3-0.4c0.7,0,1.3,0.2,1.8,0.7c0.4,0.5,0.7,1.2,0.7,2
	v4.6h-1.1v-4.4c0-1.3-0.5-2-1.6-2c-0.2,0-0.4,0-0.7,0.1c-0.2,0.1-0.4,0.1-0.6,0.3s-0.3,0.3-0.4,0.4c-0.1,0.2-0.1,0.4-0.1,0.6v5
	L412.7,256.8L412.7,256.8z"/>
<path d="M420.7,256.8v-7.2h1.1v1.2h0.1c0.1-0.2,0.2-0.4,0.3-0.5s0.2-0.3,0.4-0.4c0.2-0.1,0.3-0.2,0.5-0.3s0.4-0.1,0.7-0.1
	c0.5,0,0.9,0.1,1.3,0.3s0.7,0.6,0.9,1.1l0,0c0.1-0.4,0.4-0.7,0.7-1c0.4-0.3,0.8-0.4,1.5-0.4s1.3,0.2,1.7,0.7c0.4,0.5,0.6,1.2,0.6,2
	v4.6h-1.1v-4.4c0-0.6-0.1-1.1-0.4-1.5c-0.3-0.3-0.7-0.5-1.2-0.5c-0.2,0-0.4,0-0.6,0.1s-0.4,0.1-0.5,0.3c-0.2,0.1-0.3,0.3-0.4,0.4
	c-0.1,0.2-0.1,0.4-0.1,0.6v5h-1.1v-4.4c0-0.6-0.1-1.1-0.4-1.5c-0.3-0.3-0.6-0.5-1.2-0.5c-0.2,0-0.4,0-0.6,0.1s-0.4,0.1-0.5,0.3
	c-0.2,0.1-0.3,0.3-0.4,0.4c-0.1,0.2-0.1,0.4-0.1,0.6v5H420.7z"/>
<path d="M435.6,257c-0.5,0-0.9-0.1-1.3-0.3s-0.7-0.4-1-0.8c-0.3-0.3-0.5-0.7-0.7-1.2s-0.2-1-0.2-1.6s0.1-1.1,0.2-1.6
	c0.2-0.5,0.4-0.9,0.7-1.2c0.3-0.3,0.6-0.6,1-0.8s0.8-0.3,1.3-0.3s0.9,0.1,1.3,0.3s0.7,0.4,1,0.7s0.5,0.7,0.6,1.1
	c0.1,0.4,0.2,0.9,0.2,1.4v0.5h-5.2v0.3c0,0.3,0,0.6,0.1,0.9c0.1,0.3,0.2,0.5,0.4,0.7c0.2,0.2,0.4,0.4,0.7,0.5
	c0.3,0.1,0.6,0.2,0.9,0.2c0.5,0,0.9-0.1,1.2-0.3s0.6-0.5,0.8-0.9l0.8,0.6c-0.2,0.5-0.6,0.9-1.1,1.2C436.9,256.8,436.3,257,435.6,257
	z M435.6,250.3c-0.3,0-0.6,0.1-0.8,0.2c-0.3,0.1-0.5,0.3-0.7,0.5s-0.3,0.4-0.4,0.7s-0.2,0.6-0.2,0.9v0.1h4v-0.2
	c0-0.6-0.2-1.2-0.5-1.5C436.7,250.5,436.2,250.3,435.6,250.3z"/>
<path d="M440.6,256.8v-7.2h1.1v1.2h0.1c0.2-0.4,0.4-0.7,0.7-1c0.3-0.2,0.8-0.4,1.3-0.4c0.7,0,1.3,0.2,1.8,0.7c0.4,0.5,0.7,1.2,0.7,2
	v4.6h-1.1v-4.4c0-1.3-0.5-2-1.6-2c-0.2,0-0.4,0-0.7,0.1c-0.2,0.1-0.4,0.1-0.6,0.3s-0.3,0.3-0.4,0.4c-0.1,0.2-0.1,0.4-0.1,0.6v5
	L440.6,256.8L440.6,256.8z"/>
<path d="M450.1,256.8c-0.4,0-0.7-0.1-0.9-0.3c-0.2-0.2-0.3-0.5-0.3-0.9v-5h-1.2v-1h0.7c0.2,0,0.4,0,0.5-0.1s0.1-0.3,0.1-0.5v-1.3h1
	v2h1.6v1H450v5.2h1.5v1h-1.4V256.8z"/>
<polygon class="st0" points="198.7,196.7 197.3,195.3 202.6,190 197.3,184.7 198.7,183.3 205.4,190 "/>
<path d="M283,337.3c2.2,0,4-1.8,4-4s-1.8-4-4-4s-4,1.8-4,4S280.8,337.3,283,337.3z M283,331.3c1.1,0,2,0.9,2,2s-0.9,2-2,2
	s-2-0.9-2-2S281.9,331.3,283,331.3z"/>
<rect x="281" y="321.3" width="4" height="2"/>
<path d="M291,317.3h-16c-1.1,0-2,0.9-2,2v24c0,1.1,0.9,2,2,2h16c1.1,0,2-0.9,2-2v-24C293,318.2,292.1,317.3,291,317.3z M287,343.3
	h-8v-2c0-0.6,0.4-1,1-1h6c0.6,0,1,0.4,1,1V343.3z M289,343.3v-2c0-1.7-1.3-3-3-3h-6c-1.7,0-3,1.3-3,3v2h-2v-24h16v24H289z"/>
<circle class="st1" cx="194" cy="331" r="32"/>
<path class="st2" d="M194,363.5c-17.9,0-32.5-14.6-32.5-32.5s14.6-32.5,32.5-32.5s32.5,14.6,32.5,32.5S211.9,363.5,194,363.5z
	 M194,299.5c-17.4,0-31.5,14.1-31.5,31.5s14.1,31.5,31.5,31.5s31.5-14.1,31.5-31.5S211.4,299.5,194,299.5z"/>
<polygon points="175,376.2 173.6,377.7 173.6,381 172.4,381 172.4,371.2 173.6,371.2 173.6,376.4 173.6,376.4 175,374.7 178,371.2 
	179.4,371.2 175.8,375.4 179.7,381 178.2,381 "/>
<path d="M183.6,381.2c-0.5,0-0.9-0.1-1.3-0.3c-0.4-0.2-0.7-0.4-1-0.8c-0.3-0.3-0.5-0.7-0.7-1.2s-0.2-1-0.2-1.6s0.1-1.1,0.2-1.6
	s0.4-0.9,0.7-1.2c0.3-0.3,0.6-0.6,1-0.8c0.4-0.2,0.8-0.3,1.3-0.3s0.9,0.1,1.3,0.3s0.7,0.4,1,0.7c0.3,0.3,0.5,0.7,0.6,1.1
	s0.2,0.9,0.2,1.4v0.5h-5.2v0.3c0,0.3,0,0.6,0.1,0.9s0.2,0.5,0.4,0.7s0.4,0.4,0.7,0.5s0.6,0.2,0.9,0.2c0.5,0,0.9-0.1,1.2-0.3
	s0.6-0.5,0.8-0.9l0.8,0.6c-0.2,0.5-0.6,0.9-1.1,1.2C184.8,381,184.2,381.2,183.6,381.2z M183.6,374.5c-0.3,0-0.6,0.1-0.8,0.2
	c-0.3,0.1-0.5,0.3-0.7,0.5s-0.3,0.4-0.4,0.7c-0.1,0.3-0.2,0.6-0.2,0.9v0.1h4v-0.2c0-0.6-0.2-1.2-0.5-1.5
	C184.6,374.7,184.1,374.5,183.6,374.5z"/>
<path d="M192.9,373.8h1.1l-3.2,8.9c-0.1,0.2-0.2,0.4-0.3,0.5s-0.2,0.3-0.3,0.3c-0.1,0.1-0.3,0.1-0.5,0.2c-0.2,0-0.4,0.1-0.7,0.1
	h-0.6v-1h1.1l0.5-1.5l-2.7-7.5h1.1l1.7,4.9l0.3,1.2h0.1l0.4-1.2L192.9,373.8z"/>
<path d="M172.4,397.8V388h3.9c0.9,0,1.6,0.2,2,0.7c0.5,0.5,0.7,1.2,0.7,2.1s-0.2,1.6-0.7,2.1s-1.1,0.7-2,0.7h-2.7v4.2L172.4,397.8
	L172.4,397.8z M173.6,392.6h2.7c0.5,0,0.8-0.1,1.1-0.4s0.4-0.6,0.4-1v-0.7c0-0.4-0.1-0.8-0.4-1s-0.6-0.4-1.1-0.4h-2.7V392.6z"/>
<path d="M180.7,397.8v-7.2h1.1v1.3h0.1c0.1-0.3,0.4-0.7,0.7-0.9s0.8-0.4,1.4-0.4h0.4v1.1h-0.7c-0.6,0-1.1,0.1-1.4,0.3
	c-0.3,0.2-0.5,0.5-0.5,0.9v4.9L180.7,397.8L180.7,397.8z"/>
<path d="M188.5,398c-0.5,0-0.9-0.1-1.3-0.3s-0.7-0.4-1-0.8c-0.3-0.3-0.5-0.7-0.7-1.2s-0.2-1-0.2-1.6s0.1-1.1,0.2-1.6
	c0.2-0.5,0.4-0.9,0.7-1.2c0.3-0.3,0.6-0.6,1-0.8s0.8-0.3,1.3-0.3s0.9,0.1,1.3,0.3s0.7,0.4,1,0.8c0.3,0.3,0.5,0.7,0.7,1.2
	s0.2,1,0.2,1.6s-0.1,1.1-0.2,1.6c-0.2,0.5-0.4,0.9-0.7,1.2c-0.3,0.3-0.6,0.6-1,0.8S188.9,398,188.5,398z M188.5,397
	c0.6,0,1.1-0.2,1.5-0.6s0.6-0.9,0.6-1.7v-1c0-0.8-0.2-1.3-0.6-1.7s-0.9-0.6-1.5-0.6s-1.1,0.2-1.5,0.6s-0.6,0.9-0.6,1.7v1
	c0,0.8,0.2,1.3,0.6,1.7C187.4,396.8,187.8,397,188.5,397z"/>
<path d="M195.2,397.8c-0.4,0-0.7-0.1-0.9-0.3c-0.2-0.2-0.3-0.5-0.3-0.9v-5h-1.2v-1h0.7c0.2,0,0.4,0,0.5-0.1s0.1-0.3,0.1-0.5v-1.3h1
	v2h1.6v1h-1.6v5.2h1.5v1h-1.4V397.8z"/>
<path d="M201.1,398c-0.5,0-0.9-0.1-1.3-0.3c-0.4-0.2-0.7-0.4-1-0.8c-0.3-0.3-0.5-0.7-0.7-1.2s-0.2-1-0.2-1.6s0.1-1.1,0.2-1.6
	s0.4-0.9,0.7-1.2c0.3-0.3,0.6-0.6,1-0.8c0.4-0.2,0.8-0.3,1.3-0.3s0.9,0.1,1.3,0.3s0.7,0.4,1,0.7c0.3,0.3,0.5,0.7,0.6,1.1
	s0.2,0.9,0.2,1.4v0.5H199v0.3c0,0.3,0,0.6,0.1,0.9s0.2,0.5,0.4,0.7s0.4,0.4,0.7,0.5s0.6,0.2,0.9,0.2c0.5,0,0.9-0.1,1.2-0.3
	s0.6-0.5,0.8-0.9l0.8,0.6c-0.2,0.5-0.6,0.9-1.1,1.2C202.4,397.8,201.8,398,201.1,398z M201.1,391.3c-0.3,0-0.6,0.1-0.8,0.2
	c-0.3,0.1-0.5,0.3-0.7,0.5s-0.3,0.4-0.4,0.7c-0.1,0.3-0.2,0.6-0.2,0.9v0.1h4v-0.2c0-0.6-0.2-1.2-0.5-1.5
	C202.2,391.5,201.7,391.3,201.1,391.3z"/>
<path d="M208.8,398c-0.5,0-1-0.1-1.4-0.3s-0.7-0.4-1-0.8s-0.5-0.7-0.6-1.2s-0.2-1-0.2-1.6s0.1-1.1,0.2-1.6c0.1-0.5,0.4-0.9,0.6-1.2
	c0.3-0.3,0.6-0.6,1-0.8s0.9-0.3,1.4-0.3c0.7,0,1.3,0.2,1.7,0.5s0.8,0.7,1,1.2l-0.9,0.5c-0.1-0.4-0.3-0.7-0.6-0.9
	c-0.3-0.2-0.7-0.3-1.1-0.3c-0.3,0-0.6,0.1-0.9,0.2s-0.5,0.3-0.6,0.4c-0.2,0.2-0.3,0.4-0.4,0.7s-0.1,0.6-0.1,0.9v1.2
	c0,0.6,0.2,1.2,0.5,1.6s0.8,0.6,1.5,0.6c0.9,0,1.6-0.4,2-1.3l0.8,0.5c-0.2,0.5-0.6,0.9-1,1.2S209.5,398,208.8,398z"/>
<path d="M214.7,397.8c-0.4,0-0.7-0.1-0.9-0.3c-0.2-0.2-0.3-0.5-0.3-0.9v-5h-1.2v-1h0.7c0.2,0,0.4,0,0.5-0.1s0.1-0.3,0.1-0.5v-1.3h1
	v2h1.6v1h-1.6v5.2h1.5v1h-1.4V397.8z"/>
<rect x="270" y="189" class="st0" width="108" height="2"/>
<polygon class="st0" points="372.7,196.7 371.3,195.3 376.6,190 371.3,184.7 372.7,183.3 379.4,190 "/>
<rect x="129" y="51" class="st0" width="2" height="281"/>
<path d="M78.8,325v-2h-1h-1v-1v-1h-1h-20h-1v1v1h-1h-1v2h-2v16h30v-16H78.8z M55.8,322h20v1h-20C55.8,323,55.8,322,55.8,322z
	 M78.8,339h-26v-12h26V339z"/>
<polygon points="68.8,334 69.8,334 69.8,333 69.8,332 68.8,332 68.8,333 62.8,333 62.8,332 61.8,332 61.8,333 61.8,334 62.8,334 "/>
<path d="M199,317c-5,0-9,4-9,9c0,0.9,0.1,1.8,0.4,2.6L180,339v6h6l10.4-10.4c5.3,1.6,11-2,11.6-7.9c0.2-2.1-0.4-4.3-1.6-6
	C204.5,318.3,201.8,317,199,317z M199,333c-0.7,0-1.4-0.1-2-0.3l-1.1-0.3l-0.8,0.8l-3.2,3.2l-1.4-1.4l-1.4,1.4l1.4,1.4l-1.6,1.6
	l-1.4-1.4l-1.4,1.4l1.4,1.4l-2.2,2.2h-3.2v-3.2l9.8-9.8l0.8-0.8l-0.3-0.9c-1-3.3,0.4-6.9,3.4-8.4c4.6-2.3,10,0.7,10.2,6
	c0.1,1.4-0.3,2.8-1.1,4C203.5,331.9,201.3,333,199,333z"/>
<circle cx="199.6" cy="324.5" r="2"/>
<path d="M279.1,38c-1.9,0-3.8,0.5-5.4,1.6l6.4,6.4c0.9,0.8,1,2.1,0.2,3l0,0c-0.9,0.8-2.2,0.7-3-0.2l0,0l-6.6-6.4
	c-1.1,1.7-1.7,3.7-1.7,5.7c0,5.6,4.5,10.1,10.1,10.1c0.9,0,1.7-0.1,2.6-0.3l6.7,6.7c2,2,5.1,2,7.1,0s2-5.1,0-7.1l-6.7-6.7
	c0.2-0.9,0.3-1.7,0.3-2.6c0.1-5.5-4.3-10.1-9.8-10.2H279.1z M287.1,48.1c0,0.7-0.1,1.4-0.3,2.1l-0.3,1.1l0.8,0.8l6.7,6.7
	c0.6,0.5,0.9,1.3,0.9,2.1s-0.3,1.6-0.9,2.1c-1.1,1.2-2.9,1.2-4.1,0.1l-0.1-0.1l-6.7-6.7l-0.8-0.8l-1.1,0.3c-0.7,0.2-1.4,0.3-2.1,0.3
	c-2.1,0-4.2-0.8-5.7-2.3c-1.6-1.5-2.4-3.5-2.4-5.7c0-0.7,0.1-1.5,0.3-2.2l4.4,4.4c1.5,1.7,4.2,1.8,5.8,0.2l0,0
	c1.6-1.7,1.5-4.3-0.1-5.9l0,0l-4.4-4.4c0.6-0.2,1.3-0.3,2-0.3c2.1,0,4.2,0.8,5.7,2.3C286.2,43.8,287.1,45.9,287.1,48.1z"/>
<path d="M426.3,188v-8h-8v3h-4c-1.1,0-2,0.9-2,2v6h-6v-3h-8v8h8v-3h6v6c0,1.1,0.9,2,2,2h4v3h8v-8h-8v3h-4v-14h4v3H426.3z M404.3,194
	h-4v-4h4V194z M420.3,198h4v4h-4V198z M420.3,182h4v4h-4V182z"/>
<rect x="420.3" y="182" width="4" height="4"/>
<circle class="st16" cx="65.8" cy="51" r="32"/>
<circle class="st16" cx="65.8" cy="190" r="32"/>
<g>
	<g>
		<g>
			<defs>
				<rect id="SVGID_1_" x="45.8" y="31" width="40" height="40"/>
			</defs>
			<clipPath id="SVGID_2_">
				<use xlink:href="#SVGID_1_"  style="overflow:visible;"/>
			</clipPath>
			<g class="st17">
				<g>
					<defs>
						<rect id="SVGID_3_" x="45.8" y="31" width="40" height="40"/>
					</defs>
					<clipPath id="SVGID_4_">
						<use xlink:href="#SVGID_3_"  style="overflow:visible;"/>
					</clipPath>
					<path class="st18" d="M57.7,52.9c-0.1-0.3-0.1-0.6-0.2-1c0-0.1,0-0.1,0-0.2l0,0c-0.1-0.9,0-1.7,0.2-2.6l0,0c0-0.1,0-0.1,0-0.2
						v-0.1v-0.1c0-0.1,0-0.1,0-0.2l0,0c0.3-0.9,0.7-1.7,1.2-2.5l0,0c0-0.1,0.1-0.1,0.2-0.2l0.1-0.1c0,0,0-0.1,0.1-0.1
						c0.2-0.3,0.4-0.5,0.7-0.7c-1.6-3.4-1.7-7.3,0.2-10.6c-1.1,0.4-2.2,0.8-3.2,1.4l0,0c-0.1,0.1-0.2,0.1-0.3,0.2c0,0,0,0-0.1,0l0,0
						c0,0,0,0-0.1,0c0,0-0.1,0-0.1,0.1c-0.1,0-0.1,0.1-0.2,0.1c-0.1,0-0.1,0.1-0.2,0.1c-0.1,0-0.1,0.1-0.2,0.1
						c-0.1,0-0.1,0.1-0.2,0.1c-0.1,0-0.1,0.1-0.2,0.1c-0.1,0-0.1,0.1-0.2,0.1c-0.1,0-0.1,0.1-0.2,0.1l-0.1,0.1
						c-0.1,0-0.1,0.1-0.2,0.1L54.6,37c-0.1,0.1-0.2,0.2-0.3,0.2l-0.1,0.1c-0.1,0-0.1,0.1-0.2,0.1l-0.1,0.1c-0.1,0-0.1,0.1-0.2,0.1
						l-0.1,0.1l-0.1,0.1l-0.1,0.1L53.3,38l-0.1,0.1l-0.1,0.1L53,38.3l-0.1,0.1c0,0.1-0.1,0.1-0.1,0.2c-0.1,0.1-0.1,0.1-0.2,0.2
						c-0.1,0.1-0.2,0.2-0.2,0.3l-0.1,0.1c0,0.1-0.1,0.1-0.1,0.2l-0.1,0.1c0,0.1-0.1,0.1-0.1,0.2l-0.1,0.1c0,0.1-0.1,0.1-0.1,0.2
						l-0.1,0.1c0,0,0,0.1-0.1,0.1c0,0.1-0.1,0.1-0.1,0.2c0,0.1-0.1,0.1-0.1,0.2c0,0.1-0.1,0.1-0.1,0.2l-0.1,0.1c0,0,0,0,0,0.1
						s-0.1,0.1-0.1,0.2L51,41.3c-0.1,0.1-0.2,0.2-0.2,0.4c-0.1,0.1-0.1,0.2-0.2,0.4c0,0,0,0.1-0.1,0.1c0,0.1-0.1,0.2-0.1,0.3
						c0,0,0,0.1-0.1,0.1c0,0.1-0.1,0.2-0.1,0.2c0,0.1,0,0.1-0.1,0.2c0,0.1-0.1,0.2-0.1,0.2c0,0.1,0,0.1-0.1,0.2
						c0,0.1-0.1,0.2-0.1,0.2s0,0.1-0.1,0.1c0,0.1-0.1,0.2-0.1,0.3v0.1c-0.1,0.1-0.1,0.3-0.1,0.4l0,0c0,0.1-0.1,0.2-0.1,0.4V45
						c0,0.1-0.1,0.2-0.1,0.3s0,0.1,0,0.2c0,0.1,0,0.1-0.1,0.2l0,0v0.1v0.1c0,0.1,0,0.2-0.1,0.2l0,0v0.1C49,46.4,49,46.6,49,46.8l0,0
						C50.5,50.7,53.9,52.6,57.7,52.9"/>
				</g>
				<g>
					<defs>
						<rect id="SVGID_5_" x="45.8" y="31" width="40" height="40"/>
					</defs>
					<clipPath id="SVGID_6_">
						<use xlink:href="#SVGID_5_"  style="overflow:visible;"/>
					</clipPath>
					<path class="st19" d="M63.4,58.9c-0.3-0.1-0.6-0.2-0.9-0.3c-0.1,0-0.1,0-0.2-0.1l0,0c-0.8-0.4-1.5-0.8-2.1-1.4l0,0L60.1,57
						c0,0,0,0-0.1-0.1c0,0,0,0-0.1-0.1l-0.1-0.1l0,0c-0.6-0.7-1.1-1.5-1.5-2.3l0,0c0-0.1-0.1-0.2-0.1-0.2v-0.1V54
						c-0.1-0.3-0.2-0.6-0.3-1c-3.8-0.3-7.2-2.2-9.1-5.4c-0.2,1.1-0.4,2.3-0.4,3.5l0,0v0.3v0.1l0,0v0.1v0.1c0,0.1,0,0.2,0,0.2
						c0,0.1,0,0.1,0,0.2c0,0.1,0,0.1,0,0.2c0,0.1,0,0.1,0,0.2c0,0.1,0,0.1,0,0.2c0,0.1,0,0.1,0,0.2c0,0.1,0,0.1,0,0.2
						c0,0.1,0,0.1,0,0.2c0,0.1,0,0.2,0,0.2c0,0.1,0,0.1,0,0.2c0,0.1,0,0.3,0.1,0.4c0,0.1,0,0.1,0,0.2c0,0.1,0,0.1,0,0.2
						c0,0.1,0,0.1,0,0.2c0,0.1,0,0.1,0,0.2c0,0.1,0,0.1,0,0.2c0,0.1,0,0.1,0,0.2c0,0.1,0,0.1,0,0.2c0,0.1,0,0.1,0,0.2
						c0,0.1,0,0.1,0.1,0.2c0,0.1,0,0.1,0.1,0.2c0,0.1,0,0.1,0.1,0.2c0,0.1,0,0.1,0.1,0.2c0,0.1,0,0.1,0.1,0.2c0,0.1,0,0.1,0.1,0.2
						c0,0.1,0.1,0.2,0.1,0.3s0,0.1,0.1,0.2c0,0.1,0.1,0.1,0.1,0.2c0,0.1,0,0.1,0.1,0.2c0,0.1,0.1,0.1,0.1,0.2c0,0.1,0,0.1,0.1,0.2
						c0,0.1,0.1,0.1,0.1,0.2c0,0.1,0,0.1,0.1,0.2v0.1c0,0.1,0.1,0.1,0.1,0.2c0,0.1,0.1,0.1,0.1,0.2c0,0.1,0.1,0.2,0.1,0.2
						s0,0.1,0.1,0.1c0,0,0,0,0,0.1s0.1,0.2,0.1,0.2s0,0.1,0.1,0.1c0.1,0.1,0.1,0.2,0.2,0.4c0.1,0.1,0.1,0.2,0.2,0.4
						c0,0,0,0.1,0.1,0.1c0.1,0.1,0.1,0.2,0.2,0.2l0.1,0.1c0,0.1,0.1,0.1,0.1,0.2l0.1,0.1c0,0.1,0.1,0.1,0.1,0.2l0.1,0.1
						c0.1,0.1,0.1,0.1,0.2,0.2l0.1,0.1c0.1,0.1,0.1,0.2,0.2,0.2l0.1,0.1c0.1,0.1,0.2,0.2,0.3,0.3l0,0c0.1,0.1,0.2,0.2,0.2,0.3
						l0.1,0.1C53,63,53,63,53.1,63.1l0.1,0.1c0,0.1,0.1,0.1,0.2,0.2l0,0c0,0,0,0,0.1,0.1c0,0,0,0,0.1,0.1s0.1,0.1,0.2,0.2l0,0
						c0,0,0.1,0,0.1,0.1c0.2,0.2,0.3,0.3,0.5,0.4l0,0C57.9,64,61.3,62,63.4,58.9"/>
				</g>
				<g>
					<defs>
						<rect id="SVGID_7_" x="45.8" y="31" width="40" height="40"/>
					</defs>
					<clipPath id="SVGID_8_">
						<use xlink:href="#SVGID_7_"  style="overflow:visible;"/>
					</clipPath>
					<path class="st20" d="M71.4,57c-0.2,0.2-0.5,0.4-0.8,0.6c0,0-0.1,0.1-0.2,0.1l0,0c-0.7,0.5-1.5,0.9-2.3,1.1l0,0
						c-0.1,0-0.1,0-0.2,0h-0.1h-0.1c-0.1,0-0.1,0-0.2,0l0,0c-0.9,0.2-1.8,0.3-2.8,0.2c0,0,0,0-0.1,0s-0.2,0-0.2,0h-0.1h-0.1
						c-0.3-0.1-0.7-0.1-1-0.2c-2.1,3.1-5.5,5.1-9.3,5.1c0.9,0.8,1.8,1.5,2.8,2.1l0,0c0.1,0.1,0.2,0.1,0.3,0.2c0,0,0,0,0.1,0l0,0
						c0,0,0,0,0.1,0h0.1c0.1,0,0.1,0.1,0.2,0.1c0.1,0,0.1,0.1,0.2,0.1c0.1,0,0.1,0.1,0.2,0.1c0.1,0,0.1,0.1,0.2,0.1
						c0.1,0,0.1,0.1,0.2,0.1c0.1,0,0.1,0.1,0.2,0.1c0.1,0,0.1,0.1,0.2,0.1c0.1,0,0.1,0,0.2,0.1c0.1,0,0.1,0.1,0.2,0.1
						c0.1,0,0.1,0,0.2,0.1c0.1,0,0.2,0.1,0.4,0.1c0.1,0,0.1,0,0.2,0.1c0.1,0,0.1,0.1,0.2,0.1c0.1,0,0.1,0,0.2,0.1
						c0.1,0,0.1,0,0.2,0.1c0.1,0,0.1,0,0.2,0.1c0.1,0,0.1,0,0.2,0.1c0.1,0,0.1,0,0.2,0.1c0.1,0,0.1,0,0.2,0.1c0.1,0,0.1,0,0.2,0.1
						c0.1,0,0.1,0,0.2,0c0.1,0,0.1,0,0.2,0c0.1,0,0.1,0,0.2,0c0.1,0,0.1,0,0.2,0c0.1,0,0.1,0,0.2,0c0.1,0,0.2,0,0.4,0.1
						c0.1,0,0.1,0,0.2,0c0.1,0,0.1,0,0.2,0c0.1,0,0.1,0,0.2,0c0.1,0,0.1,0,0.2,0c0.1,0,0.1,0,0.2,0c0.1,0,0.1,0,0.2,0s0.1,0,0.2,0
						h0.1c0.1,0,0.1,0,0.2,0s0.1,0,0.2,0s0.2,0,0.3,0c0.1,0,0.1,0,0.2,0h0.1c0.1,0,0.2,0,0.3,0h0.1c0.1,0,0.3,0,0.4,0s0.3,0,0.4,0
						h0.1c0.1,0,0.2,0,0.3,0c0.1,0,0.1,0,0.2,0s0.2,0,0.3,0c0.1,0,0.1,0,0.2,0s0.2,0,0.2,0c0.1,0,0.1,0,0.2,0s0.2,0,0.2,0h0.1
						c0.1,0,0.2,0,0.3,0h0.1c0.1,0,0.3,0,0.4-0.1l0,0c0.1,0,0.2,0,0.4-0.1h0.1c0.1,0,0.2,0,0.3-0.1c0.1,0,0.1,0,0.2,0s0.1,0,0.2-0.1
						l0,0h0.1h0.1c0.1,0,0.2,0,0.2-0.1l0,0h0.1c0.2-0.1,0.4-0.1,0.6-0.2l0,0C73.1,64.4,73.1,60.4,71.4,57"/>
				</g>
				<g>
					<defs>
						<rect id="SVGID_9_" x="45.8" y="31" width="40" height="40"/>
					</defs>
					<clipPath id="SVGID_10_">
						<use xlink:href="#SVGID_9_"  style="overflow:visible;"/>
					</clipPath>
					<path class="st21" d="M73.8,49.1c0.1,0.3,0.1,0.6,0.2,1c0,0.1,0,0.1,0,0.2l0,0c0.1,0.8,0,1.7-0.2,2.6l0,0c0,0.1,0,0.1,0,0.2
						v0.1v0.1c0,0.1,0,0.1,0,0.2l0,0c-0.3,0.9-0.7,1.7-1.2,2.5l0,0c0,0.1-0.1,0.1-0.2,0.2l-0.1,0.1c0,0,0,0.1-0.1,0.1
						c-0.2,0.3-0.4,0.5-0.7,0.7c1.6,3.4,1.7,7.3-0.2,10.6c1.1-0.4,2.2-0.8,3.2-1.4l0,0c0.1-0.1,0.2-0.1,0.3-0.2c0,0,0,0,0.1,0l0,0
						c0,0,0,0,0.1,0c0,0,0.1,0,0.1-0.1c0.1,0,0.1-0.1,0.2-0.1s0.1-0.1,0.2-0.1s0.1-0.1,0.2-0.1s0.1-0.1,0.2-0.1s0.1-0.1,0.2-0.1
						s0.1-0.1,0.2-0.1s0.1-0.1,0.2-0.1l0.1-0.1c0.1,0,0.1-0.1,0.2-0.1l0.1-0.1c0.1-0.1,0.2-0.2,0.3-0.2l0.1-0.1
						c0.1,0,0.1-0.1,0.2-0.1l0.1-0.1c0.1,0,0.1-0.1,0.2-0.1l0.1-0.1l0.1-0.1l0.1-0.1l0.1-0.1l0.1-0.1l0.1-0.1l0.1-0.1l0.1-0.1
						c0-0.1,0.1-0.1,0.1-0.2c0.1-0.1,0.1-0.1,0.2-0.2c0.1-0.1,0.2-0.2,0.2-0.3l0.1-0.1c0-0.1,0.1-0.1,0.1-0.2l0.1-0.1
						c0-0.1,0.1-0.1,0.1-0.2l0.1-0.1c0-0.1,0.1-0.1,0.1-0.2l0.1-0.1c0,0,0-0.1,0.1-0.1c0-0.1,0.1-0.1,0.1-0.2c0-0.1,0.1-0.1,0.1-0.2
						c0-0.1,0.1-0.1,0.1-0.2l0.1-0.1c0,0,0,0,0-0.1s0.1-0.1,0.1-0.2l0.1-0.1c0.1-0.1,0.2-0.3,0.2-0.4c0.1-0.1,0.1-0.3,0.2-0.4
						c0,0,0-0.1,0.1-0.1c0-0.1,0.1-0.2,0.1-0.2s0-0.1,0.1-0.1c0-0.1,0.1-0.2,0.1-0.2c0-0.1,0-0.1,0.1-0.2c0-0.1,0.1-0.2,0.1-0.2
						c0-0.1,0-0.1,0.1-0.2c0-0.1,0.1-0.2,0.1-0.2s0-0.1,0.1-0.1c0-0.1,0.1-0.2,0.1-0.3V58c0.1-0.1,0.1-0.3,0.1-0.4l0,0
						c0-0.1,0.1-0.2,0.1-0.4v-0.1c0-0.1,0.1-0.2,0.1-0.3s0-0.1,0-0.2c0-0.1,0-0.1,0.1-0.2l0,0v-0.1v-0.1c0-0.1,0-0.2,0.1-0.2l0,0
						v-0.1c0.1-0.2,0.1-0.4,0.1-0.6l0,0C81,51.3,77.6,49.4,73.8,49.1"/>
				</g>
				<g>
					<defs>
						<rect id="SVGID_11_" x="45.8" y="31" width="40" height="40"/>
					</defs>
					<clipPath id="SVGID_12_">
						<use xlink:href="#SVGID_11_"  style="overflow:visible;"/>
					</clipPath>
					<path class="st22" d="M68.1,43c0.3,0.1,0.6,0.2,0.9,0.3c0.1,0,0.1,0,0.2,0.1l0,0c0.8,0.4,1.5,0.8,2.1,1.4l0,0l0.1,0.1
						c0,0,0,0,0.1,0.1c0,0,0,0,0.1,0.1l0.1,0.1l0,0c0.6,0.7,1.1,1.5,1.5,2.3l0,0c0,0.1,0.1,0.2,0.1,0.2v0.1v0.1
						c0.1,0.3,0.2,0.6,0.3,1c3.8,0.3,7.2,2.2,9.1,5.4c0.2-1.1,0.4-2.3,0.4-3.5l0,0v-0.3v-0.1l0,0v-0.1v-0.1c0-0.1,0-0.2,0-0.2
						c0-0.1,0-0.1,0-0.2c0-0.1,0-0.1,0-0.2c0-0.1,0-0.1,0-0.2c0-0.1,0-0.1,0-0.2c0-0.1,0-0.1,0-0.2c0-0.1,0-0.1,0-0.2
						c0-0.1,0-0.1,0-0.2c0-0.1,0-0.2,0-0.2c0-0.1,0-0.1,0-0.2c0-0.1,0-0.2-0.1-0.4c0-0.1,0-0.1,0-0.2c0-0.1,0-0.1,0-0.2
						c0-0.1,0-0.1,0-0.2c0-0.1,0-0.1,0-0.2c0-0.1,0-0.1,0-0.2c0-0.1,0-0.1,0-0.2c0-0.1,0-0.1,0-0.2c0-0.1,0-0.1,0-0.2
						c0-0.1,0-0.1-0.1-0.2c0-0.1,0-0.1-0.1-0.2c0-0.1,0-0.1-0.1-0.2c0-0.1,0-0.1-0.1-0.2c0-0.1,0-0.1-0.1-0.2c0-0.1,0-0.1-0.1-0.2
						c0-0.1-0.1-0.2-0.1-0.3s0-0.1-0.1-0.2c0-0.1-0.1-0.1-0.1-0.2c0-0.1,0-0.1-0.1-0.2c0-0.1-0.1-0.1-0.1-0.2c0-0.1,0-0.1-0.1-0.2
						c0-0.1-0.1-0.1-0.1-0.2c0-0.1,0-0.1-0.1-0.2v-0.1c0-0.1-0.1-0.1-0.1-0.2c0-0.1-0.1-0.1-0.1-0.2c0-0.1-0.1-0.2-0.1-0.2
						s0-0.1-0.1-0.1c0,0,0,0,0-0.1s-0.1-0.2-0.1-0.2s0-0.1-0.1-0.1c-0.1-0.1-0.1-0.2-0.2-0.4c-0.1-0.1-0.1-0.2-0.2-0.4
						c0,0,0-0.1-0.1-0.1c-0.1-0.1-0.1-0.2-0.2-0.2l-0.1-0.1c0-0.1-0.1-0.1-0.1-0.2L80,40.6c0-0.1-0.1-0.1-0.1-0.2l-0.1-0.1
						c-0.1-0.1-0.1-0.1-0.2-0.2L79.5,40c-0.1-0.1-0.1-0.2-0.2-0.2l-0.1-0.1c-0.1-0.1-0.2-0.2-0.3-0.3l0,0c-0.1-0.1-0.2-0.2-0.2-0.3
						L78.6,39c-0.1-0.1-0.1-0.1-0.2-0.2l-0.1-0.1c0-0.1-0.1-0.1-0.2-0.2l0,0c0,0,0,0-0.1-0.1c0,0,0,0-0.1-0.1s-0.1-0.1-0.2-0.2l0,0
						c0,0-0.1,0-0.1-0.1c-0.2-0.2-0.3-0.3-0.5-0.4l0,0C73.6,37.9,70.3,39.9,68.1,43"/>
				</g>
				<g>
					<defs>
						<rect id="SVGID_13_" x="45.8" y="31" width="40" height="40"/>
					</defs>
					<clipPath id="SVGID_14_">
						<use xlink:href="#SVGID_13_"  style="overflow:visible;"/>
					</clipPath>
					<path class="st23" d="M60,45c0.2-0.2,0.5-0.4,0.8-0.6c0,0,0.1-0.1,0.2-0.1l0,0c0.7-0.5,1.5-0.9,2.3-1.1l0,0c0.1,0,0.1,0,0.2,0
						h0.1h0.1c0.1,0,0.1,0,0.2,0l0,0c0.9-0.2,1.8-0.3,2.8-0.2c0,0,0,0,0.1,0s0.2,0,0.2,0h0.1h0.1c0.3,0.1,0.7,0.1,1,0.2
						c2.1-3.1,5.5-5.1,9.3-5.1c-0.9-0.8-1.8-1.5-2.8-2.1l0,0c-0.1-0.1-0.2-0.1-0.3-0.2c0,0,0,0-0.1,0l0,0c0,0,0,0-0.1,0h-0.1
						c-0.1,0-0.1-0.1-0.2-0.1s-0.1-0.1-0.2-0.1s-0.1-0.1-0.2-0.1s-0.1-0.1-0.2-0.1s-0.1-0.1-0.2-0.1s-0.1-0.1-0.2-0.1
						s-0.1-0.1-0.2-0.1s-0.1,0-0.2-0.1c-0.1,0-0.1-0.1-0.2-0.1s-0.1,0-0.2-0.1c-0.1,0-0.2-0.1-0.3-0.1c-0.1,0-0.1,0-0.2-0.1
						c-0.1,0-0.1-0.1-0.2-0.1s-0.1,0-0.2-0.1c-0.1,0-0.1,0-0.2-0.1c-0.1,0-0.1,0-0.2-0.1c-0.1,0-0.1,0-0.2-0.1c-0.1,0-0.1,0-0.2-0.1
						c-0.1,0-0.1,0-0.2-0.1c-0.1,0-0.1,0-0.2-0.1c-0.1,0-0.1,0-0.2,0s-0.1,0-0.2,0s-0.1,0-0.2,0s-0.1,0-0.2,0s-0.1,0-0.2,0
						s-0.2,0-0.4-0.1c-0.1,0-0.1,0-0.2,0s-0.1,0-0.2,0s-0.1,0-0.2,0s-0.1,0-0.2,0s-0.1,0-0.2,0s-0.1,0-0.2,0s-0.1,0-0.2,0h-0.1
						c-0.1,0-0.1,0-0.2,0s-0.1,0-0.2,0s-0.2,0-0.3,0c-0.1,0-0.1,0-0.2,0h-0.1c-0.1,0-0.2,0-0.3,0h-0.1c-0.1,0-0.3,0-0.4,0
						s-0.3,0-0.4,0h-0.1c-0.1,0-0.2,0-0.3,0c-0.1,0-0.1,0-0.2,0s-0.2,0-0.3,0c-0.1,0-0.1,0-0.2,0c-0.1,0-0.2,0-0.3,0s-0.1,0-0.2,0
						c-0.1,0-0.2,0-0.2,0H63c-0.1,0-0.2,0-0.3,0h-0.1c-0.1,0-0.3,0-0.4,0.1l0,0c-0.1,0-0.2,0-0.4,0.1h-0.1c-0.1,0-0.2,0-0.3,0.1
						c-0.1,0-0.1,0-0.2,0c-0.1,0-0.1,0-0.2,0.1l0,0h-0.1h-0.1c-0.1,0-0.2,0-0.2,0.1l0,0h-0.1c-0.2,0.1-0.4,0.1-0.6,0.2l0,0
						C58.4,37.6,58.4,41.6,60,45"/>
				</g>
			</g>
		</g>
	</g>
</g>
<g>
	<g>
		<g>
			<defs>
				<rect id="SVGID_15_" x="45.8" y="170" width="40" height="40"/>
			</defs>
			<clipPath id="SVGID_16_">
				<use xlink:href="#SVGID_15_"  style="overflow:visible;"/>
			</clipPath>
			<g class="st24">
				<g>
					<defs>
						<rect id="SVGID_17_" x="45.8" y="170" width="40" height="40"/>
					</defs>
					<clipPath id="SVGID_18_">
						<use xlink:href="#SVGID_17_"  style="overflow:visible;"/>
					</clipPath>
					<path class="st25" d="M57.7,191.9c-0.1-0.3-0.1-0.6-0.2-1c0-0.1,0-0.1,0-0.2l0,0c-0.1-0.8,0-1.7,0.2-2.6l0,0c0-0.1,0-0.1,0-0.2
						v-0.1v-0.1c0-0.1,0-0.1,0-0.2l0,0c0.3-0.9,0.7-1.7,1.2-2.5l0,0c0-0.1,0.1-0.1,0.2-0.2l0.1-0.1c0,0,0-0.1,0.1-0.1
						c0.2-0.3,0.4-0.5,0.7-0.7c-1.6-3.4-1.7-7.3,0.2-10.6c-1.1,0.4-2.2,0.8-3.2,1.4l0,0c-0.1,0.1-0.2,0.1-0.3,0.2c0,0,0,0-0.1,0l0,0
						c0,0,0,0-0.1,0c0,0-0.1,0-0.1,0.1c-0.1,0-0.1,0.1-0.2,0.1c-0.1,0-0.1,0.1-0.2,0.1c-0.1,0-0.1,0.1-0.2,0.1
						c-0.1,0-0.1,0.1-0.2,0.1c-0.1,0-0.1,0.1-0.2,0.1c-0.1,0-0.1,0.1-0.2,0.1c-0.1,0-0.1,0.1-0.2,0.1l-0.1,0.1
						c-0.1,0-0.1,0.1-0.2,0.1l-0.1,0.1c-0.1,0.1-0.2,0.2-0.3,0.2l-0.1,0.1c-0.1,0-0.1,0.1-0.2,0.1l-0.1,0.1c-0.1,0-0.1,0.1-0.2,0.1
						l-0.1,0.1l-0.1,0.1l-0.1,0.1l-0.1,0.1l-0.1,0.1l-0.1,0.1l-0.1,0.1l-0.1,0.1c0,0.1-0.1,0.1-0.1,0.2c-0.1,0.1-0.1,0.1-0.2,0.2
						c-0.1,0.1-0.2,0.2-0.2,0.3l-0.1,0.1c0,0.1-0.1,0.1-0.1,0.2l-0.1,0.1c0,0.1-0.1,0.1-0.1,0.2l-0.1,0.1c0,0.1-0.1,0.1-0.1,0.2
						l-0.1,0.1c0,0,0,0.1-0.1,0.1c0,0.1-0.1,0.1-0.1,0.2c0,0.1-0.1,0.1-0.1,0.2c0,0.1-0.1,0.1-0.1,0.2l-0.1,0.1c0,0,0,0,0,0.1
						s-0.1,0.1-0.1,0.2l-0.1,0.1c-0.1,0.1-0.2,0.2-0.2,0.4c-0.1,0.1-0.1,0.2-0.2,0.4c0,0,0,0.1-0.1,0.1c0,0.1-0.1,0.2-0.1,0.3
						c0,0,0,0.1-0.1,0.1c0,0.1-0.1,0.2-0.1,0.2c0,0.1,0,0.1-0.1,0.2c0,0.1-0.1,0.2-0.1,0.2c0,0.1,0,0.1-0.1,0.2
						c0,0.1-0.1,0.2-0.1,0.2s0,0.1-0.1,0.1c0,0.1-0.1,0.2-0.1,0.3v0.1c-0.1,0.1-0.1,0.3-0.1,0.4l0,0c0,0.1-0.1,0.2-0.1,0.4v0.1
						c0,0.1-0.1,0.2-0.1,0.3s0,0.1,0,0.2c0,0.1,0,0.1-0.1,0.2l0,0v0.1v0.1c0,0.1,0,0.2-0.1,0.2l0,0v0.1c-0.1,0.2-0.1,0.4-0.1,0.6
						l0,0C50.5,189.7,53.9,191.6,57.7,191.9"/>
				</g>
				<g>
					<defs>
						<rect id="SVGID_19_" x="45.8" y="170" width="40" height="40"/>
					</defs>
					<clipPath id="SVGID_20_">
						<use xlink:href="#SVGID_19_"  style="overflow:visible;"/>
					</clipPath>
					<path class="st26" d="M63.4,197.9c-0.3-0.1-0.6-0.2-0.9-0.3c-0.1,0-0.1,0-0.2-0.1l0,0c-0.8-0.4-1.5-0.8-2.1-1.4l0,0l-0.1-0.1
						c0,0,0,0-0.1-0.1c0,0,0,0-0.1-0.1l-0.1-0.1l0,0c-0.6-0.7-1.1-1.5-1.5-2.3l0,0c0-0.1-0.1-0.2-0.1-0.2v-0.1V193
						c-0.1-0.3-0.2-0.6-0.3-1c-3.8-0.3-7.2-2.2-9.1-5.4c-0.2,1.1-0.4,2.3-0.4,3.5l0,0v0.3v0.1l0,0v0.1v0.1c0,0.1,0,0.2,0,0.2
						c0,0.1,0,0.1,0,0.2c0,0.1,0,0.1,0,0.2c0,0.1,0,0.1,0,0.2c0,0.1,0,0.1,0,0.2c0,0.1,0,0.1,0,0.2c0,0.1,0,0.1,0,0.2
						c0,0.1,0,0.1,0,0.2c0,0.1,0,0.2,0,0.2c0,0.1,0,0.1,0,0.2c0,0.1,0,0.3,0.1,0.4c0,0.1,0,0.1,0,0.2c0,0.1,0,0.1,0,0.2
						c0,0.1,0,0.1,0,0.2c0,0.1,0,0.1,0,0.2c0,0.1,0,0.1,0,0.2c0,0.1,0,0.1,0,0.2c0,0.1,0,0.1,0,0.2c0,0.1,0,0.1,0,0.2
						c0,0.1,0,0.1,0.1,0.2c0,0.1,0,0.1,0.1,0.2c0,0.1,0,0.1,0.1,0.2c0,0.1,0,0.1,0.1,0.2c0,0.1,0,0.1,0.1,0.2c0,0.1,0,0.1,0.1,0.2
						c0,0.1,0.1,0.2,0.1,0.3s0,0.1,0.1,0.2c0,0.1,0.1,0.1,0.1,0.2c0,0.1,0,0.1,0.1,0.2c0,0.1,0.1,0.1,0.1,0.2c0,0.1,0,0.1,0.1,0.2
						c0,0.1,0.1,0.1,0.1,0.2c0,0.1,0,0.1,0.1,0.2v0.1c0,0.1,0.1,0.1,0.1,0.2c0,0.1,0.1,0.1,0.1,0.2c0,0.1,0.1,0.2,0.1,0.2
						s0,0.1,0.1,0.1c0,0,0,0,0,0.1s0.1,0.2,0.1,0.2s0,0.1,0.1,0.1c0.1,0.1,0.1,0.2,0.2,0.4c0.1,0.1,0.1,0.2,0.2,0.4
						c0,0,0,0.1,0.1,0.1c0.1,0.1,0.1,0.2,0.2,0.2l0.1,0.1c0,0.1,0.1,0.1,0.1,0.2l0.1,0.1c0,0.1,0.1,0.1,0.1,0.2l0.1,0.1
						c0.1,0.1,0.1,0.1,0.2,0.2l0.1,0.1c0.1,0.1,0.1,0.2,0.2,0.2l0.1,0.1c0.1,0.1,0.2,0.2,0.3,0.3l0,0c0.1,0.1,0.2,0.2,0.2,0.3
						l0.1,0.1c0.1,0.1,0.1,0.1,0.2,0.2l0.1,0.1c0,0.1,0.1,0.1,0.2,0.2l0,0c0,0,0,0,0.1,0.1c0,0,0,0,0.1,0.1s0.1,0.1,0.2,0.2l0,0
						c0,0,0.1,0,0.1,0.1c0.2,0.2,0.3,0.3,0.5,0.4l0,0C57.9,203,61.3,201,63.4,197.9"/>
				</g>
				<g>
					<defs>
						<rect id="SVGID_21_" x="45.8" y="170" width="40" height="40"/>
					</defs>
					<clipPath id="SVGID_22_">
						<use xlink:href="#SVGID_21_"  style="overflow:visible;"/>
					</clipPath>
					<path class="st27" d="M71.4,196c-0.2,0.2-0.5,0.4-0.8,0.6c0,0-0.1,0.1-0.2,0.1l0,0c-0.7,0.5-1.5,0.9-2.3,1.1l0,0
						c-0.1,0-0.1,0-0.2,0h-0.1h-0.1c-0.1,0-0.1,0-0.2,0l0,0c-0.9,0.2-1.8,0.3-2.8,0.2c0,0,0,0-0.1,0s-0.2,0-0.2,0h-0.1h-0.1
						c-0.3-0.1-0.7-0.1-1-0.2c-2.1,3.1-5.5,5.1-9.3,5.1c0.9,0.8,1.8,1.5,2.8,2.1l0,0c0.1,0.1,0.2,0.1,0.3,0.2c0,0,0,0,0.1,0l0,0
						c0,0,0,0,0.1,0h0.1c0.1,0,0.1,0.1,0.2,0.1c0.1,0,0.1,0.1,0.2,0.1c0.1,0,0.1,0.1,0.2,0.1c0.1,0,0.1,0.1,0.2,0.1
						c0.1,0,0.1,0.1,0.2,0.1c0.1,0,0.1,0.1,0.2,0.1c0.1,0,0.1,0.1,0.2,0.1c0.1,0,0.1,0,0.2,0.1c0.1,0,0.1,0.1,0.2,0.1
						c0.1,0,0.1,0,0.2,0.1c0.1,0,0.2,0.1,0.4,0.1c0.1,0,0.1,0,0.2,0.1c0.1,0,0.1,0.1,0.2,0.1c0.1,0,0.1,0,0.2,0.1
						c0.1,0,0.1,0,0.2,0.1c0.1,0,0.1,0,0.2,0.1c0.1,0,0.1,0,0.2,0.1c0.1,0,0.1,0,0.2,0.1c0.1,0,0.1,0,0.2,0.1c0.1,0,0.1,0,0.2,0.1
						c0.1,0,0.1,0,0.2,0c0.1,0,0.1,0,0.2,0c0.1,0,0.1,0,0.2,0c0.1,0,0.1,0,0.2,0c0.1,0,0.1,0,0.2,0c0.1,0,0.2,0,0.4,0.1
						c0.1,0,0.1,0,0.2,0c0.1,0,0.1,0,0.2,0c0.1,0,0.1,0,0.2,0c0.1,0,0.1,0,0.2,0c0.1,0,0.1,0,0.2,0c0.1,0,0.1,0,0.2,0s0.1,0,0.2,0
						h0.1c0.1,0,0.1,0,0.2,0s0.1,0,0.2,0s0.2,0,0.3,0c0.1,0,0.1,0,0.2,0h0.1c0.1,0,0.2,0,0.3,0h0.1c0.1,0,0.3,0,0.4,0s0.3,0,0.4,0
						h0.1c0.1,0,0.2,0,0.3,0c0.1,0,0.1,0,0.2,0s0.2,0,0.3,0c0.1,0,0.1,0,0.2,0s0.2,0,0.2,0c0.1,0,0.1,0,0.2,0s0.2,0,0.2,0h0.1
						c0.1,0,0.2,0,0.3,0h0.1c0.1,0,0.3,0,0.4-0.1l0,0c0.1,0,0.2,0,0.4-0.1h0.1c0.1,0,0.2,0,0.3-0.1c0.1,0,0.1,0,0.2,0s0.1,0,0.2-0.1
						l0,0h0.1h0.1c0.1,0,0.2,0,0.2-0.1l0,0h0.1c0.2-0.1,0.4-0.1,0.6-0.2l0,0C73.1,203.4,73.1,199.4,71.4,196"/>
				</g>
				<g>
					<defs>
						<rect id="SVGID_23_" x="45.8" y="170" width="40" height="40"/>
					</defs>
					<clipPath id="SVGID_24_">
						<use xlink:href="#SVGID_23_"  style="overflow:visible;"/>
					</clipPath>
					<path class="st28" d="M73.8,188.1c0.1,0.3,0.1,0.6,0.2,1c0,0.1,0,0.1,0,0.2l0,0c0.1,0.8,0,1.7-0.2,2.6l0,0c0,0.1,0,0.1,0,0.2
						v0.1v0.1c0,0.1,0,0.1,0,0.2l0,0c-0.3,0.9-0.7,1.7-1.2,2.5l0,0c0,0.1-0.1,0.1-0.2,0.2l-0.1,0.1c0,0,0,0.1-0.1,0.1
						c-0.2,0.3-0.4,0.5-0.7,0.7c1.6,3.4,1.7,7.3-0.2,10.6c1.1-0.4,2.2-0.8,3.2-1.4l0,0c0.1-0.1,0.2-0.1,0.3-0.2c0,0,0,0,0.1,0l0,0
						c0,0,0,0,0.1,0c0,0,0.1,0,0.1-0.1c0.1,0,0.1-0.1,0.2-0.1s0.1-0.1,0.2-0.1s0.1-0.1,0.2-0.1s0.1-0.1,0.2-0.1s0.1-0.1,0.2-0.1
						s0.1-0.1,0.2-0.1s0.1-0.1,0.2-0.1l0.1-0.1c0.1,0,0.1-0.1,0.2-0.1l0.1-0.1c0.1-0.1,0.2-0.2,0.3-0.2l0.1-0.1
						c0.1,0,0.1-0.1,0.2-0.1l0.1-0.1c0.1,0,0.1-0.1,0.2-0.1l0.1-0.1l0.1-0.1l0.1-0.1l0.1-0.1l0.1-0.1l0.1-0.1l0.1-0.1l0.1-0.1
						c0-0.1,0.1-0.1,0.1-0.2c0.1-0.1,0.1-0.1,0.2-0.2c0.1-0.1,0.2-0.2,0.2-0.3l0.1-0.1c0-0.1,0.1-0.1,0.1-0.2l0.1-0.1
						c0-0.1,0.1-0.1,0.1-0.2l0.1-0.1c0-0.1,0.1-0.1,0.1-0.2l0.1-0.1c0,0,0-0.1,0.1-0.1c0-0.1,0.1-0.1,0.1-0.2c0-0.1,0.1-0.1,0.1-0.2
						c0-0.1,0.1-0.1,0.1-0.2l0.1-0.1c0,0,0,0,0-0.1s0.1-0.1,0.1-0.2l0.1-0.1c0.1-0.1,0.2-0.3,0.2-0.4c0.1-0.1,0.1-0.3,0.2-0.4
						c0,0,0-0.1,0.1-0.1c0-0.1,0.1-0.2,0.1-0.2s0-0.1,0.1-0.1c0-0.1,0.1-0.2,0.1-0.2c0-0.1,0-0.1,0.1-0.2c0-0.1,0.1-0.2,0.1-0.2
						c0-0.1,0-0.1,0.1-0.2c0-0.1,0.1-0.2,0.1-0.2s0-0.1,0.1-0.1c0-0.1,0.1-0.2,0.1-0.3V197c0.1-0.1,0.1-0.3,0.1-0.4l0,0
						c0-0.1,0.1-0.2,0.1-0.4v-0.1c0-0.1,0.1-0.2,0.1-0.3s0-0.1,0-0.2c0-0.1,0-0.1,0.1-0.2l0,0v-0.1v-0.1c0-0.1,0-0.2,0.1-0.2l0,0
						v-0.1c0.1-0.2,0.1-0.4,0.1-0.6l0,0C81,190.3,77.6,188.4,73.8,188.1"/>
				</g>
				<g>
					<defs>
						<rect id="SVGID_25_" x="45.8" y="170" width="40" height="40"/>
					</defs>
					<clipPath id="SVGID_26_">
						<use xlink:href="#SVGID_25_"  style="overflow:visible;"/>
					</clipPath>
					<path class="st29" d="M68.1,182c0.3,0.1,0.6,0.2,0.9,0.3c0.1,0,0.1,0,0.2,0.1l0,0c0.8,0.4,1.5,0.8,2.1,1.4l0,0l0.1,0.1
						c0,0,0,0,0.1,0.1c0,0,0,0,0.1,0.1l0.1,0.1l0,0c0.6,0.7,1.1,1.5,1.5,2.3l0,0c0,0.1,0.1,0.2,0.1,0.2v0.1v0.1
						c0.1,0.3,0.2,0.6,0.3,1c3.8,0.3,7.2,2.2,9.1,5.4c0.2-1.1,0.4-2.3,0.4-3.5l0,0v-0.3v-0.1l0,0v-0.1v-0.1c0-0.1,0-0.2,0-0.2
						c0-0.1,0-0.1,0-0.2c0-0.1,0-0.1,0-0.2c0-0.1,0-0.1,0-0.2c0-0.1,0-0.1,0-0.2c0-0.1,0-0.1,0-0.2c0-0.1,0-0.1,0-0.2
						c0-0.1,0-0.1,0-0.2c0-0.1,0-0.2,0-0.2c0-0.1,0-0.1,0-0.2c0-0.1,0-0.2-0.1-0.4c0-0.1,0-0.1,0-0.2c0-0.1,0-0.1,0-0.2
						c0-0.1,0-0.1,0-0.2c0-0.1,0-0.1,0-0.2c0-0.1,0-0.1,0-0.2c0-0.1,0-0.1,0-0.2c0-0.1,0-0.1,0-0.2c0-0.1,0-0.1,0-0.2
						c0-0.1,0-0.1-0.1-0.2c0-0.1,0-0.1-0.1-0.2c0-0.1,0-0.1-0.1-0.2c0-0.1,0-0.1-0.1-0.2c0-0.1,0-0.1-0.1-0.2c0-0.1,0-0.1-0.1-0.2
						c0-0.1-0.1-0.2-0.1-0.3s0-0.1-0.1-0.2c0-0.1-0.1-0.1-0.1-0.2c0-0.1,0-0.1-0.1-0.2c0-0.1-0.1-0.1-0.1-0.2c0-0.1,0-0.1-0.1-0.2
						c0-0.1-0.1-0.1-0.1-0.2c0-0.1,0-0.1-0.1-0.2v-0.1c0-0.1-0.1-0.1-0.1-0.2c0-0.1-0.1-0.1-0.1-0.2c0-0.1-0.1-0.2-0.1-0.2
						s0-0.1-0.1-0.1c0,0,0,0,0-0.1s-0.1-0.2-0.1-0.2s0-0.1-0.1-0.1c-0.1-0.1-0.1-0.2-0.2-0.4c-0.1-0.1-0.1-0.2-0.2-0.4
						c0,0,0-0.1-0.1-0.1c-0.1-0.1-0.1-0.2-0.2-0.2l-0.1-0.1c0-0.1-0.1-0.1-0.1-0.2l-0.1-0.1c0-0.1-0.1-0.1-0.1-0.2l-0.1-0.1
						c-0.1-0.1-0.1-0.1-0.2-0.2l-0.1-0.1c-0.1-0.1-0.1-0.2-0.2-0.2l-0.1-0.1c-0.1-0.1-0.2-0.2-0.3-0.3l0,0c-0.1-0.1-0.2-0.2-0.2-0.3
						l-0.1-0.1c-0.1-0.1-0.1-0.1-0.2-0.2l-0.1-0.1c0-0.1-0.1-0.1-0.2-0.2l0,0c0,0,0,0-0.1-0.1c0,0,0,0-0.1-0.1s-0.1-0.1-0.2-0.2l0,0
						c0,0-0.1,0-0.1-0.1c-0.2-0.2-0.3-0.3-0.5-0.4l0,0C73.6,176.9,70.3,178.9,68.1,182"/>
				</g>
				<g>
					<defs>
						<rect id="SVGID_27_" x="45.8" y="170" width="40" height="40"/>
					</defs>
					<clipPath id="SVGID_28_">
						<use xlink:href="#SVGID_27_"  style="overflow:visible;"/>
					</clipPath>
					<path class="st30" d="M60,184c0.2-0.2,0.5-0.4,0.8-0.6c0,0,0.1-0.1,0.2-0.1l0,0c0.7-0.5,1.5-0.9,2.3-1.1l0,0c0.1,0,0.1,0,0.2,0
						h0.1h0.1c0.1,0,0.1,0,0.2,0l0,0c0.9-0.2,1.8-0.3,2.8-0.2c0,0,0,0,0.1,0s0.2,0,0.2,0h0.1h0.1c0.3,0.1,0.7,0.1,1,0.2
						c2.1-3.1,5.5-5.1,9.3-5.1c-0.9-0.8-1.8-1.5-2.8-2.1l0,0c-0.1-0.1-0.2-0.1-0.3-0.2c0,0,0,0-0.1,0l0,0c0,0,0,0-0.1,0h-0.1
						c-0.1,0-0.1-0.1-0.2-0.1s-0.1-0.1-0.2-0.1s-0.1-0.1-0.2-0.1s-0.1-0.1-0.2-0.1s-0.1-0.1-0.2-0.1s-0.1-0.1-0.2-0.1
						s-0.1-0.1-0.2-0.1s-0.1,0-0.2-0.1c-0.1,0-0.1-0.1-0.2-0.1s-0.1,0-0.2-0.1c-0.1,0-0.2-0.1-0.3-0.1c-0.1,0-0.1,0-0.2-0.1
						c-0.1,0-0.1-0.1-0.2-0.1s-0.1,0-0.2-0.1c-0.1,0-0.1,0-0.2-0.1c-0.1,0-0.1,0-0.2-0.1c-0.1,0-0.1,0-0.2-0.1c-0.1,0-0.1,0-0.2-0.1
						c-0.1,0-0.1,0-0.2-0.1c-0.1,0-0.1,0-0.2-0.1c-0.1,0-0.1,0-0.2,0s-0.1,0-0.2,0s-0.1,0-0.2,0s-0.1,0-0.2,0s-0.1,0-0.2,0
						s-0.2,0-0.4-0.1c-0.1,0-0.1,0-0.2,0s-0.1,0-0.2,0s-0.1,0-0.2,0s-0.1,0-0.2,0s-0.1,0-0.2,0s-0.1,0-0.2,0s-0.1,0-0.2,0h-0.1
						c-0.1,0-0.1,0-0.2,0s-0.1,0-0.2,0s-0.2,0-0.3,0c-0.1,0-0.1,0-0.2,0h-0.1c-0.1,0-0.2,0-0.3,0h-0.1c-0.1,0-0.3,0-0.4,0
						s-0.3,0-0.4,0h-0.1c-0.1,0-0.2,0-0.3,0c-0.1,0-0.1,0-0.2,0s-0.2,0-0.3,0c-0.1,0-0.1,0-0.2,0c-0.1,0-0.2,0-0.3,0s-0.1,0-0.2,0
						c-0.1,0-0.2,0-0.2,0H63c-0.1,0-0.2,0-0.3,0h-0.1c-0.1,0-0.3,0-0.4,0.1l0,0c-0.1,0-0.2,0-0.4,0.1h-0.1c-0.1,0-0.2,0-0.3,0.1
						c-0.1,0-0.1,0-0.2,0c-0.1,0-0.1,0-0.2,0.1l0,0h-0.1h-0.1c-0.1,0-0.2,0-0.2,0.1l0,0h-0.1c-0.2,0.1-0.4,0.1-0.6,0.2l0,0
						C58.4,176.6,58.4,180.6,60,184"/>
				</g>
			</g>
		</g>
	</g>
</g>
</svg>
