<svg xmlns="http://www.w3.org/2000/svg" xmlns:xlink="http://www.w3.org/1999/xlink" viewBox="0 0 780 585">
  <defs>
    <style>
      .cls-1, .cls-13, .cls-8 {
        fill: #fff;
      }

      .cls-2 {
        fill: url(#linear-gradient);
      }

      .cls-3 {
        fill: url(#linear-gradient-2);
      }

      .cls-25, .cls-26, .cls-4, .cls-6, .cls-7 {
        fill: none;
      }

      .cls-5 {
        fill: #f4f4f4;
      }

      .cls-5, .cls-6, .cls-8 {
        stroke: #0f62fe;
      }

      .cls-13, .cls-25, .cls-26, .cls-5, .cls-6, .cls-7, .cls-8 {
        stroke-miterlimit: 10;
      }

      .cls-5, .cls-6, .cls-7, .cls-8 {
        stroke-width: 2px;
      }

      .cls-7 {
        stroke: #979797;
        stroke-dasharray: 4 4;
      }

      .cls-9 {
        fill: #fd783d;
      }

      .cls-10 {
        fill: #fda578;
      }

      .cls-11 {
        fill: #1cb3a0;
      }

      .cls-12 {
        fill: #4ad5c3;
      }

      .cls-13 {
        stroke: #000;
      }

      .cls-14 {
        mask: url(#mask);
      }

      .cls-15 {
        fill: url(#linear-gradient-3);
      }

      .cls-16 {
        fill: #001d6c;
      }

      .cls-17 {
        clip-path: url(#clip-path);
      }

      .cls-18 {
        fill: #243238;
      }

      .cls-19 {
        fill: #3b4b54;
      }

      .cls-20 {
        fill: #0883a5;
      }

      .cls-21 {
        fill: #00aed1;
      }

      .cls-22 {
        fill: #027c68;
      }

      .cls-23 {
        fill: #00b199;
      }

      .cls-24 {
        fill: #4d9bd6;
      }

      .cls-25, .cls-26 {
        stroke: #fff;
      }

      .cls-26 {
        stroke-width: 0.75px;
      }

      .cls-27 {
        fill: #4090fc;
      }

      .cls-28 {
        clip-path: url(#clip-path-8);
      }

      .cls-29 {
        mask: url(#mask-2);
      }

      .cls-30 {
        fill: url(#linear-gradient-4);
      }

      .cls-31 {
        fill: #032068;
      }

      .cls-32 {
        fill: #2e3737;
      }

      .cls-33 {
        fill: #586565;
      }

      .cls-34 {
        fill: #fce77f;
      }

      .cls-35 {
        fill: #fcd432;
      }

      .cls-36 {
        fill: #030506;
      }

      .cls-37 {
        fill: #3d4747;
      }

      .cls-38 {
        fill: #975ad1;
      }

      .cls-39 {
        fill: #fc42a0;
      }

      .cls-40 {
        fill: #64bc46;
      }

      .cls-41 {
        clip-path: url(#clip-path-15);
      }

      .cls-42 {
        clip-path: url(#clip-path-22);
      }

      .cls-43, .cls-46, .cls-51, .cls-54 {
        font-size: 14px;
      }

      .cls-43, .cls-46, .cls-51, .cls-54, .cls-56 {
        font-family: IBMPlexSans-Medium, IBM Plex Sans;
        font-weight: 500;
      }

      .cls-43, .cls-52 {
        letter-spacing: -0.002em;
      }

      .cls-44 {
        letter-spacing: -0.006em;
      }

      .cls-45 {
        letter-spacing: 0em;
      }

      .cls-47 {
        letter-spacing: -0.008em;
      }

      .cls-48 {
        letter-spacing: -0.004em;
      }

      .cls-49 {
        letter-spacing: 0.009em;
      }

      .cls-50 {
        letter-spacing: 0.004em;
      }

      .cls-51, .cls-54 {
        fill: #161616;
      }

      .cls-51 {
        letter-spacing: 0.011em;
      }

      .cls-53 {
        letter-spacing: -0.006em;
      }

      .cls-54 {
        letter-spacing: 0.011em;
      }

      .cls-55 {
        letter-spacing: 0.011em;
      }

      .cls-56 {
        font-size: 24px;
        letter-spacing: -0.013em;
      }

      .cls-57 {
        letter-spacing: 0em;
      }

      .cls-58 {
        fill: #36c5f0;
      }

      .cls-58, .cls-59, .cls-60, .cls-61 {
        fill-rule: evenodd;
      }

      .cls-59 {
        fill: #2eb67d;
      }

      .cls-60 {
        fill: #ecb22e;
      }

      .cls-61 {
        fill: #e01e5a;
      }
    </style>
    <linearGradient id="linear-gradient" x1="-1259.659" y1="279.205" x2="-1248.666" y2="279.205" gradientTransform="matrix(-1, 0, 0, 1, -1212.442, -213.1)" gradientUnits="userSpaceOnUse">
      <stop offset="0.1"/>
      <stop offset="0.888" stop-opacity="0"/>
    </linearGradient>
    <linearGradient id="linear-gradient-2" x1="323.987" y1="415.57" x2="345.987" y2="393.57" gradientUnits="userSpaceOnUse">
      <stop offset="0.13" stop-opacity="0"/>
      <stop offset="0.38"/>
    </linearGradient>
    <mask id="mask" x="32.237" y="44.82" width="32" height="32" maskUnits="userSpaceOnUse">
      <g id="afac53f5-c6a4-40e3-928e-9bcc76645886">
        <g>
          <g>
            <circle id="eca6f531-9879-40b3-9cc1-6122fcc1cb75" class="cls-1" cx="39.222" cy="70.105" r="1"/>
            <path id="acda2a1e-670b-45a7-a9c9-edda2b023212" class="cls-1" d="M60.208,65.105h-2v2h2v6H36.224v-6h9.994v-2H36.224a2,2,0,0,0-2,2v6a2,2,0,0,0,2,2H60.208a2,2,0,0,0,2-2v-6A2,2,0,0,0,60.208,65.105Z"/>
          </g>
          <rect class="cls-2" x="36.224" y="64.105" width="10.993" height="4"/>
        </g>
      </g>
    </mask>
    <linearGradient id="linear-gradient-3" x1="32.237" y1="-339.67" x2="64.237" y2="-307.67" gradientTransform="matrix(1, 0, 0, -1, 0, -262.849)" gradientUnits="userSpaceOnUse">
      <stop offset="0.1" stop-color="#a56eff"/>
      <stop offset="0.9" stop-color="#0f62fe"/>
    </linearGradient>
    <clipPath id="clip-path">
      <rect class="cls-4" x="146.807" y="328.82" width="40" height="40"/>
    </clipPath>
    <clipPath id="clip-path-8">
      <rect class="cls-4" x="706.237" y="330.82" width="40" height="40"/>
    </clipPath>
    <mask id="mask-2" x="312.237" y="387.82" width="32" height="32" maskUnits="userSpaceOnUse">
      <g>
        <path class="cls-1" d="M336.237,391.82v14.3a9.023,9.023,0,0,1-4.5,7.794l-4.5,2.6-4.5-2.6a9.024,9.024,0,0,1-4.5-7.794v-14.3h18m0-2h-18a2,2,0,0,0-2,2v14.3a11,11,0,0,0,5.5,9.526l5.5,3.175,5.5-3.175a11,11,0,0,0,5.5-9.526v-14.3a2,2,0,0,0-2-2Z"/>
        <polygon class="cls-3" points="327.237 418.82 341.237 418.82 341.237 388.82 330.237 388.82 330.237 394.82 327.237 394.82 327.237 418.82"/>
      </g>
    </mask>
    <linearGradient id="linear-gradient-4" x1="312.237" y1="419.82" x2="344.237" y2="387.82" gradientUnits="userSpaceOnUse">
      <stop offset="0.1" stop-color="#9b76f6"/>
      <stop offset="0.9" stop-color="#2467f4"/>
    </linearGradient>
    <clipPath id="clip-path-15">
      <rect class="cls-4" x="146.807" y="41.82" width="40" height="40"/>
    </clipPath>
    <clipPath id="clip-path-22">
      <rect class="cls-4" x="146.807" y="186.412" width="40" height="40"/>
    </clipPath>
  </defs>
  <g id="Lines_backgroud">
    <rect id="Pipeline_box" class="cls-5" x="264.237" y="204.82" width="354" height="288"/>
    <g id="Arrow">
      <line class="cls-6" x1="692.19" y1="348.82" x2="618.363" y2="348.82"/>
      <polyline class="cls-6" points="664.527 381.111 693.637 349.111 664.527 317.111"/>
    </g>
    <g id="Lines">
      <line class="cls-6" x1="199.237" y1="348.82" x2="263.237" y2="349.29"/>
      <polyline class="cls-6" points="200.237 204.82 236.237 204.79 236.365 492.82 200.237 492.82"/>
    </g>
    <line id="Dashed_line2" data-name="Dashed line2" class="cls-7" x1="80.237" y1="61.82" x2="136.237" y2="61.82"/>
    <line id="Dashed_lin1" data-name="Dashed lin1" class="cls-7" x1="167.237" y1="173.82" x2="167.237" y2="121.82"/>
    <line id="Dashed_line" data-name="Dashed line" class="cls-7" x1="167.237" y1="459.82" x2="167.237" y2="403.82"/>
    <line id="Dashed_lin1-2" data-name="Dashed lin1" class="cls-7" x1="167.237" y1="317.82" x2="167.237" y2="265.82"/>
  </g>
  <g id="Icons">
    <g id="CI_CD">
      <circle class="cls-8" cx="328.237" cy="153.82" r="32"/>
      <g id="CI_CD_icon">
        <g id="e18fe981-7760-4f0f-92d6-295e583f5df5">
          <g>
            <path class="cls-9" d="M341.618,156.266c-1.549,6.288-6.759,10.9-13.377,10.9a12.338,12.338,0,0,1-10.42-5.17L325,154.589l.844.838-.844-.838h0l1.126,1.258,1.69-5.869-5.773,1.677,1.126,1.117-1.69,1.957-4.928,5.03a12.444,12.444,0,0,1-1.689-5.449l-2.113-3.075a10.536,10.536,0,0,0-.14,2.236,16.056,16.056,0,0,0,31.259,5.45Z"/>
            <polyline class="cls-10" points="316.273 159.759 323.031 152.772 322.046 151.655 327.819 149.978 317.821 159.899"/>
          </g>
          <g>
            <path class="cls-10" d="M327.881,169.541a16.25,16.25,0,0,0,15.207-10.9l-1.126-1.257a14.583,14.583,0,0,1-28.725-3.913v-.7l-.844-1.537a10.471,10.471,0,0,0-.141,2.236A15.655,15.655,0,0,0,327.5,169.534C327.628,169.538,327.754,169.54,327.881,169.541Z"/>
            <line class="cls-4" x1="316.273" y1="159.899" x2="317.821" y2="160.458"/>
          </g>
        </g>
        <g id="b4a44eff-a6ab-4c1f-a314-3899682236f1">
          <g>
            <path class="cls-11" d="M315.146,151.1c1.549-6.289,6.759-10.9,13.377-10.9a12.335,12.335,0,0,1,10.419,5.17l-7.181,7.406-.564-.838.845.838h0l-1.267-1.257-1.69,5.869,5.773-1.677-1.126-1.118,1.971-1.956,4.928-5.031a16.4,16.4,0,0,1,1.549,5.45l2.112,3.074a9.16,9.16,0,0,0,.141-1.956,16.255,16.255,0,0,0-16.052-16.35,16.029,16.029,0,0,0-14.925,10.9Z"/>
            <polyline class="cls-12" points="339.083 145.366 331.761 152.772 330.776 151.515 329.086 157.384 338.802 147.323"/>
          </g>
          <g>
            <path class="cls-12" d="M328.594,137.82a16.252,16.252,0,0,0-15.208,10.9l1.127,1.258a14.582,14.582,0,0,1,28.724,3.912v.7l1.127,1.537a9.16,9.16,0,0,0,.141-1.956C344.364,144.947,337.324,137.82,328.594,137.82Z"/>
            <line class="cls-4" x1="340.491" y1="147.323" x2="339.083" y2="146.903"/>
          </g>
        </g>
      </g>
    </g>
    <g id="COS">
      <circle class="cls-13" cx="47.737" cy="61.32" r="32"/>
      <g id="COS_icon">
        <g class="cls-14">
          <rect class="cls-15" x="32.237" y="44.82" width="32" height="32"/>
        </g>
        <path id="bd9e3a7e-0626-4171-a5c2-44c7fca87100" class="cls-16" d="M45.237,54.82h-8v-8h8Zm-6-2h4v-4h-4Z"/>
        <path class="cls-16" d="M51.237,58.82h-6v8h8v-6h6v-8h-8Zm0,6h-4v-4h4Zm6-10v4h-4v-4Z"/>
      </g>
    </g>
    <g id="Inventory">
      <circle class="cls-13" cx="167.307" cy="348.32" r="32"/>
      <g id="Inv_icon">
        <g class="cls-17">
          <g>
            <g class="cls-17">
              <path class="cls-18" d="M159,350.748a8.048,8.048,0,0,1-.172-.993,1.126,1.126,0,0,1-.02-.182v-.021a8.375,8.375,0,0,1,.182-2.6c0-.01.01-.01.01-.03.02-.051.02-.112.04-.163a.268.268,0,0,0,.021-.091c.01-.03.01-.06.02-.091.02-.051.03-.111.051-.162,0-.01.01-.01.01-.03a8,8,0,0,1,1.255-2.492.131.131,0,0,1,.03-.041c.051-.071.1-.132.152-.2a.779.779,0,0,1,.081-.1c.02-.03.051-.051.071-.081a8.163,8.163,0,0,1,.688-.739,11.362,11.362,0,0,1,.193-10.708,17.861,17.861,0,0,0-3.219,1.428.034.034,0,0,1-.021.01c-.091.051-.182.112-.273.162-.02.01-.051.031-.071.041a.01.01,0,0,0-.01.01c-.02.01-.051.02-.061.041a.379.379,0,0,0-.081.05c-.061.041-.131.081-.192.122s-.1.071-.152.1a1.927,1.927,0,0,0-.182.122c-.051.04-.1.071-.152.111s-.111.081-.172.122-.1.071-.152.111a1.976,1.976,0,0,0-.172.132c-.051.04-.1.071-.152.111a1.181,1.181,0,0,0-.172.142,1.559,1.559,0,0,1-.142.111l-.3.244c-.05.04-.091.081-.131.111s-.112.1-.172.152a.809.809,0,0,0-.142.132,1.955,1.955,0,0,0-.152.141c-.04.051-.1.092-.142.142s-.1.091-.151.142-.1.091-.152.142a1.9,1.9,0,0,1-.142.142c-.041.05-.1.1-.142.142a1.874,1.874,0,0,0-.141.141,1.9,1.9,0,0,1-.142.142,1.84,1.84,0,0,0-.132.142c-.05.051-.091.1-.142.152s-.1.122-.151.172c-.081.091-.162.183-.233.274a.746.746,0,0,0-.112.142c-.05.05-.091.111-.141.172a1.288,1.288,0,0,0-.112.142,1.068,1.068,0,0,0-.131.172,1.6,1.6,0,0,0-.112.142c-.04.06-.081.111-.131.182a1.76,1.76,0,0,0-.112.142.475.475,0,0,0-.06.091c-.041.051-.071.1-.112.152s-.071.1-.111.152a1.639,1.639,0,0,1-.152.213c-.03.04-.051.081-.081.121-.01.01-.02.041-.03.051-.041.071-.091.142-.142.213-.02.04-.051.081-.071.121-.081.122-.152.253-.223.375s-.141.253-.2.375c-.02.04-.051.081-.071.121-.051.081-.091.173-.142.254a.925.925,0,0,1-.081.141,1.811,1.811,0,0,0-.111.244.578.578,0,0,1-.081.152c-.041.081-.071.152-.111.233-.021.05-.051.1-.071.152-.041.081-.071.162-.112.233a1.476,1.476,0,0,0-.06.141c-.041.092-.071.183-.112.274-.01.04-.03.081-.04.121l-.152.4a.037.037,0,0,0-.01.03c-.051.121-.081.243-.122.365-.02.05-.03.091-.05.131-.031.081-.051.173-.081.264-.021.05-.031.111-.051.152l-.061.212a.064.064,0,0,0-.01.041c-.01.03-.02.061-.03.1s-.01.061-.02.091c-.021.081-.041.152-.061.233,0,.011-.01.021-.01.031a.364.364,0,0,0-.021.1l-.151.638v.01A11.473,11.473,0,0,0,159,350.748"/>
            </g>
            <g class="cls-17">
              <path class="cls-19" d="M164.917,356.69a8.706,8.706,0,0,1-.93-.34c-.05-.02-.11-.05-.17-.08a.035.035,0,0,1-.02-.01,8.04,8.04,0,0,1-2.138-1.44l-.02-.02c-.04-.04-.08-.07-.12-.11a.462.462,0,0,0-.07-.07l-.07-.07-.11-.11c-.01-.01-.02-.01-.02-.02a8.281,8.281,0,0,1-1.519-2.3.076.076,0,0,1-.02-.04c-.03-.08-.06-.15-.09-.23-.02-.04-.03-.07-.05-.11a.76.76,0,0,0-.04-.11c-.11-.32-.21-.64-.29-.96a11.241,11.241,0,0,1-9.074-5.45,16.655,16.655,0,0,0-.359,3.46v.6c0,.07.01.15.01.23,0,.06.01.12.01.18s.01.15.02.21a1.087,1.087,0,0,1,.01.18c.01.07.01.14.02.21a1.087,1.087,0,0,1,.01.18,1.646,1.646,0,0,1,.02.21c.009.06.009.12.019.18s.02.15.03.22c.01.05.01.11.02.17.02.12.04.25.06.37.01.05.02.11.03.17.02.08.02.14.04.22a1.286,1.286,0,0,0,.04.19c.02.07.02.13.04.2s.03.13.05.19.03.13.05.19.03.13.05.2.03.12.05.18a1.462,1.462,0,0,0,.05.2,1.209,1.209,0,0,0,.05.18c.01.07.04.13.05.2a1.209,1.209,0,0,1,.05.18c.02.07.04.13.06.2a1.293,1.293,0,0,0,.07.21c.04.12.08.23.11.34.02.05.04.11.06.17a1.192,1.192,0,0,0,.08.2.851.851,0,0,1,.06.17,1.192,1.192,0,0,0,.08.2c.02.05.05.11.07.16.03.07.05.14.08.2s.05.11.07.16c.01.03.03.07.04.1.02.05.05.11.079.17s.05.11.08.17a1.627,1.627,0,0,1,.11.23c.02.04.05.09.07.14.01.01.01.04.03.05a2.256,2.256,0,0,1,.11.22.826.826,0,0,0,.07.13c.07.13.14.25.21.38s.14.24.22.36a.444.444,0,0,0,.08.11l.15.24c.03.04.06.09.09.14.05.08.1.14.15.22.03.04.06.09.1.14.049.07.1.14.139.21a1.7,1.7,0,0,1,.1.14l.15.21c.03.04.06.08.1.13.06.08.11.15.17.22.03.04.05.07.08.11.08.11.18.21.26.32a.077.077,0,0,1,.02.03c.08.1.16.19.24.28.03.04.06.07.09.11.06.07.12.14.18.2l.109.11c.05.05.1.11.15.15l.03.03a.462.462,0,0,1,.07.07.462.462,0,0,1,.07.07l.17.17c.01.01.02.01.02.02.02.02.05.04.08.07.15.15.31.29.48.44h.01a11.265,11.265,0,0,0,9.284-5.13"/>
            </g>
            <g class="cls-17">
              <path class="cls-20" d="M172.738,354.39a7.685,7.685,0,0,1-.759.63c-.05.04-.1.07-.15.11a.031.031,0,0,1-.02.01,8.324,8.324,0,0,1-2.319,1.13c-.01,0-.02.01-.03.01-.049.01-.109.03-.159.04-.03.01-.06.01-.09.02s-.06.01-.09.02a.936.936,0,0,0-.16.04c-.01,0-.02.01-.03.01a8.236,8.236,0,0,1-2.748.16c-.01,0-.04,0-.05-.01l-.24-.03c-.04-.01-.08-.01-.12-.02a.425.425,0,0,0-.11-.02c-.33-.06-.65-.14-.969-.23a11.257,11.257,0,0,1-9.264,5.13,17.2,17.2,0,0,0,2.818,2.05l.02.02c.09.05.18.11.27.15a.251.251,0,0,1,.07.04c.01,0,.01.01.02.01.02.02.04.02.07.04s.05.03.08.04c.069.04.139.07.2.11a1.29,1.29,0,0,1,.16.09c.06.03.13.07.19.1s.11.05.17.08.13.06.19.09a1.3,1.3,0,0,1,.17.08,1.667,1.667,0,0,0,.2.08c.05.02.11.05.17.08a1.789,1.789,0,0,0,.209.08,1.111,1.111,0,0,1,.16.07c.11.04.24.09.35.14.05.02.11.04.16.06a1.8,1.8,0,0,1,.21.08l.18.06c.06.02.13.04.19.06s.13.04.189.06.12.04.19.06a1.332,1.332,0,0,0,.19.05c.06.01.12.04.18.05s.13.04.2.05a1.163,1.163,0,0,0,.18.04c.07.02.13.03.2.05s.12.03.18.04.13.03.2.05a1.742,1.742,0,0,1,.22.05c.11.02.24.05.35.07.06.01.11.02.18.03a1.552,1.552,0,0,1,.21.04,1.01,1.01,0,0,1,.17.03c.07.01.15.02.21.03s.11.01.169.02a1.646,1.646,0,0,0,.21.02.985.985,0,0,0,.17.02c.04,0,.08.01.11.01a1.087,1.087,0,0,0,.18.01c.06.01.12.01.19.02a2.175,2.175,0,0,0,.26.01c.05,0,.1.01.15.01h.06c.08,0,.169.01.249.01.04,0,.1.01.14.01.15,0,.29.01.43.01s.28,0,.42-.01a.66.66,0,0,0,.14-.01c.1,0,.19-.01.289-.01.05,0,.11-.01.16-.01a2.26,2.26,0,0,1,.26-.01c.05-.01.11-.01.17-.02.08-.01.17-.01.25-.02.05-.01.11-.01.17-.02l.24-.03c.05-.01.1-.01.14-.02.1-.02.209-.03.309-.04a.615.615,0,0,1,.13-.01c.14-.02.27-.04.41-.07.02,0,.02-.01.04-.01.12-.02.24-.05.37-.07l.14-.03a2.539,2.539,0,0,0,.269-.06.936.936,0,0,0,.16-.04c.07-.02.14-.03.21-.05.01,0,.03-.01.04-.01.03-.01.07-.01.1-.02l.09-.02.23-.06c.01,0,.02-.01.03-.01l.1-.03c.2-.06.41-.12.619-.19l.01-.01a11.187,11.187,0,0,0,.19-10.57"/>
            </g>
            <g class="cls-17">
              <path class="cls-21" d="M174.625,346.749a8.144,8.144,0,0,1,.172.987,1.111,1.111,0,0,1,.01.182v.02a8.056,8.056,0,0,1-.182,2.589c0,.01-.01.02-.01.03a.947.947,0,0,1-.04.161.3.3,0,0,0-.02.091c-.01.03-.01.06-.02.09a1.068,1.068,0,0,0-.041.162c0,.01-.01.01-.01.03a8.062,8.062,0,0,1-1.248,2.478c-.01.01-.02.03-.03.04-.05.071-.1.131-.151.2a.7.7,0,0,1-.081.1c-.02.03-.05.05-.07.08a7.956,7.956,0,0,1-.685.736,11.327,11.327,0,0,1-.191,10.648,18.572,18.572,0,0,0,3.2-1.421.032.032,0,0,1,.021-.01c.09-.05.181-.111.271-.161a.165.165,0,0,1,.071-.04c.01,0,.01-.011.01-.011.02-.02.05-.02.06-.04a.9.9,0,0,0,.091-.05c.06-.041.131-.081.191-.121s.1-.071.151-.1l.181-.121c.051-.04.1-.07.151-.111s.111-.08.172-.12.1-.071.151-.111.11-.081.171-.131c.04-.04.1-.071.141-.111.06-.05.12-.091.181-.141a1.577,1.577,0,0,1,.141-.111l.3-.242a1.73,1.73,0,0,0,.131-.12c.05-.041.12-.1.171-.142s.1-.08.141-.13.1-.091.151-.142a1.875,1.875,0,0,0,.141-.141c.04-.05.1-.09.151-.141s.1-.09.141-.141l.141-.141.151-.151c.04-.05.09-.09.14-.141a.989.989,0,0,1,.141-.141c.041-.04.081-.09.131-.141s.091-.1.141-.151.1-.111.151-.171c.081-.091.161-.182.232-.272a.852.852,0,0,0,.111-.141,1.851,1.851,0,0,1,.14-.161,1.338,1.338,0,0,0,.111-.141,1.781,1.781,0,0,0,.131-.172,1.577,1.577,0,0,0,.111-.141c.04-.06.08-.111.131-.181.04-.05.07-.091.11-.141a.439.439,0,0,0,.061-.091c.04-.05.07-.1.111-.151s.07-.1.11-.151c.051-.07.091-.151.141-.212.03-.04.051-.08.081-.12a.207.207,0,0,1,.03-.051c.04-.07.091-.141.141-.211a.79.79,0,0,1,.08-.121c.081-.121.151-.252.222-.373s.141-.252.211-.373a.809.809,0,0,1,.071-.121c.05-.08.09-.171.141-.251a.492.492,0,0,1,.08-.141,1.721,1.721,0,0,0,.111-.242.518.518,0,0,1,.081-.151c.04-.071.07-.151.11-.232.02-.05.051-.1.071-.151.04-.081.07-.161.111-.242a.852.852,0,0,0,.06-.141c.04-.091.07-.181.111-.272.02-.04.03-.08.05-.121.05-.131.1-.262.141-.393.01-.01.01-.02.02-.03.04-.121.081-.232.121-.363.02-.04.03-.09.05-.131.03-.08.051-.181.081-.261.02-.051.03-.111.05-.152l.061-.211c.01-.01.01-.03.02-.05s.02-.061.03-.1.01-.061.02-.091c.02-.08.04-.151.06-.232,0-.01.01-.02.01-.03.011-.03.011-.07.021-.1l.151-.635v-.01a11.591,11.591,0,0,0-9.182-5.42"/>
            </g>
            <g class="cls-17">
              <path class="cls-22" d="M169.7,340.92a8.77,8.77,0,0,1,.929.34c.05.02.11.05.17.08a.035.035,0,0,1,.02.01,8.285,8.285,0,0,1,2.138,1.44c.01.01.02.01.02.02.04.04.08.07.12.11a.462.462,0,0,0,.07.07l.07.07.11.11c.01.01.02.01.02.02a8.281,8.281,0,0,1,1.519,2.3c.01.02.02.03.02.05.03.08.06.15.09.23.02.04.03.08.05.12a.76.76,0,0,0,.04.11c.11.32.21.64.29.96a11.241,11.241,0,0,1,9.074,5.45,17.363,17.363,0,0,0,.36-3.46v-.6c0-.08-.01-.15-.01-.23,0-.06-.01-.12-.01-.18s-.01-.14-.02-.21-.01-.12-.02-.18a1.548,1.548,0,0,1-.01-.21c-.01-.06-.01-.12-.02-.18a1.646,1.646,0,0,1-.02-.21c-.01-.06-.01-.12-.02-.18s-.02-.15-.03-.22a.881.881,0,0,1-.02-.17c-.02-.12-.04-.25-.06-.37-.01-.05-.02-.11-.03-.17-.02-.08-.02-.15-.04-.22s-.02-.13-.04-.19-.02-.13-.04-.2a1.286,1.286,0,0,1-.04-.19c-.02-.06-.03-.13-.05-.19s-.03-.13-.05-.2a1.209,1.209,0,0,0-.05-.18c-.02-.07-.03-.13-.05-.2a1.209,1.209,0,0,0-.05-.18c-.01-.07-.04-.13-.05-.2s-.04-.12-.05-.18-.04-.13-.06-.2-.05-.14-.07-.21c-.04-.11-.08-.23-.11-.33-.02-.05-.04-.11-.06-.17a1.192,1.192,0,0,0-.08-.2.851.851,0,0,1-.06-.17,1.192,1.192,0,0,0-.08-.2c-.02-.05-.05-.11-.07-.16-.03-.07-.049-.14-.079-.2s-.05-.11-.07-.16c-.02-.03-.03-.07-.05-.1-.02-.05-.05-.11-.08-.17s-.05-.11-.08-.17a2.4,2.4,0,0,1-.11-.23c-.02-.04-.05-.09-.07-.14-.01-.01-.02-.04-.03-.05-.04-.08-.08-.15-.11-.22a.826.826,0,0,0-.07-.13c-.07-.13-.14-.25-.21-.38s-.14-.24-.22-.36a.444.444,0,0,0-.08-.11l-.15-.24c-.03-.05-.06-.09-.09-.14-.05-.07-.1-.14-.149-.22-.03-.04-.06-.09-.1-.14-.05-.07-.1-.14-.14-.21-.03-.05-.07-.09-.1-.14l-.15-.21c-.03-.04-.06-.08-.1-.13-.06-.08-.11-.15-.17-.22-.03-.04-.05-.07-.08-.11-.08-.11-.18-.21-.26-.32a.077.077,0,0,1-.02-.03c-.08-.1-.16-.19-.24-.28-.03-.04-.059-.07-.089-.11-.06-.07-.12-.14-.18-.2l-.11-.11c-.05-.05-.1-.11-.15-.15l-.03-.03-.07-.07-.07-.07-.17-.17-.02-.02c-.02-.02-.05-.04-.08-.07-.15-.15-.31-.3-.48-.44h-.01a11.2,11.2,0,0,0-9.273,5.1"/>
            </g>
            <g class="cls-17">
              <path class="cls-23" d="M161.376,342.23a6.766,6.766,0,0,1,.759-.63c.05-.04.1-.07.15-.11.01-.01.02-.01.02-.02a8.324,8.324,0,0,1,2.319-1.13c.01,0,.02-.01.03-.01.05-.01.11-.03.16-.04.03-.01.06-.01.089-.02a.292.292,0,0,1,.09-.02c.05-.02.11-.02.16-.04.01,0,.02-.01.03-.01a8.236,8.236,0,0,1,2.748-.16.075.075,0,0,1,.05.01l.24.03c.04.01.08.01.12.02a.41.41,0,0,0,.11.01c.33.06.65.14.97.23a11.254,11.254,0,0,1,9.263-5.13,17.757,17.757,0,0,0-2.818-2.05.031.031,0,0,0-.02-.01c-.09-.05-.18-.11-.27-.15a.233.233,0,0,1-.069-.04.01.01,0,0,1-.01-.01c-.02-.02-.05-.02-.07-.04s-.05-.03-.08-.04c-.07-.04-.14-.07-.2-.11s-.11-.05-.16-.08-.13-.07-.19-.1-.11-.05-.17-.08-.13-.06-.19-.09-.11-.05-.17-.08a1.667,1.667,0,0,0-.2-.08c-.05-.02-.109-.04-.169-.07a1.8,1.8,0,0,0-.21-.08c-.05-.02-.11-.05-.16-.07-.11-.05-.24-.09-.35-.14-.05-.02-.11-.04-.16-.06a1.8,1.8,0,0,1-.21-.08l-.18-.06c-.06-.02-.13-.04-.189-.06s-.13-.04-.19-.06-.12-.04-.19-.06a1.332,1.332,0,0,0-.19-.05c-.06-.01-.12-.04-.18-.05a1.462,1.462,0,0,0-.2-.05,1.209,1.209,0,0,1-.18-.05c-.07-.01-.13-.03-.2-.04s-.12-.03-.179-.04-.13-.03-.2-.05a1.419,1.419,0,0,1-.22-.05c-.11-.02-.24-.04-.35-.07l-.17-.03a1.552,1.552,0,0,1-.21-.04,1.127,1.127,0,0,1-.18-.03l-.209-.03c-.06-.01-.11-.01-.17-.02s-.14-.01-.21-.02a1.028,1.028,0,0,0-.18-.01c-.04,0-.08-.01-.11-.01a1.087,1.087,0,0,0-.18-.01,1.148,1.148,0,0,0-.19-.01c-.08-.01-.17-.01-.26-.02-.05,0-.1-.01-.15-.01h-.059c-.08,0-.17-.01-.25-.01-.05,0-.1-.01-.14-.01-.14,0-.29-.01-.43-.01s-.28,0-.42.01a.66.66,0,0,0-.14.01c-.1,0-.189.01-.289.01-.05,0-.11.01-.16.01-.09.01-.17.01-.26.02a.97.97,0,0,1-.17.01c-.08.01-.17.01-.25.02a.915.915,0,0,1-.17.01l-.24.03c-.05.01-.1.01-.139.02-.1.02-.21.03-.31.04a.615.615,0,0,1-.13.01c-.14.02-.27.05-.41.07-.01,0-.02.01-.04.01-.12.02-.24.04-.37.07-.04.01-.09.02-.14.03-.089.01-.169.04-.269.06a.936.936,0,0,0-.16.04,1.6,1.6,0,0,0-.21.05c-.02,0-.03.01-.05.01s-.07.01-.1.02-.06.01-.09.02l-.23.06c-.01,0-.02.01-.03.01-.03.01-.07.02-.1.03-.21.06-.409.12-.619.19l-.01.01a11.223,11.223,0,0,0-.18,10.56"/>
            </g>
          </g>
        </g>
      </g>
    </g>
    <g id="Artifacts">
      <circle class="cls-13" cx="167.307" cy="492.32" r="32"/>
      <g id="Art_icon">
        <path d="M179.807,486.82v-2h-2v-2h-22v2h-2v2h-2v16h30v-16Zm-23-3h20v1h-20Zm23,17h-26v-12h26Z"/>
        <polygon points="169.807 495.82 170.807 495.82 170.807 494.82 170.807 493.82 169.807 493.82 169.807 494.82 163.807 494.82 163.807 493.82 162.807 493.82 162.807 494.82 162.807 495.82 163.807 495.82 169.807 495.82"/>
      </g>
    </g>
    <g id="SonarQ">
      <circle class="cls-13" cx="328.737" cy="253.32" r="32"/>
      <g>
        <path class="cls-24" d="M315.237,237.82h26a2.946,2.946,0,0,1,3,2.891c0,.037,0,.073,0,.109v26a2.945,2.945,0,0,1-2.891,3c-.036,0-.072,0-.109,0h-26a2.946,2.946,0,0,1-3-2.891V240.82A3.077,3.077,0,0,1,315.237,237.82Z"/>
        <path class="cls-25" d="M318.537,246.274c10.1,0,18.2,7.6,18.2,17v1.546"/>
        <path class="cls-25" d="M326.237,244.374c7.5,3.6,10.2,6.2,12.5,12.5v.946"/>
        <path class="cls-26" d="M339.191,251.774s-.7-4.5-6.8-7.6"/>
      </g>
    </g>
    <g id="Secrets_M">
      <g id="Evidence">
        <circle class="cls-13" cx="552.737" cy="253.32" r="32"/>
      </g>
      <g id="SM_Icon">
        <path id="a0b40ee2-d03f-4f4d-bdac-455786a37497" class="cls-27" d="M567.637,268.82h-28.8a1.58,1.58,0,0,1-1.6-1.559V238.42a1.582,1.582,0,0,1,1.56-1.6h28.84a1.58,1.58,0,0,1,1.6,1.56.267.267,0,0,1,0,.04v28.8a1.579,1.579,0,0,1-1.559,1.6A.281.281,0,0,1,567.637,268.82Z"/>
        <path id="a911bb6b-3938-49c6-85a5-a6d9f93fc6a9" d="M564.637,265.82h-22.8a1.58,1.58,0,0,1-1.6-1.559V241.42a1.582,1.582,0,0,1,1.56-1.6h22.84a1.58,1.58,0,0,1,1.6,1.56.267.267,0,0,1,0,.04v22.8a1.579,1.579,0,0,1-1.559,1.6A.281.281,0,0,1,564.637,265.82Z"/>
        <rect id="ecf492b2-bdc0-4fad-8ff4-241b71d4bc2c" class="cls-1" x="538.237" y="244.82" width="3" height="5"/>
        <rect id="be609ff9-8c19-4557-b359-8974d41d5626" class="cls-1" x="538.237" y="256.82" width="3" height="5"/>
        <ellipse id="a916f02f-75b6-413e-a071-7530c62e2214" class="cls-1" cx="554" cy="252.927" rx="9.993" ry="10"/>
        <ellipse id="f8f79b93-ffe5-4faf-b2b2-5a76078dc637" class="cls-27" cx="554" cy="252.927" rx="6.995" ry="7"/>
        <rect id="e306f34a-6311-4d92-9672-4879e9c1e5c4" class="cls-1" x="554.237" y="251.82" width="12" height="3"/>
        <circle id="a5191d85-3b0a-4ee1-bcc3-31a3c9b9459b" cx="554" cy="252.927" r="2.998"/>
        <circle id="eae8a295-ac70-4cfc-8ff0-804f57debe35" class="cls-1" cx="555.999" cy="249.927" r="1.5"/>
      </g>
    </g>
    <g id="Target_evidence">
      <g id="Secrets_M-2" data-name="Secrets_M">
        <g id="Evidence-2" data-name="Evidence">
          <circle class="cls-13" cx="726.737" cy="351.32" r="32"/>
        </g>
      </g>
      <g id="Inv_icon-2" data-name="Inv_icon">
        <g class="cls-28">
          <g>
            <g class="cls-28">
              <path class="cls-18" d="M718.43,352.811a8.016,8.016,0,0,1-.172-.993,1.128,1.128,0,0,1-.021-.182v-.02a8.382,8.382,0,0,1,.183-2.6c0-.01.01-.01.01-.03.02-.051.02-.112.04-.162a.306.306,0,0,0,.021-.092c.01-.03.01-.06.02-.091.02-.05.03-.111.05-.162,0-.01.01-.01.01-.03a8.022,8.022,0,0,1,1.256-2.492.131.131,0,0,1,.03-.041c.051-.071.1-.131.152-.2a.723.723,0,0,1,.081-.1c.02-.03.051-.05.071-.081a8.023,8.023,0,0,1,.688-.739,11.362,11.362,0,0,1,.193-10.708,17.972,17.972,0,0,0-3.22,1.428.031.031,0,0,1-.02.01c-.091.051-.182.112-.273.163-.02.01-.051.03-.071.04a.01.01,0,0,0-.01.01c-.02.01-.051.02-.061.041a.356.356,0,0,0-.081.05c-.061.041-.132.081-.192.122s-.1.071-.152.1a1.807,1.807,0,0,0-.182.122c-.051.04-.1.071-.152.111s-.112.081-.172.122-.1.071-.152.111a1.835,1.835,0,0,0-.172.132c-.051.04-.1.071-.152.111a1.13,1.13,0,0,0-.172.142,1.76,1.76,0,0,1-.142.112l-.3.243c-.05.04-.091.081-.131.111s-.112.1-.172.152a.849.849,0,0,0-.142.132,1.794,1.794,0,0,0-.152.142c-.041.05-.1.091-.142.141s-.1.092-.152.142-.1.091-.151.142-.092.091-.142.142a1.9,1.9,0,0,1-.142.142,1.728,1.728,0,0,0-.142.142,1.874,1.874,0,0,1-.141.141c-.051.041-.081.092-.132.142s-.091.1-.142.152-.1.122-.152.172c-.081.092-.162.183-.232.274a.746.746,0,0,0-.112.142c-.05.05-.091.111-.142.172a1.375,1.375,0,0,0-.111.142,1.014,1.014,0,0,0-.131.172,1.76,1.76,0,0,0-.112.142c-.04.061-.081.111-.131.182a1.76,1.76,0,0,0-.112.142.536.536,0,0,0-.061.091c-.04.051-.07.1-.111.152s-.071.1-.111.152a1.639,1.639,0,0,1-.152.213c-.031.04-.051.081-.081.121-.01.011-.02.041-.031.051-.04.071-.091.142-.141.213-.02.04-.051.081-.071.121-.081.122-.152.254-.223.375s-.142.253-.2.375c-.021.041-.051.081-.071.122-.051.081-.091.172-.142.253a1.088,1.088,0,0,1-.081.142,1.8,1.8,0,0,0-.111.243.609.609,0,0,1-.081.152c-.041.081-.071.152-.112.233-.02.05-.05.1-.07.152-.041.081-.071.162-.112.233-.02.05-.05.1-.061.142-.04.091-.07.182-.111.273-.01.041-.03.081-.04.122l-.152.395a.037.037,0,0,0-.01.03c-.051.122-.081.243-.122.365-.02.05-.03.091-.051.131-.03.081-.05.173-.081.264-.02.05-.03.111-.05.152l-.061.213a.06.06,0,0,0-.01.04c-.01.03-.02.061-.03.1s-.01.061-.021.092c-.02.081-.04.151-.06.233,0,.01-.01.02-.01.03a.331.331,0,0,0-.021.1l-.152.638v.011a11.475,11.475,0,0,0,9.193,5.47"/>
            </g>
            <g class="cls-28">
              <path class="cls-19" d="M724.347,358.69a8.77,8.77,0,0,1-.929-.34c-.05-.02-.11-.05-.17-.08a.035.035,0,0,1-.02-.01,8.04,8.04,0,0,1-2.138-1.44l-.02-.02c-.04-.04-.08-.07-.12-.11a.462.462,0,0,0-.07-.07l-.07-.07-.11-.11c-.01-.01-.02-.01-.02-.02a8.281,8.281,0,0,1-1.519-2.3.076.076,0,0,1-.02-.04c-.03-.08-.06-.15-.09-.23-.02-.04-.03-.07-.05-.11a.76.76,0,0,0-.04-.11c-.11-.32-.21-.64-.29-.96a11.241,11.241,0,0,1-9.074-5.45,16.655,16.655,0,0,0-.36,3.46v.6c0,.07.01.15.01.23,0,.06.01.12.01.18s.01.15.02.21a1.087,1.087,0,0,1,.01.18c.01.07.01.14.02.21a1.087,1.087,0,0,1,.01.18,1.646,1.646,0,0,1,.02.21c.01.06.01.12.02.18s.02.15.03.22c.01.05.01.11.02.17.02.12.04.25.06.37.01.05.02.11.03.17.02.08.02.14.04.22a1.286,1.286,0,0,0,.04.19c.02.07.02.13.04.2s.03.13.05.19.03.13.05.19.03.13.05.2.03.12.05.18a1.462,1.462,0,0,0,.05.2,1.209,1.209,0,0,0,.05.18c.01.07.04.13.05.2a1.209,1.209,0,0,1,.05.18c.02.07.04.13.06.2a1.293,1.293,0,0,0,.07.21c.04.12.08.23.11.34.02.05.04.11.06.17a1.192,1.192,0,0,0,.08.2.851.851,0,0,1,.06.17,1.192,1.192,0,0,0,.08.2c.02.05.05.11.07.16.029.07.049.14.079.2s.05.11.07.16c.01.03.03.07.04.1.02.05.05.11.08.17s.05.11.08.17a1.627,1.627,0,0,1,.11.23c.02.04.05.09.07.14.01.01.01.04.03.05a2.256,2.256,0,0,1,.11.22.826.826,0,0,0,.07.13c.07.13.14.25.21.38s.14.24.22.36a.444.444,0,0,0,.08.11l.15.24c.03.04.06.09.09.14.05.08.1.14.149.22.03.04.06.09.1.14.05.07.1.14.14.21a1.7,1.7,0,0,1,.1.14l.15.21c.03.04.06.08.1.13.06.08.11.15.17.22.03.04.05.07.08.11.08.11.18.21.26.32a.077.077,0,0,1,.02.03c.08.1.16.19.24.28.03.04.059.07.089.11.06.07.12.14.18.2l.11.11c.05.05.1.11.15.15l.03.03a108846098027.36,108846098027.36,0,0,1,.14.14l.17.17c.01.01.02.01.02.02.02.02.05.04.08.07.15.15.31.29.48.44h.01a11.262,11.262,0,0,0,9.283-5.13"/>
            </g>
            <g class="cls-28">
              <path class="cls-20" d="M732.291,356.39a7.7,7.7,0,0,1-.76.63c-.05.04-.1.07-.149.11a.031.031,0,0,1-.02.01,8.324,8.324,0,0,1-2.319,1.13c-.01,0-.02.01-.03.01-.05.01-.11.03-.16.04-.03.01-.06.01-.09.02s-.06.01-.09.02a.936.936,0,0,0-.16.04c-.01,0-.02.01-.03.01a8.233,8.233,0,0,1-2.748.16c-.01,0-.04,0-.05-.01l-.24-.03c-.04-.01-.08-.01-.119-.02a.425.425,0,0,0-.11-.02c-.33-.06-.65-.14-.97-.23a11.254,11.254,0,0,1-9.264,5.13,17.239,17.239,0,0,0,2.818,2.05l.02.02c.09.05.18.11.27.15a.251.251,0,0,1,.07.04c.01,0,.01.01.02.01.02.02.04.02.07.04s.05.03.08.04c.07.04.14.07.2.11a1.29,1.29,0,0,1,.16.09c.06.03.13.07.19.1s.11.05.17.08.13.06.19.09a1.354,1.354,0,0,1,.169.08,1.667,1.667,0,0,0,.2.08c.05.02.11.05.17.08a1.8,1.8,0,0,0,.21.08,1.111,1.111,0,0,1,.16.07c.11.04.24.09.35.14.05.02.11.04.16.06a1.789,1.789,0,0,1,.209.08l.18.06c.06.02.13.04.19.06s.13.04.19.06.12.04.19.06a1.332,1.332,0,0,0,.19.05c.06.01.12.04.18.05s.13.04.2.05a1.151,1.151,0,0,0,.179.04c.07.02.13.03.2.05s.12.03.18.04.13.03.2.05a1.742,1.742,0,0,1,.22.05c.11.02.24.05.35.07.06.01.11.02.18.03a1.539,1.539,0,0,1,.209.04,1.01,1.01,0,0,1,.17.03c.07.01.15.02.21.03s.11.01.17.02a1.646,1.646,0,0,0,.21.02.985.985,0,0,0,.17.02c.04,0,.08.01.11.01a1.087,1.087,0,0,0,.18.01c.06.01.12.01.19.02a2.15,2.15,0,0,0,.259.01c.05,0,.1.01.15.01h.06c.08,0,.17.01.25.01.04,0,.1.01.14.01.15,0,.29.01.43.01s.279,0,.419-.01a.66.66,0,0,0,.14-.01c.1,0,.19-.01.29-.01.05,0,.11-.01.16-.01a2.26,2.26,0,0,1,.26-.01c.05-.01.11-.01.17-.02.08-.01.17-.01.25-.02.05-.01.109-.01.169-.02l.24-.03c.05-.01.1-.01.14-.02.1-.02.21-.03.31-.04a.615.615,0,0,1,.13-.01c.14-.02.27-.04.41-.07.02,0,.02-.01.04-.01.12-.02.239-.05.369-.07l.14-.03a2.614,2.614,0,0,0,.27-.06.936.936,0,0,0,.16-.04c.07-.02.14-.03.21-.05.01,0,.03-.01.04-.01.03-.01.07-.01.1-.02l.09-.02.23-.06c.01,0,.02-.01.03-.01.029-.01.069-.02.1-.03.2-.06.41-.12.62-.19l.01-.01a11.187,11.187,0,0,0,.19-10.57"/>
            </g>
            <g class="cls-28">
              <path class="cls-21" d="M735.056,348.812a7.984,7.984,0,0,1,.171.987,1.111,1.111,0,0,1,.01.182V350a8.025,8.025,0,0,1-.181,2.589c0,.01-.01.02-.01.03a.924.924,0,0,1-.04.161.3.3,0,0,0-.02.091c-.01.03-.01.06-.02.091a.846.846,0,0,0-.041.161c0,.01-.01.01-.01.03a8.073,8.073,0,0,1-1.248,2.478c-.01.01-.02.03-.03.04-.051.071-.1.131-.151.2a.779.779,0,0,1-.081.1c-.02.03-.05.05-.07.08a7.956,7.956,0,0,1-.685.736,11.327,11.327,0,0,1-.191,10.648,18.606,18.606,0,0,0,3.2-1.421.031.031,0,0,1,.02-.01c.091-.05.182-.111.272-.161a.159.159,0,0,1,.071-.04.01.01,0,0,0,.01-.01c.02-.021.05-.021.06-.041a1.026,1.026,0,0,0,.091-.05c.06-.04.131-.081.191-.121s.1-.07.151-.1l.181-.121c.051-.04.1-.07.151-.11s.111-.081.171-.121.1-.071.151-.111a1.811,1.811,0,0,0,.171-.131c.041-.04.1-.071.141-.111.061-.05.121-.091.182-.141a1.782,1.782,0,0,1,.141-.111l.3-.241a1.728,1.728,0,0,0,.13-.121c.051-.041.121-.1.172-.141s.1-.081.141-.131.1-.091.151-.141.1-.091.14-.141a1.9,1.9,0,0,1,.152-.141c.04-.051.1-.091.14-.141l.141-.141.151-.152c.041-.05.091-.09.141-.141a1.044,1.044,0,0,1,.141-.141c.041-.04.081-.09.131-.141s.091-.1.141-.151.1-.111.151-.171c.081-.091.161-.181.232-.272a.762.762,0,0,0,.11-.141c.041-.05.091-.111.141-.161a1.338,1.338,0,0,0,.111-.141,1.959,1.959,0,0,0,.131-.172,1.782,1.782,0,0,0,.111-.141c.04-.06.08-.11.131-.181.04-.05.07-.091.11-.141a.453.453,0,0,0,.061-.091c.04-.05.07-.1.11-.151s.071-.1.111-.151c.05-.07.091-.151.141-.211.03-.041.05-.081.081-.121a.228.228,0,0,1,.03-.051,2.348,2.348,0,0,1,.141-.211.842.842,0,0,1,.08-.121c.081-.121.151-.252.222-.373s.141-.252.211-.373a.686.686,0,0,1,.071-.12c.05-.081.09-.172.141-.252a.492.492,0,0,1,.08-.141,1.784,1.784,0,0,0,.111-.242.553.553,0,0,1,.08-.151c.041-.071.071-.151.111-.232.02-.05.05-.1.071-.151.04-.081.07-.161.11-.242a.823.823,0,0,0,.061-.141c.04-.09.07-.181.111-.272.02-.04.03-.08.05-.121.05-.131.1-.262.141-.393.01-.01.01-.02.02-.03.04-.121.08-.231.121-.362.02-.041.03-.091.05-.131.03-.081.05-.182.081-.262.02-.051.03-.111.05-.151l.06-.212c.01-.01.01-.03.02-.05a1.032,1.032,0,0,0,.031-.1c.01-.03.01-.06.02-.091.02-.08.04-.151.06-.231,0-.01.01-.021.01-.031.01-.03.01-.07.02-.1l.151-.635v-.01a11.589,11.589,0,0,0-9.181-5.42"/>
            </g>
            <g class="cls-28">
              <path class="cls-22" d="M729.127,342.92a8.706,8.706,0,0,1,.93.34c.05.02.11.05.17.08a.035.035,0,0,1,.02.01,8.285,8.285,0,0,1,2.138,1.44c.01.01.02.01.02.02.04.04.08.07.12.11a.462.462,0,0,0,.07.07l.07.07.11.11c.01.01.02.01.02.02a8.281,8.281,0,0,1,1.519,2.3c.01.02.02.03.02.05.03.08.06.15.09.23.02.04.03.08.05.12a.76.76,0,0,0,.04.11c.11.32.21.64.29.96a11.241,11.241,0,0,1,9.074,5.45,17.362,17.362,0,0,0,.359-3.46v-.6c0-.08-.01-.15-.01-.23,0-.06-.01-.12-.01-.18s-.01-.14-.02-.21-.01-.12-.02-.18a1.548,1.548,0,0,1-.01-.21c-.01-.06-.01-.12-.02-.18a1.646,1.646,0,0,1-.02-.21c-.01-.06-.01-.12-.019-.18s-.02-.15-.03-.22a.881.881,0,0,1-.02-.17c-.02-.12-.04-.25-.06-.37-.01-.05-.02-.11-.03-.17-.02-.08-.02-.15-.04-.22s-.02-.13-.04-.19-.02-.13-.04-.2a1.286,1.286,0,0,1-.04-.19c-.02-.06-.03-.13-.05-.19s-.03-.13-.05-.2a1.209,1.209,0,0,0-.05-.18c-.02-.07-.03-.13-.05-.2a1.209,1.209,0,0,0-.05-.18c-.01-.07-.04-.13-.05-.2s-.04-.12-.05-.18-.04-.13-.06-.2-.05-.14-.07-.21c-.04-.11-.08-.23-.11-.33-.02-.05-.04-.11-.06-.17a1.192,1.192,0,0,0-.08-.2.851.851,0,0,1-.06-.17,1.192,1.192,0,0,0-.08-.2c-.02-.05-.05-.11-.07-.16-.03-.07-.05-.14-.08-.2s-.05-.11-.07-.16c-.02-.03-.03-.07-.05-.1-.02-.05-.05-.11-.08-.17s-.049-.11-.079-.17a2.4,2.4,0,0,1-.11-.23c-.02-.04-.05-.09-.07-.14-.01-.01-.02-.04-.03-.05-.04-.08-.08-.15-.11-.22a.826.826,0,0,0-.07-.13c-.07-.13-.14-.25-.21-.38s-.14-.24-.22-.36a.444.444,0,0,0-.08-.11l-.15-.24c-.03-.05-.06-.09-.09-.14-.05-.07-.1-.14-.15-.22-.03-.04-.06-.09-.1-.14-.05-.07-.1-.14-.139-.21-.03-.05-.07-.09-.1-.14l-.15-.21c-.03-.04-.06-.08-.1-.13-.06-.08-.11-.15-.17-.22-.03-.04-.05-.07-.08-.11-.08-.11-.18-.21-.26-.32a.077.077,0,0,1-.02-.03c-.08-.1-.16-.19-.24-.28-.03-.04-.06-.07-.09-.11-.06-.07-.12-.14-.18-.2l-.109-.11c-.05-.05-.1-.11-.15-.15l-.03-.03-.07-.07-.07-.07-.17-.17-.02-.02c-.02-.02-.05-.04-.08-.07-.15-.15-.31-.3-.48-.44h-.01a11.207,11.207,0,0,0-9.274,5.1"/>
            </g>
            <g class="cls-28">
              <path class="cls-23" d="M720.928,345.23a6.689,6.689,0,0,1,.76-.63c.05-.04.1-.07.15-.11.01-.01.02-.01.02-.02a8.318,8.318,0,0,1,2.318-1.13c.01,0,.02-.01.03-.01.05-.01.11-.03.16-.04.03-.01.06-.01.09-.02a.292.292,0,0,1,.09-.02c.05-.02.11-.02.16-.04.01,0,.02-.01.03-.01a8.234,8.234,0,0,1,2.748-.16.075.075,0,0,1,.05.01l.24.03c.04.01.08.01.12.02a.41.41,0,0,0,.11.01c.33.06.649.14.969.23a11.256,11.256,0,0,1,9.264-5.13,17.8,17.8,0,0,0-2.818-2.05.031.031,0,0,0-.02-.01c-.09-.05-.18-.11-.27-.15a.251.251,0,0,1-.07-.04.01.01,0,0,1-.01-.01c-.02-.02-.05-.02-.07-.04s-.05-.03-.08-.04c-.07-.04-.14-.07-.2-.11s-.11-.05-.16-.08-.129-.07-.189-.1-.11-.05-.17-.08-.13-.06-.19-.09-.11-.05-.17-.08a1.667,1.667,0,0,0-.2-.08c-.05-.02-.11-.04-.17-.07a1.8,1.8,0,0,0-.21-.08c-.05-.02-.11-.05-.16-.07-.11-.05-.239-.09-.349-.14-.05-.02-.11-.04-.16-.06a1.8,1.8,0,0,1-.21-.08l-.18-.06c-.06-.02-.13-.04-.19-.06s-.13-.04-.19-.06-.12-.04-.19-.06a1.355,1.355,0,0,0-.189-.05c-.06-.01-.12-.04-.18-.05a1.462,1.462,0,0,0-.2-.05,1.209,1.209,0,0,1-.18-.05c-.07-.01-.13-.03-.2-.04s-.12-.03-.18-.04-.13-.03-.2-.05a1.419,1.419,0,0,1-.22-.05c-.11-.02-.239-.04-.349-.07l-.17-.03a1.552,1.552,0,0,1-.21-.04,1.127,1.127,0,0,1-.18-.03l-.21-.03c-.06-.01-.11-.01-.17-.02s-.14-.01-.21-.02a1.022,1.022,0,0,0-.179-.01c-.04,0-.08-.01-.11-.01a1.087,1.087,0,0,0-.18-.01,1.148,1.148,0,0,0-.19-.01c-.08-.01-.17-.01-.26-.02-.05,0-.1-.01-.15-.01h-.06c-.08,0-.17-.01-.25-.01-.05,0-.1-.01-.14-.01-.14,0-.289-.01-.429-.01s-.28,0-.42.01a.66.66,0,0,0-.14.01c-.1,0-.19.01-.29.01-.05,0-.11.01-.16.01-.09.01-.17.01-.259.02a.97.97,0,0,1-.17.01c-.08.01-.17.01-.25.02a.915.915,0,0,1-.17.01l-.24.03c-.05.01-.1.01-.14.02-.1.02-.21.03-.31.04a.615.615,0,0,1-.13.01c-.139.02-.269.05-.409.07-.01,0-.02.01-.04.01-.12.02-.24.04-.37.07-.04.01-.09.02-.14.03-.09.01-.17.04-.27.06a.936.936,0,0,0-.16.04,1.548,1.548,0,0,0-.209.05c-.02,0-.03.01-.05.01s-.07.01-.1.02-.06.01-.09.02l-.23.06c-.01,0-.02.01-.03.01-.03.01-.07.02-.1.03-.21.06-.41.12-.62.19l-.01.01a11.228,11.228,0,0,0-.18,10.56"/>
            </g>
          </g>
        </g>
      </g>
    </g>
    <g id="KeyP">
      <g id="Evidence-3" data-name="Evidence">
        <circle class="cls-13" cx="328.737" cy="403.32" r="32"/>
      </g>
      <g class="cls-29">
        <rect class="cls-30" x="312.237" y="387.82" width="32" height="32"/>
      </g>
      <path class="cls-31" d="M338.237,401.962V389.82h-5v2h3v2h-3v2h3v6.142a4,4,0,1,0,2,0Zm-1,5.858a2,2,0,1,1,2-2A2,2,0,0,1,337.237,407.82Z"/>
    </g>
    <g id="DevOps_insights">
      <g id="Evidence-4" data-name="Evidence">
        <circle class="cls-13" cx="440.737" cy="404.32" r="32"/>
      </g>
      <g id="DevOps_icon">
        <path class="cls-32" d="M444.894,415.828l-7.6.5a1.5,1.5,0,0,1-1.4-1.1h0a1.3,1.3,0,0,1,1.2-1.3l7.595-.5a1.5,1.5,0,0,1,1.4,1.1h0A1.39,1.39,0,0,1,444.894,415.828Z"/>
        <path class="cls-32" d="M444.894,419.328l-7.6.5a1.389,1.389,0,0,1-1.4-1.1h0a1.3,1.3,0,0,1,1.2-1.3l7.595-.5a1.5,1.5,0,0,1,1.4,1.1h0A1.31,1.31,0,0,1,444.894,419.328Z"/>
        <path class="cls-33" d="M437.243,420.82h-.1a4.117,4.117,0,0,0,4.1,3.7,4.056,4.056,0,0,0,4-4.115c0-.028,0-.056,0-.085v-.1Z"/>
        <g>
          <path class="cls-34" d="M453.139,396.02a11.8,11.8,0,0,0-23.606,0,11.638,11.638,0,0,0,2.95,7.7c1.869,2.3,2.754,3,2.754,6.8v.3a1.066,1.066,0,0,0,.984,1h10.033a.991.991,0,0,0,.983-1v-.2c0-4,.984-4.6,3.05-7.2h0A10.7,10.7,0,0,0,453.139,396.02Z"/>
          <path class="cls-34" d="M450.291,403.728l.1-.2C450.391,403.628,450.391,403.728,450.291,403.728Z"/>
        </g>
        <path class="cls-35" d="M453.041,396.02a11.724,11.724,0,0,0-11.8-11.6v27.4h5.017a.991.991,0,0,0,.983-1v-.2c0-4,.984-4.6,3.05-7.2h0A11.089,11.089,0,0,0,453.041,396.02Z"/>
        <path class="cls-36" d="M446.237,418.328v-.4a1.174,1.174,0,0,0-1.1-1l-3.9.3v2.4l4.1-.3a.922.922,0,0,0,.9-.937C446.24,418.37,446.239,418.349,446.237,418.328Z"/>
        <path class="cls-36" d="M446.237,414.728v-.4a1.174,1.174,0,0,0-1.1-1l-3.9.4v2.4l4.1-.3A1.074,1.074,0,0,0,446.237,414.728Z"/>
        <path class="cls-37" d="M445.235,420.528l-4,.3v3.9a4.059,4.059,0,0,0,4-4.117C445.236,420.583,445.236,420.555,445.235,420.528Z"/>
        <ellipse class="cls-38" cx="440.997" cy="396.528" rx="7.495" ry="7.2"/>
        <path class="cls-39" d="M441.237,389.228v14.5a7.362,7.362,0,0,0,7.5-7.2A7.446,7.446,0,0,0,441.237,389.228Z"/>
        <path class="cls-40" d="M446.692,401.128a6.874,6.874,0,0,0,1.6-5.9l-7.395,1.3-4.8,5.5A7.639,7.639,0,0,0,446.692,401.128Z"/>
      </g>
    </g>
    <g id="Evidence-5" data-name="Evidence">
      <circle class="cls-13" cx="167.307" cy="61.32" r="32"/>
      <g id="Inv_icon-3" data-name="Inv_icon">
        <g class="cls-41">
          <g>
            <g class="cls-41">
              <path class="cls-18" d="M159,63.365a8.081,8.081,0,0,1-.172-.993,1.138,1.138,0,0,1-.02-.183v-.02a8.375,8.375,0,0,1,.182-2.6c0-.01.01-.01.01-.031.02-.05.02-.111.04-.162a.273.273,0,0,0,.021-.091c.01-.03.01-.061.02-.091.02-.051.03-.112.051-.162,0-.01.01-.01.01-.031a8.02,8.02,0,0,1,1.255-2.492.138.138,0,0,1,.03-.04c.051-.071.1-.132.152-.2a.717.717,0,0,1,.081-.1c.02-.031.051-.051.071-.081a8.044,8.044,0,0,1,.688-.74,11.362,11.362,0,0,1,.193-10.708,17.865,17.865,0,0,0-3.219,1.429.034.034,0,0,1-.021.01c-.091.051-.182.111-.273.162-.02.01-.051.03-.071.041a.01.01,0,0,0-.01.01c-.02.01-.051.02-.061.04a.386.386,0,0,0-.081.051c-.061.04-.131.081-.192.121s-.1.071-.152.1a1.913,1.913,0,0,0-.182.121c-.051.041-.1.071-.152.112s-.111.081-.172.121-.1.071-.152.112a1.959,1.959,0,0,0-.172.131c-.051.041-.1.071-.152.112a1.12,1.12,0,0,0-.172.142,1.758,1.758,0,0,1-.142.111l-.3.243c-.05.041-.091.081-.131.112s-.112.1-.172.152a.843.843,0,0,0-.142.131c-.051.041-.1.092-.152.142s-.1.091-.142.142-.1.091-.151.142-.1.091-.152.142-.091.091-.142.142a1.881,1.881,0,0,1-.142.141c-.05.041-.091.092-.141.142s-.092.1-.142.142a1.84,1.84,0,0,0-.132.142c-.05.05-.091.1-.142.152s-.1.121-.151.172c-.081.091-.162.182-.233.274a.772.772,0,0,0-.112.141c-.05.051-.091.112-.141.173a1.381,1.381,0,0,0-.112.141,1.123,1.123,0,0,0-.131.173,1.737,1.737,0,0,0-.112.141c-.04.061-.081.112-.131.183a1.6,1.6,0,0,0-.112.142.446.446,0,0,0-.06.091c-.041.05-.071.1-.112.152s-.071.1-.111.152a1.563,1.563,0,0,1-.152.212c-.03.041-.051.081-.081.122-.01.01-.02.04-.03.051-.041.071-.091.141-.142.212-.02.041-.051.081-.071.122-.081.121-.152.253-.223.375s-.141.253-.2.375c-.02.04-.051.081-.071.121-.051.081-.091.172-.142.253a.888.888,0,0,1-.081.142,1.8,1.8,0,0,0-.111.243.548.548,0,0,1-.081.152c-.041.081-.071.152-.111.233-.021.051-.051.1-.071.152-.041.081-.071.162-.112.233-.02.051-.05.1-.06.142-.041.091-.071.182-.112.274-.01.04-.03.081-.04.121l-.152.4a.039.039,0,0,0-.01.031c-.051.121-.081.243-.122.364-.02.051-.03.092-.05.132-.031.081-.051.172-.081.263-.021.051-.031.112-.051.152l-.061.213a.063.063,0,0,0-.01.041c-.01.03-.02.06-.03.1s-.01.061-.02.091c-.021.081-.041.152-.061.233,0,.01-.01.02-.01.031a.357.357,0,0,0-.021.1l-.151.638v.01A11.473,11.473,0,0,0,159,63.365"/>
            </g>
            <g class="cls-41">
              <path class="cls-19" d="M164.917,69.69a8.706,8.706,0,0,1-.93-.34c-.05-.02-.11-.05-.17-.08a.035.035,0,0,1-.02-.01,8.04,8.04,0,0,1-2.138-1.44l-.02-.02c-.04-.04-.08-.07-.12-.11a.462.462,0,0,0-.07-.07l-.07-.07-.11-.11c-.01-.01-.02-.01-.02-.02a8.281,8.281,0,0,1-1.519-2.3.076.076,0,0,1-.02-.04c-.03-.08-.06-.15-.09-.23-.02-.04-.03-.07-.05-.11a.76.76,0,0,0-.04-.11c-.11-.32-.21-.64-.29-.96a11.241,11.241,0,0,1-9.074-5.45,16.655,16.655,0,0,0-.359,3.46v.6c0,.07.01.15.01.23,0,.06.01.12.01.18s.01.15.02.21a1.087,1.087,0,0,1,.01.18c.01.07.01.14.02.21a1.087,1.087,0,0,1,.01.18,1.646,1.646,0,0,1,.02.21c.009.06.009.12.019.18s.02.15.03.22c.01.05.01.11.02.17.02.12.04.25.06.37.01.05.02.11.03.17.02.08.02.14.04.22a1.286,1.286,0,0,0,.04.19c.02.07.02.13.04.2s.03.13.05.19.03.13.05.19.03.13.05.2.03.12.05.18a1.462,1.462,0,0,0,.05.2,1.209,1.209,0,0,0,.05.18c.01.07.04.13.05.2a1.209,1.209,0,0,1,.05.18c.02.07.04.13.06.2a1.293,1.293,0,0,0,.07.21c.04.12.08.23.11.34.02.05.04.11.06.17a1.192,1.192,0,0,0,.08.2.851.851,0,0,1,.06.17,1.192,1.192,0,0,0,.08.2c.02.05.05.11.07.16.03.07.05.14.08.2s.05.11.07.16c.01.03.03.07.04.1.02.05.05.11.079.17s.05.11.08.17a1.627,1.627,0,0,1,.11.23c.02.04.05.09.07.14.01.01.01.04.03.05a2.256,2.256,0,0,1,.11.22.826.826,0,0,0,.07.13c.07.13.14.25.21.38s.14.24.22.36a.444.444,0,0,0,.08.11l.15.24c.03.04.06.09.09.14.05.08.1.14.15.22.03.04.06.09.1.14.049.07.1.14.139.21a1.7,1.7,0,0,1,.1.14l.15.21c.03.04.06.08.1.13.06.08.11.15.17.22.03.04.05.07.08.11.08.11.18.21.26.32a.077.077,0,0,1,.02.03c.08.1.16.19.24.28.03.04.06.07.09.11.06.07.12.14.18.2l.109.11c.05.05.1.11.15.15l.03.03a995164323827.436,995164323827.436,0,0,1,.14.14l.17.17c.01.01.02.01.02.02.02.02.05.04.08.07.15.15.31.29.48.44h.01a11.265,11.265,0,0,0,9.284-5.13"/>
            </g>
            <g class="cls-41">
              <path class="cls-20" d="M172.738,67.39a7.685,7.685,0,0,1-.759.63c-.05.04-.1.07-.15.11a.031.031,0,0,1-.02.01,8.324,8.324,0,0,1-2.319,1.13c-.01,0-.02.01-.03.01-.049.01-.109.03-.159.04-.03.01-.06.01-.09.02s-.06.01-.09.02a.936.936,0,0,0-.16.04c-.01,0-.02.01-.03.01a8.236,8.236,0,0,1-2.748.16c-.01,0-.04,0-.05-.01l-.24-.03c-.04-.01-.08-.01-.12-.02a.425.425,0,0,0-.11-.02c-.33-.06-.65-.14-.969-.23a11.257,11.257,0,0,1-9.264,5.13,17.2,17.2,0,0,0,2.818,2.05l.02.02c.09.05.18.11.27.15a.251.251,0,0,1,.07.04c.01,0,.01.01.02.01.02.02.04.02.07.04s.05.03.08.04c.069.04.139.07.2.11a1.29,1.29,0,0,1,.16.09c.06.03.13.07.19.1s.11.05.17.08.13.06.19.09a1.3,1.3,0,0,1,.17.08,1.667,1.667,0,0,0,.2.08c.05.02.11.05.17.08a1.789,1.789,0,0,0,.209.08,1.111,1.111,0,0,1,.16.07c.11.04.24.09.35.14.05.02.11.04.16.06a1.8,1.8,0,0,1,.21.08l.18.06c.06.02.13.04.19.06s.13.04.189.06.12.04.19.06a1.332,1.332,0,0,0,.19.05c.06.01.12.04.18.05s.13.04.2.05a1.163,1.163,0,0,0,.18.04c.07.02.13.03.2.05s.12.03.18.04.13.03.2.05a1.742,1.742,0,0,1,.22.05c.11.02.24.05.35.07.06.01.11.02.18.03a1.552,1.552,0,0,1,.21.04,1.01,1.01,0,0,1,.17.03c.07.01.15.02.21.03s.11.01.169.02a1.646,1.646,0,0,0,.21.02.985.985,0,0,0,.17.02c.04,0,.08.01.11.01a1.087,1.087,0,0,0,.18.01c.06.01.12.01.19.02a2.175,2.175,0,0,0,.26.01c.05,0,.1.01.15.01h.06c.08,0,.169.01.249.01.04,0,.1.01.14.01.15,0,.29.01.43.01s.28,0,.42-.01a.66.66,0,0,0,.14-.01c.1,0,.19-.01.289-.01.05,0,.11-.01.16-.01a2.26,2.26,0,0,1,.26-.01c.05-.01.11-.01.17-.02.08-.01.17-.01.25-.02.05-.01.11-.01.17-.02l.24-.03c.05-.01.1-.01.14-.02.1-.02.209-.03.309-.04a.615.615,0,0,1,.13-.01c.14-.02.27-.04.41-.07.02,0,.02-.01.04-.01.12-.02.24-.05.37-.07l.14-.03a2.539,2.539,0,0,0,.269-.06.936.936,0,0,0,.16-.04c.07-.02.14-.03.21-.05.01,0,.03-.01.04-.01.03-.01.07-.01.1-.02l.09-.02.23-.06c.01,0,.02-.01.03-.01.03-.01.07-.02.1-.03.2-.06.41-.12.619-.19l.01-.01a11.187,11.187,0,0,0,.19-10.57"/>
            </g>
            <g class="cls-41">
              <path class="cls-21" d="M174.625,59.366a8.144,8.144,0,0,1,.172.987,1.1,1.1,0,0,1,.01.181v.021a8.056,8.056,0,0,1-.182,2.589c0,.01-.01.02-.01.03a.947.947,0,0,1-.04.161.292.292,0,0,0-.02.091c-.01.03-.01.06-.02.09a1.087,1.087,0,0,0-.041.161c0,.01-.01.01-.01.031a8.073,8.073,0,0,1-1.248,2.478c-.01.01-.02.03-.03.04-.05.071-.1.131-.151.2a.646.646,0,0,1-.081.1c-.02.031-.05.051-.07.081a7.818,7.818,0,0,1-.685.735,11.327,11.327,0,0,1-.191,10.648,18.492,18.492,0,0,0,3.2-1.42.032.032,0,0,1,.021-.01c.09-.051.181-.111.271-.161a.157.157,0,0,1,.071-.041.01.01,0,0,0,.01-.01c.02-.02.05-.02.06-.04a.9.9,0,0,0,.091-.05c.06-.041.131-.081.191-.121s.1-.071.151-.1l.181-.121c.051-.04.1-.07.151-.111s.111-.08.172-.121.1-.07.151-.11.11-.081.171-.131c.04-.041.1-.071.141-.111.06-.051.12-.091.181-.141a1.414,1.414,0,0,1,.141-.111l.3-.242a1.55,1.55,0,0,0,.131-.121c.05-.04.12-.1.171-.141a1.8,1.8,0,0,0,.141-.131c.05-.05.1-.09.151-.141a1.875,1.875,0,0,0,.141-.141c.04-.05.1-.09.151-.141s.1-.091.141-.141l.141-.141.151-.151a1.855,1.855,0,0,1,.14-.141.989.989,0,0,1,.141-.141c.041-.04.081-.091.131-.141s.091-.1.141-.151.1-.111.151-.171c.081-.091.161-.182.232-.272a.852.852,0,0,0,.111-.141,2.02,2.02,0,0,1,.14-.162,1.16,1.16,0,0,0,.111-.141,1.772,1.772,0,0,0,.131-.171,1.735,1.735,0,0,0,.111-.141c.04-.06.08-.111.131-.181.04-.051.07-.091.11-.141a.467.467,0,0,0,.061-.091c.04-.05.07-.1.111-.151s.07-.1.11-.151c.051-.071.091-.151.141-.212.03-.04.051-.08.081-.121a.219.219,0,0,1,.03-.05c.04-.071.091-.141.141-.212a.834.834,0,0,1,.08-.12c.081-.121.151-.252.222-.373s.141-.252.211-.373a.762.762,0,0,1,.071-.121c.05-.08.09-.171.141-.252a.52.52,0,0,1,.08-.141,1.658,1.658,0,0,0,.111-.241.536.536,0,0,1,.081-.152c.04-.07.07-.151.11-.231.02-.051.051-.1.071-.151.04-.081.07-.162.111-.242a.852.852,0,0,0,.06-.141c.04-.091.07-.181.111-.272.02-.04.03-.081.05-.121.05-.131.1-.262.141-.393.01-.01.01-.02.02-.03.04-.121.081-.232.121-.363.02-.04.03-.09.05-.131.03-.08.051-.181.081-.262.02-.05.03-.11.05-.151l.061-.211c.01-.01.01-.031.02-.051s.02-.06.03-.1.01-.061.02-.091c.02-.081.04-.151.06-.232,0-.01.01-.02.01-.03.011-.03.011-.071.021-.1l.151-.634v-.01a11.591,11.591,0,0,0-9.182-5.42"/>
            </g>
            <g class="cls-41">
              <path class="cls-22" d="M169.7,52.92a8.77,8.77,0,0,1,.929.34c.05.02.11.05.17.08a.035.035,0,0,1,.02.01,8.285,8.285,0,0,1,2.138,1.44c.01.01.02.01.02.02.04.04.08.07.12.11a.462.462,0,0,0,.07.07l.07.07.11.11c.01.01.02.01.02.02a8.281,8.281,0,0,1,1.519,2.3c.01.02.02.03.02.05.03.08.06.15.09.23.02.04.03.08.05.12a.76.76,0,0,0,.04.11c.11.32.21.64.29.96a11.241,11.241,0,0,1,9.074,5.45,17.363,17.363,0,0,0,.36-3.46v-.6c0-.08-.01-.15-.01-.23,0-.06-.01-.12-.01-.18s-.01-.14-.02-.21-.01-.12-.02-.18a1.548,1.548,0,0,1-.01-.21c-.01-.06-.01-.12-.02-.18a1.646,1.646,0,0,1-.02-.21c-.01-.06-.01-.12-.02-.18s-.02-.15-.03-.22a.881.881,0,0,1-.02-.17c-.02-.12-.04-.25-.06-.37-.01-.05-.02-.11-.03-.17-.02-.08-.02-.15-.04-.22s-.02-.13-.04-.19-.02-.13-.04-.2a1.286,1.286,0,0,1-.04-.19c-.02-.06-.03-.13-.05-.19s-.03-.13-.05-.2a1.209,1.209,0,0,0-.05-.18c-.02-.07-.03-.13-.05-.2a1.209,1.209,0,0,0-.05-.18c-.01-.07-.04-.13-.05-.2s-.04-.12-.05-.18-.04-.13-.06-.2-.05-.14-.07-.21c-.04-.11-.08-.23-.11-.33-.02-.05-.04-.11-.06-.17a1.192,1.192,0,0,0-.08-.2.851.851,0,0,1-.06-.17,1.192,1.192,0,0,0-.08-.2c-.02-.05-.05-.11-.07-.16-.03-.07-.049-.14-.079-.2s-.05-.11-.07-.16c-.02-.03-.03-.07-.05-.1-.02-.05-.05-.11-.08-.17s-.05-.11-.08-.17a2.4,2.4,0,0,1-.11-.23c-.02-.04-.05-.09-.07-.14-.01-.01-.02-.04-.03-.05-.04-.08-.08-.15-.11-.22a.826.826,0,0,0-.07-.13c-.07-.13-.14-.25-.21-.38s-.14-.24-.22-.36a.444.444,0,0,0-.08-.11l-.15-.24c-.03-.05-.06-.09-.09-.14-.05-.07-.1-.14-.149-.22-.03-.04-.06-.09-.1-.14-.05-.07-.1-.14-.14-.21-.03-.05-.07-.09-.1-.14l-.15-.21c-.03-.04-.06-.08-.1-.13-.06-.08-.11-.15-.17-.22-.03-.04-.05-.07-.08-.11-.08-.11-.18-.21-.26-.32a.077.077,0,0,1-.02-.03c-.08-.1-.16-.19-.24-.28-.03-.04-.059-.07-.089-.11-.06-.07-.12-.14-.18-.2l-.11-.11c-.05-.05-.1-.11-.15-.15l-.03-.03-.07-.07-.07-.07-.17-.17-.02-.02c-.02-.02-.05-.04-.08-.07-.15-.15-.31-.3-.48-.44h-.01a11.2,11.2,0,0,0-9.273,5.1"/>
            </g>
            <g class="cls-41">
              <path class="cls-23" d="M161.376,55.23a6.766,6.766,0,0,1,.759-.63c.05-.04.1-.07.15-.11.01-.01.02-.01.02-.02a8.324,8.324,0,0,1,2.319-1.13c.01,0,.02-.01.03-.01.05-.01.11-.03.16-.04.03-.01.06-.01.089-.02a.292.292,0,0,1,.09-.02c.05-.02.11-.02.16-.04.01,0,.02-.01.03-.01a8.236,8.236,0,0,1,2.748-.16.075.075,0,0,1,.05.01l.24.03c.04.01.08.01.12.02a.41.41,0,0,0,.11.01c.33.06.65.14.97.23a11.254,11.254,0,0,1,9.263-5.13,17.757,17.757,0,0,0-2.818-2.05.031.031,0,0,0-.02-.01c-.09-.05-.18-.11-.27-.15a.233.233,0,0,1-.069-.04.01.01,0,0,1-.01-.01c-.02-.02-.05-.02-.07-.04s-.05-.03-.08-.04c-.07-.04-.14-.07-.2-.11s-.11-.05-.16-.08-.13-.07-.19-.1-.11-.05-.17-.08-.13-.06-.19-.09-.11-.05-.17-.08a1.667,1.667,0,0,0-.2-.08c-.05-.02-.109-.04-.169-.07a1.8,1.8,0,0,0-.21-.08c-.05-.02-.11-.05-.16-.07-.11-.05-.24-.09-.35-.14-.05-.02-.11-.04-.16-.06a1.8,1.8,0,0,1-.21-.08l-.18-.06c-.06-.02-.13-.04-.189-.06s-.13-.04-.19-.06-.12-.04-.19-.06a1.332,1.332,0,0,0-.19-.05c-.06-.01-.12-.04-.18-.05a1.462,1.462,0,0,0-.2-.05,1.209,1.209,0,0,1-.18-.05c-.07-.01-.13-.03-.2-.04s-.12-.03-.179-.04-.13-.03-.2-.05a1.419,1.419,0,0,1-.22-.05c-.11-.02-.24-.04-.35-.07l-.17-.03a1.552,1.552,0,0,1-.21-.04,1.127,1.127,0,0,1-.18-.03l-.209-.03c-.06-.01-.11-.01-.17-.02s-.14-.01-.21-.02a1.028,1.028,0,0,0-.18-.01c-.04,0-.08-.01-.11-.01a1.087,1.087,0,0,0-.18-.01,1.148,1.148,0,0,0-.19-.01c-.08-.01-.17-.01-.26-.02-.05,0-.1-.01-.15-.01h-.059c-.08,0-.17-.01-.25-.01-.05,0-.1-.01-.14-.01-.14,0-.29-.01-.43-.01s-.28,0-.42.01a.66.66,0,0,0-.14.01c-.1,0-.189.01-.289.01-.05,0-.11.01-.16.01-.09.01-.17.01-.26.02a.97.97,0,0,1-.17.01c-.08.01-.17.01-.25.02a.915.915,0,0,1-.17.01l-.24.03c-.05.01-.1.01-.139.02-.1.02-.21.03-.31.04a.615.615,0,0,1-.13.01c-.14.02-.27.05-.41.07-.01,0-.02.01-.04.01-.12.02-.24.04-.37.07-.04.01-.09.02-.14.03-.089.01-.169.04-.269.06a.936.936,0,0,0-.16.04,1.6,1.6,0,0,0-.21.05c-.02,0-.03.01-.05.01s-.07.01-.1.02-.06.01-.09.02l-.23.06c-.01,0-.02.01-.03.01-.03.01-.07.02-.1.03-.21.06-.409.12-.619.19l-.01.01a11.223,11.223,0,0,0-.18,10.56"/>
            </g>
          </g>
        </g>
      </g>
    </g>
    <g id="Inventory-2" data-name="Inventory">
      <circle class="cls-13" cx="167.307" cy="205.912" r="32"/>
      <g id="Inv_icon-4" data-name="Inv_icon">
        <g class="cls-42">
          <g>
            <g class="cls-42">
              <path class="cls-18" d="M159,208.339a8.016,8.016,0,0,1-.172-.993,1.126,1.126,0,0,1-.02-.182v-.02a8.381,8.381,0,0,1,.182-2.6c0-.01.01-.01.01-.03.02-.051.02-.112.04-.162a.279.279,0,0,0,.021-.091c.01-.031.01-.061.02-.092.02-.05.03-.111.051-.162,0-.01.01-.01.01-.03a8,8,0,0,1,1.255-2.492.145.145,0,0,1,.03-.041c.051-.071.1-.131.152-.2a.723.723,0,0,1,.081-.1c.02-.03.051-.05.071-.081a8.163,8.163,0,0,1,.688-.739,11.362,11.362,0,0,1,.193-10.708,17.931,17.931,0,0,0-3.219,1.428.034.034,0,0,1-.021.01c-.091.051-.182.112-.273.163-.02.01-.051.03-.071.04a.01.01,0,0,0-.01.01c-.02.01-.051.02-.061.041a.379.379,0,0,0-.081.05c-.061.041-.131.081-.192.122s-.1.071-.152.1a1.927,1.927,0,0,0-.182.122c-.051.04-.1.071-.152.111s-.111.081-.172.122-.1.071-.152.111a1.976,1.976,0,0,0-.172.132c-.051.04-.1.071-.152.111a1.249,1.249,0,0,0-.172.142,1.76,1.76,0,0,1-.142.112l-.3.243c-.05.04-.091.081-.131.111s-.112.1-.172.152a.849.849,0,0,0-.142.132,1.794,1.794,0,0,0-.152.142c-.04.05-.1.091-.142.142s-.1.091-.151.141-.1.092-.152.142a2018761914058.582,2018761914058.582,0,0,1-.284.284,1.722,1.722,0,0,0-.141.142c-.051.05-.092.1-.142.141s-.081.092-.132.142-.091.1-.142.152-.1.122-.151.172c-.081.092-.162.183-.233.274a.746.746,0,0,0-.112.142c-.05.05-.091.111-.141.172a1.389,1.389,0,0,0-.112.142,1.068,1.068,0,0,0-.131.172,1.76,1.76,0,0,0-.112.142c-.04.061-.081.111-.131.182a1.76,1.76,0,0,0-.112.142.475.475,0,0,0-.06.091c-.041.051-.071.1-.112.152s-.071.1-.111.152a1.639,1.639,0,0,1-.152.213c-.03.04-.051.081-.081.121-.01.011-.02.041-.03.051-.041.071-.091.142-.142.213-.02.04-.051.081-.071.121-.081.122-.152.254-.223.375s-.141.253-.2.375c-.02.041-.051.081-.071.122-.051.081-.091.172-.142.253a.984.984,0,0,1-.081.142,1.8,1.8,0,0,0-.111.243.578.578,0,0,1-.081.152c-.041.081-.071.152-.111.233-.021.05-.051.1-.071.152-.041.081-.071.162-.112.233a1.384,1.384,0,0,0-.06.142c-.041.091-.071.182-.112.273-.01.041-.03.081-.04.122l-.152.395a.037.037,0,0,0-.01.03c-.051.122-.081.243-.122.365-.02.05-.03.091-.05.132-.031.081-.051.172-.081.263-.021.051-.031.111-.051.152l-.061.213a.06.06,0,0,0-.01.04c-.01.03-.02.061-.03.1s-.01.061-.02.092c-.021.081-.041.152-.061.233,0,.01-.01.02-.01.03a.364.364,0,0,0-.021.1l-.151.638v.011a11.472,11.472,0,0,0,9.192,5.47"/>
            </g>
            <g class="cls-42">
              <path class="cls-19" d="M164.917,214.282a8.706,8.706,0,0,1-.93-.34c-.05-.02-.11-.05-.17-.08a.035.035,0,0,1-.02-.01,8.04,8.04,0,0,1-2.138-1.44l-.02-.02c-.04-.04-.08-.07-.12-.11a.462.462,0,0,0-.07-.07l-.07-.07-.11-.11c-.01-.01-.02-.01-.02-.02a8.281,8.281,0,0,1-1.519-2.3.076.076,0,0,1-.02-.04c-.03-.08-.06-.15-.09-.23-.02-.04-.03-.07-.05-.11a.76.76,0,0,0-.04-.11c-.11-.32-.21-.64-.29-.96a11.241,11.241,0,0,1-9.074-5.45,16.655,16.655,0,0,0-.359,3.46v.6c0,.07.01.15.01.23,0,.06.01.12.01.18s.01.15.02.21a1.087,1.087,0,0,1,.01.18c.01.07.01.14.02.21a1.087,1.087,0,0,1,.01.18,1.646,1.646,0,0,1,.02.21c.009.06.009.12.019.18s.02.15.03.22c.01.05.01.11.02.17.02.12.04.25.06.37.01.05.02.11.03.17.02.08.02.14.04.22a1.286,1.286,0,0,0,.04.19c.02.07.02.13.04.2s.03.13.05.19.03.13.05.19.03.13.05.2.03.12.05.18a1.462,1.462,0,0,0,.05.2,1.209,1.209,0,0,0,.05.18c.01.07.04.13.05.2a1.209,1.209,0,0,1,.05.18c.02.07.04.13.06.2a1.293,1.293,0,0,0,.07.21c.04.12.08.23.11.34.02.05.04.11.06.17a1.192,1.192,0,0,0,.08.2.851.851,0,0,1,.06.17,1.192,1.192,0,0,0,.08.2c.02.05.05.11.07.16.03.07.05.14.08.2s.05.11.07.16c.01.03.03.07.04.1.02.05.05.11.079.17s.05.11.08.17a1.627,1.627,0,0,1,.11.23c.02.04.05.09.07.14.01.01.01.04.03.05a2.256,2.256,0,0,1,.11.22.826.826,0,0,0,.07.13c.07.13.14.25.21.38s.14.24.22.36a.444.444,0,0,0,.08.11l.15.24c.03.04.06.09.09.14.05.08.1.14.15.22.03.04.06.09.1.14.049.07.1.14.139.21a1.7,1.7,0,0,1,.1.14l.15.21c.03.04.06.08.1.13.06.08.11.15.17.22.03.04.05.07.08.11.08.11.18.21.26.32a.077.077,0,0,1,.02.03c.08.1.16.19.24.28.03.04.06.07.09.11.06.07.12.14.18.2l.109.11c.05.05.1.11.15.15l.03.03a.462.462,0,0,1,.07.07.462.462,0,0,1,.07.07l.17.17c.01.01.02.01.02.02.02.02.05.04.08.07.15.15.31.29.48.44h.01a11.265,11.265,0,0,0,9.284-5.13"/>
            </g>
            <g class="cls-42">
              <path class="cls-20" d="M172.738,211.982a7.685,7.685,0,0,1-.759.63c-.05.04-.1.07-.15.11a.031.031,0,0,1-.02.01,8.324,8.324,0,0,1-2.319,1.13c-.01,0-.02.01-.03.01-.049.01-.109.03-.159.04-.03.01-.06.01-.09.02s-.06.01-.09.02a.936.936,0,0,0-.16.04c-.01,0-.02.01-.03.01a8.236,8.236,0,0,1-2.748.16c-.01,0-.04,0-.05-.01l-.24-.03c-.04-.01-.08-.01-.12-.02a.425.425,0,0,0-.11-.02c-.33-.06-.65-.14-.969-.23a11.257,11.257,0,0,1-9.264,5.13,17.2,17.2,0,0,0,2.818,2.05l.02.02c.09.05.18.11.27.15a.251.251,0,0,1,.07.04c.01,0,.01.01.02.01.02.02.04.02.07.04s.05.03.08.04c.069.04.139.07.2.11a1.29,1.29,0,0,1,.16.09c.06.03.13.07.19.1s.11.05.17.08.13.06.19.09a1.3,1.3,0,0,1,.17.08,1.667,1.667,0,0,0,.2.08c.05.02.11.05.17.08a1.789,1.789,0,0,0,.209.08,1.111,1.111,0,0,1,.16.07c.11.04.24.09.35.14.05.02.11.04.16.06a1.8,1.8,0,0,1,.21.08l.18.06c.06.02.13.04.19.06s.13.04.189.06.12.04.19.06a1.332,1.332,0,0,0,.19.05c.06.01.12.04.18.05s.13.04.2.05a1.163,1.163,0,0,0,.18.04c.07.02.13.03.2.05s.12.03.18.04.13.03.2.05a1.742,1.742,0,0,1,.22.05c.11.02.24.05.35.07.06.01.11.02.18.03a1.552,1.552,0,0,1,.21.04,1.01,1.01,0,0,1,.17.03c.07.01.15.02.21.03s.11.01.169.02a1.646,1.646,0,0,0,.21.02.985.985,0,0,0,.17.02c.04,0,.08.01.11.01a1.087,1.087,0,0,0,.18.01c.06.01.12.01.19.02a2.175,2.175,0,0,0,.26.01c.05,0,.1.01.15.01h.06c.08,0,.169.01.249.01.04,0,.1.01.14.01.15,0,.29.01.43.01s.28,0,.42-.01a.66.66,0,0,0,.14-.01c.1,0,.19-.01.289-.01.05,0,.11-.01.16-.01a2.26,2.26,0,0,1,.26-.01c.05-.01.11-.01.17-.02.08-.01.17-.01.25-.02.05-.01.11-.01.17-.02l.24-.03c.05-.01.1-.01.14-.02.1-.02.209-.03.309-.04a.615.615,0,0,1,.13-.01c.14-.02.27-.04.41-.07.02,0,.02-.01.04-.01.12-.02.24-.05.37-.07l.14-.03a2.539,2.539,0,0,0,.269-.06.936.936,0,0,0,.16-.04c.07-.02.14-.03.21-.05.01,0,.03-.01.04-.01.03-.01.07-.01.1-.02l.09-.02.23-.06c.01,0,.02-.01.03-.01.03-.01.07-.02.1-.03.2-.06.41-.12.619-.19l.01-.01a11.187,11.187,0,0,0,.19-10.57"/>
            </g>
            <g class="cls-42">
              <path class="cls-21" d="M174.625,204.34a8.16,8.16,0,0,1,.172.988,1.093,1.093,0,0,1,.01.181v.02a8.054,8.054,0,0,1-.182,2.589c0,.01-.01.02-.01.03a.924.924,0,0,1-.04.161.3.3,0,0,0-.02.091c-.01.03-.01.06-.02.091a1.056,1.056,0,0,0-.041.161c0,.01-.01.01-.01.03a8.051,8.051,0,0,1-1.248,2.478c-.01.01-.02.03-.03.041-.05.07-.1.13-.151.2a.652.652,0,0,1-.081.1c-.02.03-.05.05-.07.08a7.956,7.956,0,0,1-.685.736,11.327,11.327,0,0,1-.191,10.648,18.5,18.5,0,0,0,3.2-1.421.032.032,0,0,1,.021-.01c.09-.05.181-.111.271-.161a.165.165,0,0,1,.071-.04.01.01,0,0,0,.01-.01c.02-.02.05-.02.06-.041a.9.9,0,0,0,.091-.05c.06-.04.131-.081.191-.121s.1-.07.151-.1l.181-.121c.051-.04.1-.07.151-.11s.111-.081.172-.121.1-.071.151-.111a2.11,2.11,0,0,0,.171-.131c.04-.04.1-.07.141-.111.06-.05.12-.09.181-.141a1.782,1.782,0,0,1,.141-.111l.3-.241c.05-.041.09-.081.131-.121s.12-.1.171-.141.1-.081.141-.131.1-.091.151-.141.1-.091.141-.141a1.727,1.727,0,0,1,.151-.141c.04-.051.1-.091.141-.141l.141-.141.151-.152c.04-.05.09-.09.14-.141a1.044,1.044,0,0,1,.141-.141c.041-.04.081-.09.131-.141s.091-.1.141-.151.1-.111.151-.171c.081-.091.161-.181.232-.272a.812.812,0,0,0,.111-.141,2.011,2.011,0,0,1,.14-.161,1.338,1.338,0,0,0,.111-.141,1.9,1.9,0,0,0,.131-.171,1.758,1.758,0,0,0,.111-.142c.04-.06.08-.11.131-.181.04-.05.07-.091.11-.141a.414.414,0,0,0,.061-.091c.04-.05.07-.1.111-.151s.07-.1.11-.151c.051-.07.091-.151.141-.211.03-.041.051-.081.081-.121a.254.254,0,0,1,.03-.051c.04-.07.091-.141.141-.211a.842.842,0,0,1,.08-.121c.081-.121.151-.252.222-.373s.141-.252.211-.372a.72.72,0,0,1,.071-.121c.05-.081.09-.172.141-.252a.506.506,0,0,1,.08-.141,1.67,1.67,0,0,0,.111-.242.531.531,0,0,1,.081-.151c.04-.071.07-.151.11-.232.02-.05.051-.1.071-.151.04-.08.07-.161.111-.242a.818.818,0,0,0,.06-.141c.04-.09.07-.181.111-.272.02-.04.03-.08.05-.121.05-.131.1-.262.141-.392.01-.011.01-.021.02-.031.04-.121.081-.231.121-.362.02-.041.03-.091.05-.131.03-.081.051-.182.081-.262.02-.051.03-.111.05-.151l.061-.212c.01-.01.01-.03.02-.05s.02-.061.03-.1.01-.06.02-.091c.02-.08.04-.151.06-.231,0-.01.01-.02.01-.031.011-.03.011-.07.021-.1l.151-.635v-.01a11.591,11.591,0,0,0-9.182-5.42"/>
            </g>
            <g class="cls-42">
              <path class="cls-22" d="M169.7,198.512a8.77,8.77,0,0,1,.929.34c.05.02.11.05.17.08a.035.035,0,0,1,.02.01,8.285,8.285,0,0,1,2.138,1.44c.01.01.02.01.02.02.04.04.08.07.12.11a.462.462,0,0,0,.07.07l.07.07.11.11c.01.01.02.01.02.02a8.281,8.281,0,0,1,1.519,2.3c.01.02.02.03.02.05.03.08.06.15.09.23.02.04.03.08.05.12a.76.76,0,0,0,.04.11c.11.32.21.64.29.96a11.241,11.241,0,0,1,9.074,5.45,17.363,17.363,0,0,0,.36-3.46v-.6c0-.08-.01-.15-.01-.23,0-.06-.01-.12-.01-.18s-.01-.14-.02-.21-.01-.12-.02-.18a1.548,1.548,0,0,1-.01-.21c-.01-.06-.01-.12-.02-.18a1.646,1.646,0,0,1-.02-.21c-.01-.06-.01-.12-.02-.18s-.02-.15-.03-.22a.881.881,0,0,1-.02-.17c-.02-.12-.04-.25-.06-.37-.01-.05-.02-.11-.03-.17-.02-.08-.02-.15-.04-.22s-.02-.13-.04-.19-.02-.13-.04-.2a1.286,1.286,0,0,1-.04-.19c-.02-.06-.03-.13-.05-.19s-.03-.13-.05-.2a1.209,1.209,0,0,0-.05-.18c-.02-.07-.03-.13-.05-.2a1.209,1.209,0,0,0-.05-.18c-.01-.07-.04-.13-.05-.2s-.04-.12-.05-.18-.04-.13-.06-.2-.05-.14-.07-.21c-.04-.11-.08-.23-.11-.33-.02-.05-.04-.11-.06-.17a1.192,1.192,0,0,0-.08-.2.851.851,0,0,1-.06-.17,1.192,1.192,0,0,0-.08-.2c-.02-.05-.05-.11-.07-.16-.03-.07-.049-.14-.079-.2s-.05-.11-.07-.16c-.02-.03-.03-.07-.05-.1-.02-.05-.05-.11-.08-.17s-.05-.11-.08-.17a2.4,2.4,0,0,1-.11-.23c-.02-.04-.05-.09-.07-.14-.01-.01-.02-.04-.03-.05-.04-.08-.08-.15-.11-.22a.826.826,0,0,0-.07-.13c-.07-.13-.14-.25-.21-.38s-.14-.24-.22-.36a.444.444,0,0,0-.08-.11l-.15-.24c-.03-.05-.06-.09-.09-.14-.05-.07-.1-.14-.149-.22-.03-.04-.06-.09-.1-.14-.05-.07-.1-.14-.14-.21-.03-.05-.07-.09-.1-.14l-.15-.21c-.03-.04-.06-.08-.1-.13-.06-.08-.11-.15-.17-.22-.03-.04-.05-.07-.08-.11-.08-.11-.18-.21-.26-.32a.077.077,0,0,1-.02-.03c-.08-.1-.16-.19-.24-.28-.03-.04-.059-.07-.089-.11-.06-.07-.12-.14-.18-.2l-.11-.11c-.05-.05-.1-.11-.15-.15l-.03-.03-.07-.07-.07-.07-.17-.17-.02-.02c-.02-.02-.05-.04-.08-.07-.15-.15-.31-.3-.48-.44h-.01a11.2,11.2,0,0,0-9.273,5.1"/>
            </g>
            <g class="cls-42">
              <path class="cls-23" d="M161.376,199.822a6.766,6.766,0,0,1,.759-.63c.05-.04.1-.07.15-.11.01-.01.02-.01.02-.02a8.324,8.324,0,0,1,2.319-1.13c.01,0,.02-.01.03-.01.05-.01.11-.03.16-.04.03-.01.06-.01.089-.02a.292.292,0,0,1,.09-.02c.05-.02.11-.02.16-.04.01,0,.02-.01.03-.01a8.236,8.236,0,0,1,2.748-.16.075.075,0,0,1,.05.01l.24.03c.04.01.08.01.12.02a.41.41,0,0,0,.11.01c.33.06.65.14.97.23a11.254,11.254,0,0,1,9.263-5.13,17.757,17.757,0,0,0-2.818-2.05.031.031,0,0,0-.02-.01c-.09-.05-.18-.11-.27-.15a.233.233,0,0,1-.069-.04.01.01,0,0,1-.01-.01c-.02-.02-.05-.02-.07-.04s-.05-.03-.08-.04c-.07-.04-.14-.07-.2-.11s-.11-.05-.16-.08-.13-.07-.19-.1-.11-.05-.17-.08-.13-.06-.19-.09-.11-.05-.17-.08a1.667,1.667,0,0,0-.2-.08c-.05-.02-.109-.04-.169-.07a1.8,1.8,0,0,0-.21-.08c-.05-.02-.11-.05-.16-.07-.11-.05-.24-.09-.35-.14-.05-.02-.11-.04-.16-.06a1.8,1.8,0,0,1-.21-.08l-.18-.06c-.06-.02-.13-.04-.189-.06s-.13-.04-.19-.06-.12-.04-.19-.06a1.332,1.332,0,0,0-.19-.05c-.06-.01-.12-.04-.18-.05a1.462,1.462,0,0,0-.2-.05,1.209,1.209,0,0,1-.18-.05c-.07-.01-.13-.03-.2-.04s-.12-.03-.179-.04-.13-.03-.2-.05a1.419,1.419,0,0,1-.22-.05c-.11-.02-.24-.04-.35-.07l-.17-.03a1.552,1.552,0,0,1-.21-.04,1.127,1.127,0,0,1-.18-.03l-.209-.03c-.06-.01-.11-.01-.17-.02s-.14-.01-.21-.02a1.028,1.028,0,0,0-.18-.01c-.04,0-.08-.01-.11-.01a1.087,1.087,0,0,0-.18-.01,1.148,1.148,0,0,0-.19-.01c-.08-.01-.17-.01-.26-.02-.05,0-.1-.01-.15-.01h-.059c-.08,0-.17-.01-.25-.01-.05,0-.1-.01-.14-.01-.14,0-.29-.01-.43-.01s-.28,0-.42.01a.66.66,0,0,0-.14.01c-.1,0-.189.01-.289.01-.05,0-.11.01-.16.01-.09.01-.17.01-.26.02a.97.97,0,0,1-.17.01c-.08.01-.17.01-.25.02a.915.915,0,0,1-.17.01l-.24.03c-.05.01-.1.01-.139.02-.1.02-.21.03-.31.04a.615.615,0,0,1-.13.01c-.14.02-.27.05-.41.07-.01,0-.02.01-.04.01-.12.02-.24.04-.37.07-.04.01-.09.02-.14.03-.089.01-.169.04-.269.06a.936.936,0,0,0-.16.04,1.6,1.6,0,0,0-.21.05c-.02,0-.03.01-.05.01s-.07.01-.1.02-.06.01-.09.02l-.23.06c-.01,0-.02.01-.03.01-.03.01-.07.02-.1.03-.21.06-.409.12-.619.19l-.01.01a11.223,11.223,0,0,0-.18,10.56"/>
            </g>
          </g>
        </g>
      </g>
    </g>
  </g>
  <g id="Text">
    <text class="cls-43" transform="translate(146.733 257.895)">I<tspan class="cls-44" x="5.796" y="0">s</tspan><tspan class="cls-45" x="12.627" y="0">sues</tspan></text>
    <text class="cls-46" transform="translate(135.372 400.204)">I<tspan class="cls-47" x="5.824" y="0">nv</tspan><tspan x="20.888" y="0">en</tspan><tspan class="cls-48" x="36.791" y="0">t</tspan><tspan x="41.845" y="0">o</tspan><tspan class="cls-49" x="49.741" y="0">r</tspan><tspan class="cls-45" x="55.229" y="0">y</tspan></text>
    <text class="cls-46" transform="translate(140.857 546.204)">A<tspan class="cls-50" x="9.268" y="0">r</tspan><tspan x="14.685" y="0">tifacts</tspan></text>
    <text class="cls-51" transform="translate(292.125 305.727)">SonarQube</text>
    <text class="cls-46" transform="translate(31.189 114.763)">Cloud<tspan x="-2.415" y="16.8">Object</tspan><tspan class="cls-52" x="-6.139" y="33.6">S</tspan><tspan class="cls-48" x="2.205" y="33.6">t</tspan><tspan x="7.259" y="33.6">o</tspan><tspan class="cls-47" x="15.155" y="33.6">r</tspan><tspan x="20.405" y="33.6">a</tspan><tspan class="cls-53" x="28.09" y="33.6">g</tspan><tspan x="35.524" y="33.6">e</tspan></text>
    <text class="cls-54" transform="translate(528.244 305.928)">Secrets<tspan class="cls-55"><tspan x="-3.541" y="16.8">Manager</tspan></tspan></text>
    <text class="cls-54" transform="translate(698.143 401.727)">Evidence</text>
    <text class="cls-51" transform="translate(290.418 458.028)">Key Protect</text>
    <text class="cls-54" transform="translate(415.709 458.139)">DevOps<tspan class="cls-55"><tspan x="-1.428" y="16.8">Insights</tspan></tspan></text>
    <text class="cls-56" transform="translate(380.364 164.692)">C<tspan class="cls-57" x="14.904" y="0">C Pipeline</tspan></text>
    <text class="cls-46" transform="translate(139.066 114.512)">Eviden<tspan class="cls-44" x="43.371" y="0">c</tspan><tspan x="50.427" y="0">e</tspan></text>
    <g id="DevOps_insights-2" data-name="DevOps_insights">
      <g id="Evidence-6" data-name="Evidence">
        <circle class="cls-13" cx="438.705" cy="252.956" r="32"/>
      </g>
      <g>
        <path class="cls-58" d="M435.005,236.056a3.159,3.159,0,0,0-3.2,3.2h0a3.159,3.159,0,0,0,3.2,3.2h3.2v-3.2a3.159,3.159,0,0,0-3.2-3.2h0m-.8,9.4h-7.772a2.961,2.961,0,0,0-3,3h0a2.962,2.962,0,0,0,3,3H434.4a2.962,2.962,0,0,0,3-3h0a2.962,2.962,0,0,0-3-3h0"/>
        <path class="cls-59" d="M454.605,248.256a3.159,3.159,0,0,0-3.2-3.2h0a3.159,3.159,0,0,0-3.2,3.2h0v3.2h3.2a3.29,3.29,0,0,0,3.2-3.2h0m-8.4.2v-8.435a2.962,2.962,0,0,0-3-3h0a2.962,2.962,0,0,0-3,3h0v7.969a2.961,2.961,0,0,0,3,3h0a3.021,3.021,0,0,0,3-3h0"/>
        <path class="cls-60" d="M443.405,268.856a3.159,3.159,0,0,0,3.2-3.2h0a3.159,3.159,0,0,0-3.2-3.2h-3.2v3.2a3.159,3.159,0,0,0,3.2,3.2h0m-.2-9.4h8.3a2.962,2.962,0,0,0,3-3h0a2.962,2.962,0,0,0-3-3h-7.969a2.961,2.961,0,0,0-3,3h0a2.962,2.962,0,0,0,3,3h0"/>
        <path class="cls-61" d="M422.805,256.656a3.159,3.159,0,0,0,3.2,3.2h0a3.159,3.159,0,0,0,3.2-3.2h0v-3.2h-3.2a3.159,3.159,0,0,0-3.2,3.2h0m8.4.8v7.534a2.961,2.961,0,0,0,3,3h0a2.962,2.962,0,0,0,3-3h0v-7.969a2.962,2.962,0,0,0-3-3h0a2.962,2.962,0,0,0-3,3h0"/>
      </g>
    </g>
    <text class="cls-54" transform="translate(421.171 305.775)">Slack</text>
  </g>
</svg>
