<?xml version="1.0" encoding="utf-8"?>
<!-- Generator: Adobe Illustrator 27.0.1, SVG Export Plug-In . SVG Version: 6.00 Build 0)  -->
<svg version="1.1" id="Layer_1" xmlns="http://www.w3.org/2000/svg" xmlns:xlink="http://www.w3.org/1999/xlink" x="0px" y="0px"
	 viewBox="0 0 541 684" style="enable-background:new 0 0 541 684;" xml:space="preserve">
<style type="text/css">
	.st0{fill:#D3E6D3;stroke:#80B165;}
	.st1{fill:#FFFFFF;stroke:#000000;}
	.st2{fill:none;stroke:#000000;stroke-width:2;stroke-miterlimit:10;}
	.st3{stroke:#000000;stroke-width:2;stroke-miterlimit:10;}
	.st4{font-family:'Helvetica-Bold';}
	.st5{font-size:13.7449px;}
	.st6{fill:#D9E7F5;stroke:#6D8DBE;stroke-width:2;stroke-dasharray:6,6;}
	.st7{font-family:'Helvetica';}
	.st8{font-size:17.4102px;}
	.st9{fill:none;stroke:#6D8DBE;stroke-width:2;stroke-miterlimit:10;stroke-dasharray:6,6;}
	.st10{fill:#6D8DBE;stroke:#6D8DBE;stroke-width:2;stroke-miterlimit:10;}
	.st11{fill:none;stroke:#000000;stroke-miterlimit:10;}
	.st12{stroke:#000000;stroke-miterlimit:10;}
	.st13{fill:#FFFFFF;stroke:#000000;stroke-miterlimit:10;}
	.st14{fill:none;stroke:#000000;}
	.st15{font-size:11.9347px;}
</style>
<g>
	<ellipse pointer-events="all" class="st0" cx="84.1" cy="134.7" rx="23.8" ry="24.8"/>
	<ellipse pointer-events="all" class="st1" cx="84.1" cy="258.5" rx="23.8" ry="24.8"/>
	<path pointer-events="stroke" class="st2" d="M84.1,159.4v66.8"/>
	<path pointer-events="all" class="st3" d="M84.1,231.7l-3.5-7.3l3.5,1.8l3.5-1.8L84.1,231.7z"/>
	<ellipse pointer-events="all" class="st1" cx="84.1" cy="382.3" rx="23.8" ry="24.8"/>
	<path pointer-events="stroke" class="st2" d="M84.1,283.3V350"/>
	<path pointer-events="all" class="st3" d="M84.1,355.5l-3.5-7.3l3.5,1.8l3.5-1.8L84.1,355.5z"/>
	<ellipse pointer-events="all" class="st1" cx="84.1" cy="506.1" rx="23.8" ry="24.8"/>
	<path pointer-events="stroke" class="st2" d="M84.1,407.1v66.7"/>
	<path pointer-events="all" class="st3" d="M84.1,479.3l-3.5-7.3l3.5,1.8l3.5-1.8L84.1,479.3z"/>
	<ellipse pointer-events="all" class="st1" cx="84.1" cy="630" rx="23.8" ry="24.8"/>
	<path pointer-events="stroke" class="st2" d="M84.1,530.9v66.7"/>
	<path pointer-events="all" class="st3" d="M84.1,603.2l-3.5-7.3l3.5,1.8l3.5-1.8L84.1,603.2z"/>
	<rect x="30.7" y="29.4" pointer-events="all" class="st1" width="105.8" height="37.1"/>
	<g transform="translate(-0.5 -0.5)">
		<text transform="matrix(0.9619 0 0 1 62.0138 51.7286)" class="st4 st5">master</text>
	</g>
	<ellipse pointer-events="all" class="st1" cx="274.7" cy="258.5" rx="23.8" ry="24.8"/>
	<ellipse pointer-events="all" class="st1" cx="274.7" cy="382.3" rx="23.8" ry="24.8"/>
	<path pointer-events="stroke" class="st2" d="M274.7,283.3V350"/>
	<path pointer-events="all" class="st3" d="M274.7,355.5l-3.5-7.3l3.5,1.8l3.5-1.8L274.7,355.5z"/>
	<ellipse pointer-events="all" class="st1" cx="274.7" cy="506.1" rx="23.8" ry="24.8"/>
	<path pointer-events="stroke" class="st2" d="M274.7,407.1v66.7"/>
	<path pointer-events="all" class="st3" d="M274.7,479.3l-3.5-7.3l3.5,1.8l3.5-1.8L274.7,479.3z"/>
	<ellipse pointer-events="all" class="st1" cx="274.7" cy="630" rx="23.8" ry="24.8"/>
	<path pointer-events="stroke" class="st2" d="M274.7,530.9v66.7"/>
	<path pointer-events="all" class="st3" d="M274.7,603.2l-3.5-7.3l3.5,1.8l3.5-1.8L274.7,603.2z"/>
	<rect x="224.7" y="29.4" pointer-events="all" class="st1" width="97" height="37.1"/>
	<g transform="translate(-0.5 -0.5)">
		<text transform="matrix(0.9619 0 0 1 249.6959 51.7286)" class="st4 st5">staging</text>
	</g>
	<ellipse pointer-events="all" class="st6" cx="179.4" cy="178" rx="23.8" ry="24.8"/>
	<g transform="translate(-0.5 -0.5)">
		<text transform="matrix(0.9619 0 0 1 168.1383 183.6798)" class="st7 st8">PR</text>
	</g>
	<path pointer-events="stroke" class="st9" d="M101,152.2l48,22.7"/>
	<path pointer-events="all" class="st10" d="M153.8,177.2l-7.9,0.3l3.1-2.6l-0.1-4.1L153.8,177.2z"/>
	<path pointer-events="stroke" class="st9" d="M274.7,159.4v66.8"/>
	<path pointer-events="all" class="st10" d="M274.7,231.7l-3.5-7.3l3.5,1.8l3.5-1.8L274.7,231.7z"/>
	<ellipse pointer-events="all" class="st6" cx="274.7" cy="134.7" rx="23.8" ry="24.8"/>
	<path pointer-events="stroke" class="st9" d="M203.2,178l48-22.7"/>
	<path pointer-events="all" class="st10" d="M256,153l-5,6.4l0.1-4.1l-3.1-2.6L256,153z"/>
	<path pointer-events="stroke" class="st11" d="M331.4,258l-27.2,0"/>
	<path pointer-events="all" class="st12" d="M299.5,258l6.2-3.2l-1.5,3.2l1.5,3.2L299.5,258z"/>
	<path pointer-events="all" class="st13" d="M347.2,231.2h159.5v37.1H331.4v-20.7L347.2,231.2z"/>
	<g transform="translate(-0.5 -0.5)">
		<text transform="matrix(0.9619 0 0 1 385.7521 254.2369)" class="st7 st5">STAGING-LATEST  </text>
	</g>
	<ellipse pointer-events="all" class="st14" cx="179.4" cy="54.9" rx="4.5" ry="4.2"/>
	<path pointer-events="all" class="st11" d="M179.4,59.1v15.5 M179.4,62.2h-8.9 M179.4,62.2h8.9 M179.4,74.6L170.5,87 M179.4,74.6
		l8.9,12.4"/>
	<g transform="translate(-0.5 -0.5)">
		<text transform="matrix(1.0585 0 0 1 164.111 105.942)" class="st7 st15">Rev...</text>
	</g>
</g>
<g>
	<line x1="179.4" y1="117.2" x2="179.4" y2="152.1"/>
	<g>
		<line class="st11" x1="179.4" y1="123.3" x2="179.4" y2="146.1"/>
		<g>
			<path d="M179.4,117.2c-1.1,2.8-2.9,6.4-4.8,8.5l4.8-1.7l4.8,1.7C182.2,123.6,180.4,120.1,179.4,117.2z"/>
		</g>
		<g>
			<path d="M179.4,152.1c-1.1-2.8-2.9-6.4-4.8-8.5l4.8,1.7l4.8-1.7C182.2,145.8,180.4,149.3,179.4,152.1z"/>
		</g>
	</g>
</g>
</svg>
